G04*
G04 #@! TF.GenerationSoftware,Altium Limited,Altium Designer,25.1.2 (22)*
G04*
G04 Layer_Physical_Order=2*
G04 Layer_Color=36540*
%FSLAX44Y44*%
%MOMM*%
G71*
G04*
G04 #@! TF.SameCoordinates,94083409-FE49-4D7E-A8A2-04E92647430A*
G04*
G04*
G04 #@! TF.FilePolarity,Positive*
G04*
G01*
G75*
%ADD127C,1.8000*%
%ADD133C,1.7000*%
%ADD135C,0.4500*%
%ADD136C,0.6000*%
G36*
X972757Y996140D02*
X967361Y992535D01*
X962089Y987911D01*
X957465Y982639D01*
X953568Y976807D01*
X950466Y970518D01*
X948212Y963876D01*
X946844Y956998D01*
X946385Y950000D01*
X946844Y943002D01*
X948212Y936124D01*
X950466Y929482D01*
X953568Y923193D01*
X957465Y917361D01*
X962089Y912089D01*
X967361Y907465D01*
X973193Y903568D01*
X979482Y900466D01*
X986124Y898212D01*
X993002Y896844D01*
X1000000Y896385D01*
X1006998Y896844D01*
X1013876Y898212D01*
X1020518Y900466D01*
X1026807Y903568D01*
X1032639Y907465D01*
X1037911Y912089D01*
X1042535Y917361D01*
X1046140Y922757D01*
X1047410Y922371D01*
Y77629D01*
X1046140Y77243D01*
X1042535Y82639D01*
X1037911Y87911D01*
X1032639Y92535D01*
X1026807Y96432D01*
X1020518Y99534D01*
X1013876Y101788D01*
X1006998Y103156D01*
X1000000Y103615D01*
X993002Y103156D01*
X986124Y101788D01*
X979482Y99534D01*
X973193Y96432D01*
X967361Y92535D01*
X962089Y87911D01*
X957465Y82639D01*
X953568Y76807D01*
X950466Y70518D01*
X948212Y63877D01*
X946844Y56998D01*
X946385Y50000D01*
X946844Y43002D01*
X948212Y36123D01*
X950466Y29483D01*
X953568Y23193D01*
X957465Y17361D01*
X962089Y12089D01*
X967361Y7465D01*
X972757Y3860D01*
X972371Y2590D01*
X77629D01*
X77243Y3860D01*
X82639Y7465D01*
X87911Y12089D01*
X92535Y17361D01*
X96432Y23193D01*
X99534Y29483D01*
X101788Y36123D01*
X103156Y43002D01*
X103615Y50000D01*
X103156Y56998D01*
X101788Y63877D01*
X99534Y70518D01*
X96432Y76807D01*
X92535Y82639D01*
X87911Y87911D01*
X82639Y92535D01*
X76807Y96432D01*
X70518Y99534D01*
X63877Y101788D01*
X56998Y103156D01*
X50000Y103615D01*
X43002Y103156D01*
X36123Y101788D01*
X29483Y99534D01*
X23193Y96432D01*
X17361Y92535D01*
X12089Y87911D01*
X7465Y82639D01*
X3860Y77243D01*
X2590Y77629D01*
Y922371D01*
X3860Y922757D01*
X7465Y917361D01*
X12089Y912089D01*
X17361Y907465D01*
X23193Y903568D01*
X29483Y900466D01*
X36123Y898212D01*
X43002Y896844D01*
X50000Y896385D01*
X56998Y896844D01*
X63877Y898212D01*
X70518Y900466D01*
X76807Y903568D01*
X82639Y907465D01*
X87911Y912089D01*
X92535Y917361D01*
X96432Y923193D01*
X99534Y929482D01*
X101788Y936124D01*
X103156Y943002D01*
X103615Y950000D01*
X103156Y956998D01*
X101788Y963876D01*
X99534Y970518D01*
X96432Y976807D01*
X92535Y982639D01*
X87911Y987911D01*
X82639Y992535D01*
X77243Y996140D01*
X77629Y997410D01*
X972371D01*
X972757Y996140D01*
D02*
G37*
%LPC*%
G36*
X632500Y986310D02*
Y977500D01*
X641310D01*
X641243Y978012D01*
X640080Y980820D01*
X638230Y983230D01*
X635820Y985080D01*
X633013Y986243D01*
X632500Y986310D01*
D02*
G37*
G36*
X627500D02*
X626987Y986243D01*
X624180Y985080D01*
X621770Y983230D01*
X619920Y980820D01*
X618757Y978012D01*
X618690Y977500D01*
X627500D01*
Y986310D01*
D02*
G37*
G36*
X655000Y982565D02*
X653042Y982307D01*
X651218Y981551D01*
X649651Y980349D01*
X648449Y978782D01*
X647693Y976958D01*
X647435Y975000D01*
X647693Y973042D01*
X648449Y971218D01*
X649651Y969651D01*
X651218Y968449D01*
X653042Y967693D01*
X655000Y967435D01*
X656958Y967693D01*
X658782Y968449D01*
X660349Y969651D01*
X661551Y971218D01*
X662307Y973042D01*
X662565Y975000D01*
X662307Y976958D01*
X661551Y978782D01*
X660349Y980349D01*
X658782Y981551D01*
X656958Y982307D01*
X655000Y982565D01*
D02*
G37*
G36*
X605000D02*
X603042Y982307D01*
X601218Y981551D01*
X599651Y980349D01*
X598449Y978782D01*
X597693Y976958D01*
X597435Y975000D01*
X597693Y973042D01*
X598449Y971218D01*
X599651Y969651D01*
X601218Y968449D01*
X603042Y967693D01*
X605000Y967435D01*
X606958Y967693D01*
X608782Y968449D01*
X610349Y969651D01*
X611551Y971218D01*
X612307Y973042D01*
X612565Y975000D01*
X612307Y976958D01*
X611551Y978782D01*
X610349Y980349D01*
X608782Y981551D01*
X606958Y982307D01*
X605000Y982565D01*
D02*
G37*
G36*
X580000D02*
X578042Y982307D01*
X576218Y981551D01*
X574651Y980349D01*
X573449Y978782D01*
X572693Y976958D01*
X572435Y975000D01*
X572693Y973042D01*
X573449Y971218D01*
X574651Y969651D01*
X576218Y968449D01*
X578042Y967693D01*
X580000Y967435D01*
X581958Y967693D01*
X583782Y968449D01*
X585349Y969651D01*
X586551Y971218D01*
X587307Y973042D01*
X587565Y975000D01*
X587307Y976958D01*
X586551Y978782D01*
X585349Y980349D01*
X583782Y981551D01*
X581958Y982307D01*
X580000Y982565D01*
D02*
G37*
G36*
X407750Y972309D02*
X406580Y972076D01*
X405587Y971413D01*
X404924Y970421D01*
X404691Y969250D01*
X404924Y968080D01*
X405587Y967087D01*
X406580Y966424D01*
X407750Y966191D01*
X408921Y966424D01*
X409913Y967087D01*
X410576Y968080D01*
X410809Y969250D01*
X410576Y970421D01*
X409913Y971413D01*
X408921Y972076D01*
X407750Y972309D01*
D02*
G37*
G36*
X440000Y970059D02*
X438829Y969826D01*
X437837Y969163D01*
X437174Y968170D01*
X436941Y967000D01*
X437174Y965829D01*
X437837Y964837D01*
X438829Y964174D01*
X440000Y963941D01*
X441171Y964174D01*
X442163Y964837D01*
X442826Y965829D01*
X443059Y967000D01*
X442826Y968170D01*
X442163Y969163D01*
X441171Y969826D01*
X440000Y970059D01*
D02*
G37*
G36*
X641311Y972500D02*
X632500D01*
Y963690D01*
X633013Y963757D01*
X635820Y964920D01*
X638230Y966770D01*
X640080Y969180D01*
X641243Y971988D01*
X641311Y972500D01*
D02*
G37*
G36*
X627500D02*
X618690D01*
X618757Y971988D01*
X619920Y969180D01*
X621770Y966770D01*
X624180Y964920D01*
X626987Y963757D01*
X627500Y963690D01*
Y972500D01*
D02*
G37*
G36*
X910800Y965086D02*
X908189Y964743D01*
X905757Y963735D01*
X903668Y962132D01*
X902065Y960043D01*
X901057Y957610D01*
X900714Y955000D01*
X901057Y952390D01*
X902065Y949957D01*
X903668Y947868D01*
X905757Y946265D01*
X908189Y945257D01*
X910800Y944914D01*
X913410Y945257D01*
X915843Y946265D01*
X917932Y947868D01*
X919535Y949957D01*
X920543Y952390D01*
X920886Y955000D01*
X920543Y957610D01*
X919535Y960043D01*
X917932Y962132D01*
X915843Y963735D01*
X913410Y964743D01*
X910800Y965086D01*
D02*
G37*
G36*
X860000D02*
X857390Y964743D01*
X854957Y963735D01*
X852868Y962132D01*
X851265Y960043D01*
X850257Y957610D01*
X849914Y955000D01*
X850257Y952390D01*
X851265Y949957D01*
X852868Y947868D01*
X854957Y946265D01*
X857390Y945257D01*
X860000Y944914D01*
X862610Y945257D01*
X865043Y946265D01*
X867132Y947868D01*
X868735Y949957D01*
X869743Y952390D01*
X870086Y955000D01*
X869743Y957610D01*
X868735Y960043D01*
X867132Y962132D01*
X865043Y963735D01*
X862610Y964743D01*
X860000Y965086D01*
D02*
G37*
G36*
X809200D02*
X806590Y964743D01*
X804157Y963735D01*
X802068Y962132D01*
X800465Y960043D01*
X799457Y957610D01*
X799114Y955000D01*
X799457Y952390D01*
X800465Y949957D01*
X802068Y947868D01*
X804157Y946265D01*
X806590Y945257D01*
X809200Y944914D01*
X811811Y945257D01*
X814243Y946265D01*
X816332Y947868D01*
X817935Y949957D01*
X818943Y952390D01*
X819286Y955000D01*
X818943Y957610D01*
X817935Y960043D01*
X816332Y962132D01*
X814243Y963735D01*
X811811Y964743D01*
X809200Y965086D01*
D02*
G37*
G36*
X389938Y945246D02*
X388767Y945014D01*
X387775Y944350D01*
X387112Y943358D01*
X386879Y942188D01*
X387112Y941017D01*
X387775Y940025D01*
X388767Y939362D01*
X389938Y939129D01*
X391108Y939362D01*
X392100Y940025D01*
X392763Y941017D01*
X392996Y942188D01*
X392763Y943358D01*
X392100Y944350D01*
X391108Y945014D01*
X389938Y945246D01*
D02*
G37*
G36*
X481250Y936819D02*
X479884Y936547D01*
X478727Y935773D01*
X477953Y934616D01*
X477681Y933250D01*
X477953Y931884D01*
X478727Y930727D01*
X479884Y929953D01*
X481250Y929681D01*
X482616Y929953D01*
X483773Y930727D01*
X484547Y931884D01*
X484819Y933250D01*
X484547Y934616D01*
X483773Y935773D01*
X482616Y936547D01*
X481250Y936819D01*
D02*
G37*
G36*
X405500Y934809D02*
X404329Y934576D01*
X403337Y933913D01*
X402674Y932921D01*
X402441Y931750D01*
X402674Y930580D01*
X403337Y929587D01*
X404329Y928924D01*
X405500Y928691D01*
X406670Y928924D01*
X407663Y929587D01*
X408326Y930580D01*
X408559Y931750D01*
X408326Y932921D01*
X407663Y933913D01*
X406670Y934576D01*
X405500Y934809D01*
D02*
G37*
G36*
X511000Y924309D02*
X509829Y924076D01*
X508837Y923413D01*
X508174Y922421D01*
X507941Y921250D01*
X508174Y920079D01*
X508837Y919087D01*
X509829Y918424D01*
X511000Y918191D01*
X512170Y918424D01*
X513163Y919087D01*
X513826Y920079D01*
X514059Y921250D01*
X513826Y922421D01*
X513163Y923413D01*
X512170Y924076D01*
X511000Y924309D01*
D02*
G37*
G36*
X628500Y921809D02*
X627329Y921576D01*
X626337Y920913D01*
X625674Y919921D01*
X625441Y918750D01*
X625674Y917579D01*
X626337Y916587D01*
X627329Y915924D01*
X628500Y915691D01*
X629670Y915924D01*
X630663Y916587D01*
X631326Y917579D01*
X631559Y918750D01*
X631326Y919921D01*
X630663Y920913D01*
X629670Y921576D01*
X628500Y921809D01*
D02*
G37*
G36*
X556000D02*
X554829Y921576D01*
X553837Y920913D01*
X553174Y919921D01*
X552941Y918750D01*
X553174Y917579D01*
X553837Y916587D01*
X554829Y915924D01*
X556000Y915691D01*
X557171Y915924D01*
X558163Y916587D01*
X558826Y917579D01*
X559059Y918750D01*
X558826Y919921D01*
X558163Y920913D01*
X557171Y921576D01*
X556000Y921809D01*
D02*
G37*
G36*
X695750Y921069D02*
X694384Y920797D01*
X693227Y920023D01*
X692453Y918866D01*
X692181Y917500D01*
X692453Y916134D01*
X693227Y914977D01*
X694384Y914203D01*
X695750Y913931D01*
X697116Y914203D01*
X698273Y914977D01*
X699047Y916134D01*
X699319Y917500D01*
X699047Y918866D01*
X698273Y920023D01*
X697116Y920797D01*
X695750Y921069D01*
D02*
G37*
G36*
X242500Y921311D02*
Y912500D01*
X251310D01*
X251243Y913013D01*
X250080Y915820D01*
X248230Y918230D01*
X245820Y920080D01*
X243013Y921243D01*
X242500Y921311D01*
D02*
G37*
G36*
X272500D02*
Y912500D01*
X281310D01*
X281243Y913013D01*
X280080Y915820D01*
X278230Y918230D01*
X275820Y920080D01*
X273013Y921243D01*
X272500Y921311D01*
D02*
G37*
G36*
X267500Y921310D02*
X266987Y921243D01*
X264180Y920080D01*
X261770Y918230D01*
X259920Y915820D01*
X258757Y913013D01*
X258689Y912500D01*
X267500D01*
Y921310D01*
D02*
G37*
G36*
X237500D02*
X236987Y921243D01*
X234180Y920080D01*
X231770Y918230D01*
X229920Y915820D01*
X228757Y913013D01*
X228690Y912500D01*
X237500D01*
Y921310D01*
D02*
G37*
G36*
X390250Y909809D02*
X389080Y909576D01*
X388087Y908913D01*
X387424Y907921D01*
X387191Y906750D01*
X387424Y905580D01*
X388087Y904587D01*
X389080Y903924D01*
X390250Y903691D01*
X391421Y903924D01*
X392413Y904587D01*
X393076Y905580D01*
X393309Y906750D01*
X393076Y907921D01*
X392413Y908913D01*
X391421Y909576D01*
X390250Y909809D01*
D02*
G37*
G36*
X210000Y917565D02*
X208042Y917307D01*
X206218Y916551D01*
X204651Y915349D01*
X203449Y913782D01*
X202693Y911958D01*
X202435Y910000D01*
X202693Y908042D01*
X203449Y906218D01*
X204651Y904651D01*
X206218Y903449D01*
X208042Y902693D01*
X210000Y902435D01*
X211958Y902693D01*
X213782Y903449D01*
X215349Y904651D01*
X216551Y906218D01*
X217307Y908042D01*
X217565Y910000D01*
X217307Y911958D01*
X216551Y913782D01*
X215349Y915349D01*
X213782Y916551D01*
X211958Y917307D01*
X210000Y917565D01*
D02*
G37*
G36*
X180000Y917565D02*
X178042Y917307D01*
X176218Y916551D01*
X174651Y915349D01*
X173449Y913782D01*
X172693Y911958D01*
X172435Y910000D01*
X172693Y908042D01*
X173449Y906218D01*
X174651Y904651D01*
X176218Y903449D01*
X178042Y902693D01*
X180000Y902435D01*
X181958Y902693D01*
X183782Y903449D01*
X185349Y904651D01*
X186551Y906218D01*
X187307Y908042D01*
X187565Y910000D01*
X187307Y911958D01*
X186551Y913782D01*
X185349Y915349D01*
X183782Y916551D01*
X181958Y917307D01*
X180000Y917565D01*
D02*
G37*
G36*
X150000D02*
X148042Y917307D01*
X146218Y916551D01*
X144651Y915349D01*
X143449Y913782D01*
X142693Y911958D01*
X142435Y910000D01*
X142693Y908042D01*
X143449Y906218D01*
X144651Y904651D01*
X146218Y903449D01*
X148042Y902693D01*
X150000Y902435D01*
X151958Y902693D01*
X153782Y903449D01*
X155349Y904651D01*
X156551Y906218D01*
X157307Y908042D01*
X157565Y910000D01*
X157307Y911958D01*
X156551Y913782D01*
X155349Y915349D01*
X153782Y916551D01*
X151958Y917307D01*
X150000Y917565D01*
D02*
G37*
G36*
X267500Y907500D02*
X258689D01*
X258757Y906988D01*
X259920Y904180D01*
X261770Y901770D01*
X264180Y899920D01*
X266987Y898757D01*
X267500Y898690D01*
Y907500D01*
D02*
G37*
G36*
X237500D02*
X228690D01*
X228757Y906988D01*
X229920Y904180D01*
X231770Y901770D01*
X234180Y899920D01*
X236987Y898757D01*
X237500Y898690D01*
Y907500D01*
D02*
G37*
G36*
X251310D02*
X242500D01*
Y898690D01*
X243013Y898757D01*
X245820Y899920D01*
X248230Y901770D01*
X250080Y904180D01*
X251243Y906988D01*
X251310Y907500D01*
D02*
G37*
G36*
X281310D02*
X272500D01*
Y898690D01*
X273013Y898757D01*
X275820Y899920D01*
X278230Y901770D01*
X280080Y904180D01*
X281243Y906988D01*
X281310Y907500D01*
D02*
G37*
G36*
X404500Y900059D02*
X403330Y899826D01*
X402337Y899163D01*
X401674Y898170D01*
X401441Y897000D01*
X401674Y895829D01*
X402337Y894837D01*
X403330Y894174D01*
X404500Y893941D01*
X405671Y894174D01*
X406663Y894837D01*
X407326Y895829D01*
X407559Y897000D01*
X407326Y898170D01*
X406663Y899163D01*
X405671Y899826D01*
X404500Y900059D01*
D02*
G37*
G36*
X683500Y900319D02*
X682134Y900047D01*
X680977Y899273D01*
X680203Y898116D01*
X679931Y896750D01*
X680203Y895384D01*
X680977Y894227D01*
X682134Y893453D01*
X683500Y893181D01*
X684866Y893453D01*
X686023Y894227D01*
X686797Y895384D01*
X687069Y896750D01*
X686797Y898116D01*
X686023Y899273D01*
X684866Y900047D01*
X683500Y900319D01*
D02*
G37*
G36*
X270000Y887565D02*
X268042Y887307D01*
X266218Y886551D01*
X264651Y885349D01*
X263449Y883782D01*
X262693Y881958D01*
X262435Y880000D01*
X262693Y878042D01*
X263449Y876218D01*
X264651Y874651D01*
X266218Y873449D01*
X268042Y872693D01*
X270000Y872435D01*
X271958Y872693D01*
X273782Y873449D01*
X275349Y874651D01*
X276551Y876218D01*
X277307Y878042D01*
X277565Y880000D01*
X277307Y881958D01*
X276551Y883782D01*
X275349Y885349D01*
X273782Y886551D01*
X271958Y887307D01*
X270000Y887565D01*
D02*
G37*
G36*
X240000D02*
X238042Y887307D01*
X236218Y886551D01*
X234651Y885349D01*
X233449Y883782D01*
X232693Y881958D01*
X232435Y880000D01*
X232693Y878042D01*
X233449Y876218D01*
X234651Y874651D01*
X236218Y873449D01*
X238042Y872693D01*
X240000Y872435D01*
X241958Y872693D01*
X243782Y873449D01*
X245349Y874651D01*
X246551Y876218D01*
X247307Y878042D01*
X247565Y880000D01*
X247307Y881958D01*
X246551Y883782D01*
X245349Y885349D01*
X243782Y886551D01*
X241958Y887307D01*
X240000Y887565D01*
D02*
G37*
G36*
X210000D02*
X208042Y887307D01*
X206218Y886551D01*
X204651Y885349D01*
X203449Y883782D01*
X202693Y881958D01*
X202435Y880000D01*
X202693Y878042D01*
X203449Y876218D01*
X204651Y874651D01*
X206218Y873449D01*
X208042Y872693D01*
X210000Y872435D01*
X211958Y872693D01*
X213782Y873449D01*
X215349Y874651D01*
X216551Y876218D01*
X217307Y878042D01*
X217565Y880000D01*
X217307Y881958D01*
X216551Y883782D01*
X215349Y885349D01*
X213782Y886551D01*
X211958Y887307D01*
X210000Y887565D01*
D02*
G37*
G36*
X180000Y887565D02*
X178042Y887307D01*
X176218Y886551D01*
X174651Y885349D01*
X173449Y883782D01*
X172693Y881958D01*
X172435Y880000D01*
X172693Y878042D01*
X173449Y876218D01*
X174651Y874651D01*
X176218Y873449D01*
X178042Y872693D01*
X180000Y872435D01*
X181958Y872693D01*
X183782Y873449D01*
X185349Y874651D01*
X186551Y876218D01*
X187307Y878042D01*
X187565Y880000D01*
X187307Y881958D01*
X186551Y883782D01*
X185349Y885349D01*
X183782Y886551D01*
X181958Y887307D01*
X180000Y887565D01*
D02*
G37*
G36*
X150000D02*
X148042Y887307D01*
X146218Y886551D01*
X144651Y885349D01*
X143449Y883782D01*
X142693Y881958D01*
X142435Y880000D01*
X142693Y878042D01*
X143449Y876218D01*
X144651Y874651D01*
X146218Y873449D01*
X148042Y872693D01*
X150000Y872435D01*
X151958Y872693D01*
X153782Y873449D01*
X155349Y874651D01*
X156551Y876218D01*
X157307Y878042D01*
X157565Y880000D01*
X157307Y881958D01*
X156551Y883782D01*
X155349Y885349D01*
X153782Y886551D01*
X151958Y887307D01*
X150000Y887565D01*
D02*
G37*
G36*
X799250Y885686D02*
X797031Y885394D01*
X794963Y884538D01*
X793188Y883175D01*
X791825Y881400D01*
X790969Y879332D01*
X790677Y877113D01*
X790969Y874894D01*
X791825Y872826D01*
X793188Y871050D01*
X794963Y869688D01*
X797031Y868832D01*
X799250Y868540D01*
X801469Y868832D01*
X803537Y869688D01*
X805312Y871050D01*
X806675Y872826D01*
X807531Y874894D01*
X807823Y877113D01*
X807531Y879332D01*
X806675Y881400D01*
X805312Y883175D01*
X803537Y884538D01*
X801469Y885394D01*
X799250Y885686D01*
D02*
G37*
G36*
X919250Y883961D02*
X917031Y883668D01*
X914963Y882812D01*
X913188Y881450D01*
X911825Y879674D01*
X910969Y877606D01*
X910677Y875387D01*
X910969Y873168D01*
X911825Y871101D01*
X913188Y869325D01*
X914963Y867962D01*
X917031Y867106D01*
X919250Y866814D01*
X921469Y867106D01*
X923537Y867962D01*
X925312Y869325D01*
X926675Y871101D01*
X927531Y873168D01*
X927823Y875387D01*
X927531Y877606D01*
X926675Y879674D01*
X925312Y881450D01*
X923537Y882812D01*
X921469Y883668D01*
X919250Y883961D01*
D02*
G37*
G36*
X718500Y864569D02*
X717134Y864297D01*
X715977Y863523D01*
X715203Y862366D01*
X714931Y861000D01*
X715203Y859634D01*
X715977Y858477D01*
X717134Y857703D01*
X718500Y857431D01*
X719866Y857703D01*
X721023Y858477D01*
X721797Y859634D01*
X722069Y861000D01*
X721797Y862366D01*
X721023Y863523D01*
X719866Y864297D01*
X718500Y864569D01*
D02*
G37*
G36*
X641850Y834006D02*
Y825700D01*
X650156D01*
X650106Y826082D01*
X648993Y828768D01*
X647224Y831074D01*
X644918Y832843D01*
X642232Y833956D01*
X641850Y834006D01*
D02*
G37*
G36*
X636850Y834006D02*
X636468Y833956D01*
X633782Y832843D01*
X631476Y831074D01*
X629707Y828768D01*
X628594Y826082D01*
X628544Y825700D01*
X636850D01*
Y834006D01*
D02*
G37*
G36*
X664750Y830260D02*
X662923Y830020D01*
X661220Y829314D01*
X659758Y828192D01*
X658635Y826730D01*
X657930Y825027D01*
X657690Y823200D01*
X657930Y821373D01*
X658635Y819670D01*
X659758Y818207D01*
X661220Y817085D01*
X662923Y816380D01*
X664750Y816140D01*
X666577Y816380D01*
X668280Y817085D01*
X669743Y818207D01*
X670864Y819670D01*
X671570Y821373D01*
X671810Y823200D01*
X671570Y825027D01*
X670864Y826730D01*
X669743Y828192D01*
X668280Y829314D01*
X666577Y830020D01*
X664750Y830260D01*
D02*
G37*
G36*
X690150Y830260D02*
X688323Y830020D01*
X686620Y829314D01*
X685157Y828192D01*
X684035Y826730D01*
X683330Y825027D01*
X683090Y823200D01*
X683330Y821373D01*
X684035Y819670D01*
X685157Y818207D01*
X686620Y817085D01*
X688323Y816380D01*
X690150Y816140D01*
X691977Y816380D01*
X693680Y817085D01*
X695142Y818207D01*
X696264Y819670D01*
X696970Y821373D01*
X697210Y823200D01*
X696970Y825027D01*
X696264Y826730D01*
X695142Y828192D01*
X693680Y829314D01*
X691977Y830020D01*
X690150Y830260D01*
D02*
G37*
G36*
X650156Y820700D02*
X641850D01*
Y812394D01*
X642232Y812444D01*
X644918Y813557D01*
X647224Y815326D01*
X648993Y817632D01*
X650106Y820318D01*
X650156Y820700D01*
D02*
G37*
G36*
X636850D02*
X628544D01*
X628594Y820318D01*
X629707Y817632D01*
X631476Y815326D01*
X633782Y813557D01*
X636468Y812444D01*
X636850Y812394D01*
Y820700D01*
D02*
G37*
G36*
X250000Y813809D02*
X248829Y813576D01*
X247837Y812913D01*
X247174Y811920D01*
X246941Y810750D01*
X247174Y809579D01*
X247837Y808587D01*
X248829Y807924D01*
X250000Y807691D01*
X251171Y807924D01*
X252163Y808587D01*
X252826Y809579D01*
X253059Y810750D01*
X252826Y811920D01*
X252163Y812913D01*
X251171Y813576D01*
X250000Y813809D01*
D02*
G37*
G36*
X224000Y805809D02*
X222829Y805576D01*
X221837Y804913D01*
X221174Y803921D01*
X220941Y802750D01*
X221174Y801580D01*
X221837Y800587D01*
X222829Y799924D01*
X224000Y799691D01*
X225170Y799924D01*
X226163Y800587D01*
X226826Y801580D01*
X227059Y802750D01*
X226826Y803921D01*
X226163Y804913D01*
X225170Y805576D01*
X224000Y805809D01*
D02*
G37*
G36*
X217250Y799059D02*
X216080Y798826D01*
X215087Y798163D01*
X214424Y797170D01*
X214191Y796000D01*
X214424Y794829D01*
X215087Y793837D01*
X216080Y793174D01*
X217250Y792941D01*
X218421Y793174D01*
X219413Y793837D01*
X220076Y794829D01*
X220309Y796000D01*
X220076Y797170D01*
X219413Y798163D01*
X218421Y798826D01*
X217250Y799059D01*
D02*
G37*
G36*
X518000Y797059D02*
X516829Y796826D01*
X515837Y796163D01*
X515174Y795171D01*
X514941Y794000D01*
X515174Y792830D01*
X515837Y791837D01*
X516829Y791174D01*
X518000Y790941D01*
X519170Y791174D01*
X520163Y791837D01*
X520826Y792830D01*
X521059Y794000D01*
X520826Y795171D01*
X520163Y796163D01*
X519170Y796826D01*
X518000Y797059D01*
D02*
G37*
G36*
X690150Y804860D02*
X688323Y804620D01*
X686620Y803914D01*
X685157Y802793D01*
X684035Y801330D01*
X683330Y799627D01*
X683090Y797800D01*
X683330Y795973D01*
X684035Y794270D01*
X685157Y792808D01*
X686620Y791685D01*
X688323Y790980D01*
X690150Y790740D01*
X691977Y790980D01*
X693680Y791685D01*
X695142Y792808D01*
X696264Y794270D01*
X696970Y795973D01*
X697210Y797800D01*
X696970Y799627D01*
X696264Y801330D01*
X695142Y802793D01*
X693680Y803914D01*
X691977Y804620D01*
X690150Y804860D01*
D02*
G37*
G36*
X664750Y804860D02*
X662923Y804620D01*
X661220Y803914D01*
X659758Y802792D01*
X658635Y801330D01*
X657930Y799627D01*
X657690Y797800D01*
X657930Y795973D01*
X658635Y794270D01*
X659758Y792807D01*
X661220Y791685D01*
X662923Y790980D01*
X664750Y790740D01*
X666577Y790980D01*
X668280Y791685D01*
X669743Y792807D01*
X670864Y794270D01*
X671570Y795973D01*
X671810Y797800D01*
X671570Y799627D01*
X670864Y801330D01*
X669743Y802792D01*
X668280Y803914D01*
X666577Y804620D01*
X664750Y804860D01*
D02*
G37*
G36*
X639350D02*
X637523Y804620D01*
X635820Y803914D01*
X634358Y802792D01*
X633236Y801330D01*
X632530Y799627D01*
X632290Y797800D01*
X632530Y795973D01*
X633236Y794270D01*
X634358Y792807D01*
X635820Y791685D01*
X637523Y790980D01*
X639350Y790740D01*
X641177Y790980D01*
X642880Y791685D01*
X644342Y792807D01*
X645464Y794270D01*
X646170Y795973D01*
X646410Y797800D01*
X646170Y799627D01*
X645464Y801330D01*
X644342Y802792D01*
X642880Y803914D01*
X641177Y804620D01*
X639350Y804860D01*
D02*
G37*
G36*
X349500Y790309D02*
X348330Y790076D01*
X347337Y789413D01*
X346674Y788420D01*
X346441Y787250D01*
X346674Y786079D01*
X347337Y785087D01*
X348330Y784424D01*
X349500Y784191D01*
X350671Y784424D01*
X351663Y785087D01*
X352326Y786079D01*
X352559Y787250D01*
X352326Y788420D01*
X351663Y789413D01*
X350671Y790076D01*
X349500Y790309D01*
D02*
G37*
G36*
X342250Y785309D02*
X341079Y785076D01*
X340087Y784413D01*
X339424Y783420D01*
X339191Y782250D01*
X339424Y781079D01*
X340087Y780087D01*
X341079Y779424D01*
X342250Y779191D01*
X343420Y779424D01*
X344413Y780087D01*
X345076Y781079D01*
X345309Y782250D01*
X345076Y783420D01*
X344413Y784413D01*
X343420Y785076D01*
X342250Y785309D01*
D02*
G37*
G36*
X574000Y783309D02*
X572830Y783076D01*
X571837Y782413D01*
X571174Y781421D01*
X570941Y780250D01*
X571174Y779080D01*
X571837Y778087D01*
X572830Y777424D01*
X574000Y777191D01*
X575171Y777424D01*
X576163Y778087D01*
X576826Y779080D01*
X577059Y780250D01*
X576826Y781421D01*
X576163Y782413D01*
X575171Y783076D01*
X574000Y783309D01*
D02*
G37*
G36*
X171252Y790288D02*
X169887Y790017D01*
X168729Y789243D01*
X167956Y788086D01*
X167684Y786720D01*
X167956Y785354D01*
X168729Y784197D01*
X169048Y783984D01*
Y782456D01*
X168729Y782243D01*
X167956Y781086D01*
X167684Y779720D01*
X167956Y778354D01*
X168729Y777197D01*
X168861Y777109D01*
Y775581D01*
X168729Y775493D01*
X168208Y774714D01*
X168076Y774670D01*
X166929D01*
X166797Y774714D01*
X166276Y775493D01*
X165118Y776267D01*
X163752Y776538D01*
X162387Y776267D01*
X161229Y775493D01*
X160456Y774336D01*
X160184Y772970D01*
X160456Y771604D01*
X161229Y770447D01*
X162387Y769673D01*
X163752Y769401D01*
X165118Y769673D01*
X166276Y770447D01*
X166797Y771226D01*
X166929Y771270D01*
X168076D01*
X168208Y771226D01*
X168729Y770447D01*
X169887Y769673D01*
X171252Y769401D01*
X172618Y769673D01*
X173776Y770447D01*
X174549Y771604D01*
X174821Y772970D01*
X174549Y774336D01*
X173776Y775493D01*
X173644Y775581D01*
Y777109D01*
X173776Y777197D01*
X174549Y778354D01*
X174821Y779720D01*
X174549Y781086D01*
X173776Y782243D01*
X173457Y782456D01*
Y783984D01*
X173776Y784197D01*
X174549Y785354D01*
X174821Y786720D01*
X174549Y788086D01*
X173776Y789243D01*
X172618Y790017D01*
X171252Y790288D01*
D02*
G37*
G36*
X357250Y780559D02*
X356079Y780326D01*
X355087Y779663D01*
X354424Y778671D01*
X354191Y777500D01*
X354424Y776329D01*
X355087Y775337D01*
X356079Y774674D01*
X357250Y774441D01*
X358420Y774674D01*
X359413Y775337D01*
X360076Y776329D01*
X360309Y777500D01*
X360076Y778671D01*
X359413Y779663D01*
X358420Y780326D01*
X357250Y780559D01*
D02*
G37*
G36*
X702750Y779569D02*
X701384Y779297D01*
X700227Y778523D01*
X699453Y777366D01*
X699181Y776000D01*
X699453Y774634D01*
X700227Y773477D01*
X701384Y772703D01*
X702750Y772431D01*
X704116Y772703D01*
X705273Y773477D01*
X706047Y774634D01*
X706319Y776000D01*
X706047Y777366D01*
X705273Y778523D01*
X704116Y779297D01*
X702750Y779569D01*
D02*
G37*
G36*
X367000Y773559D02*
X365830Y773326D01*
X364837Y772663D01*
X364174Y771671D01*
X363941Y770500D01*
X364174Y769330D01*
X364837Y768337D01*
X365830Y767674D01*
X367000Y767441D01*
X368171Y767674D01*
X369163Y768337D01*
X369826Y769330D01*
X370059Y770500D01*
X369826Y771671D01*
X369163Y772663D01*
X368171Y773326D01*
X367000Y773559D01*
D02*
G37*
G36*
X429000Y763309D02*
X427830Y763076D01*
X426837Y762413D01*
X426174Y761421D01*
X425941Y760250D01*
X426174Y759080D01*
X426837Y758087D01*
X427830Y757424D01*
X429000Y757191D01*
X430171Y757424D01*
X431163Y758087D01*
X431826Y759080D01*
X432059Y760250D01*
X431826Y761421D01*
X431163Y762413D01*
X430171Y763076D01*
X429000Y763309D01*
D02*
G37*
G36*
X396000Y758809D02*
X394829Y758576D01*
X393837Y757913D01*
X393174Y756920D01*
X392941Y755750D01*
X393174Y754579D01*
X393837Y753587D01*
X394829Y752924D01*
X396000Y752691D01*
X397170Y752924D01*
X398163Y753587D01*
X398826Y754579D01*
X399059Y755750D01*
X398826Y756920D01*
X398163Y757913D01*
X397170Y758576D01*
X396000Y758809D01*
D02*
G37*
G36*
X171252Y764889D02*
X169887Y764617D01*
X168729Y763843D01*
X167956Y762686D01*
X167684Y761320D01*
X167956Y759954D01*
X168729Y758797D01*
X169048Y758584D01*
Y757056D01*
X168729Y756843D01*
X167956Y755686D01*
X167684Y754320D01*
X167956Y752954D01*
X168729Y751797D01*
X168861Y751709D01*
Y750181D01*
X168729Y750093D01*
X168208Y749314D01*
X168076Y749270D01*
X166929D01*
X166797Y749314D01*
X166276Y750093D01*
X165118Y750867D01*
X163752Y751139D01*
X162387Y750867D01*
X161229Y750093D01*
X160456Y748936D01*
X160184Y747570D01*
X160456Y746204D01*
X161229Y745047D01*
X162387Y744273D01*
X163752Y744001D01*
X165118Y744273D01*
X166276Y745047D01*
X166797Y745826D01*
X166929Y745870D01*
X168076D01*
X168208Y745826D01*
X168729Y745047D01*
X169887Y744273D01*
X171252Y744001D01*
X172618Y744273D01*
X173776Y745047D01*
X174549Y746204D01*
X174821Y747570D01*
X174549Y748936D01*
X173776Y750093D01*
X173644Y750181D01*
Y751709D01*
X173776Y751797D01*
X174549Y752954D01*
X174821Y754320D01*
X174549Y755686D01*
X173776Y756843D01*
X173457Y757056D01*
Y758584D01*
X173776Y758797D01*
X174549Y759954D01*
X174821Y761320D01*
X174549Y762686D01*
X173776Y763843D01*
X172618Y764617D01*
X171252Y764889D01*
D02*
G37*
G36*
X437750Y753309D02*
X436580Y753076D01*
X435587Y752413D01*
X434924Y751421D01*
X434691Y750250D01*
X434924Y749080D01*
X435587Y748087D01*
X436580Y747424D01*
X437750Y747191D01*
X438921Y747424D01*
X439913Y748087D01*
X440576Y749080D01*
X440809Y750250D01*
X440576Y751421D01*
X439913Y752413D01*
X438921Y753076D01*
X437750Y753309D01*
D02*
G37*
G36*
X799250Y763686D02*
X797031Y763394D01*
X794963Y762538D01*
X793188Y761175D01*
X791825Y759399D01*
X790969Y757332D01*
X790677Y755113D01*
X790969Y752894D01*
X791825Y750826D01*
X793188Y749051D01*
X794963Y747688D01*
X797031Y746832D01*
X799250Y746540D01*
X801469Y746832D01*
X803537Y747688D01*
X805312Y749051D01*
X806675Y750826D01*
X807531Y752894D01*
X807823Y755113D01*
X807531Y757332D01*
X806675Y759399D01*
X805312Y761175D01*
X803537Y762538D01*
X801469Y763394D01*
X799250Y763686D01*
D02*
G37*
G36*
X919250Y761961D02*
X917031Y761668D01*
X914963Y760812D01*
X913188Y759449D01*
X911825Y757674D01*
X910969Y755606D01*
X910677Y753387D01*
X910969Y751168D01*
X911825Y749101D01*
X913188Y747325D01*
X914963Y745963D01*
X917031Y745106D01*
X919250Y744814D01*
X921469Y745106D01*
X923537Y745963D01*
X925312Y747325D01*
X926675Y749101D01*
X927531Y751168D01*
X927823Y753387D01*
X927531Y755606D01*
X926675Y757674D01*
X925312Y759449D01*
X923537Y760812D01*
X921469Y761668D01*
X919250Y761961D01*
D02*
G37*
G36*
X739500Y748059D02*
X738329Y747826D01*
X737337Y747163D01*
X736674Y746171D01*
X736441Y745000D01*
X736674Y743829D01*
X737337Y742837D01*
X738329Y742174D01*
X739500Y741941D01*
X740670Y742174D01*
X741663Y742837D01*
X742326Y743829D01*
X742559Y745000D01*
X742326Y746171D01*
X741663Y747163D01*
X740670Y747826D01*
X739500Y748059D01*
D02*
G37*
G36*
X423000Y744059D02*
X421829Y743826D01*
X420837Y743163D01*
X420174Y742170D01*
X419941Y741000D01*
X420174Y739829D01*
X420837Y738837D01*
X421829Y738174D01*
X423000Y737941D01*
X424170Y738174D01*
X425163Y738837D01*
X425826Y739829D01*
X426059Y741000D01*
X425826Y742170D01*
X425163Y743163D01*
X424170Y743826D01*
X423000Y744059D01*
D02*
G37*
G36*
X754000Y738809D02*
X752830Y738576D01*
X751837Y737913D01*
X751174Y736920D01*
X750941Y735750D01*
X751174Y734579D01*
X751837Y733587D01*
X752830Y732924D01*
X754000Y732691D01*
X755171Y732924D01*
X756163Y733587D01*
X756826Y734579D01*
X757059Y735750D01*
X756826Y736920D01*
X756163Y737913D01*
X755171Y738576D01*
X754000Y738809D01*
D02*
G37*
G36*
X416842Y735807D02*
X415672Y735574D01*
X414679Y734911D01*
X414016Y733918D01*
X413784Y732748D01*
X414016Y731577D01*
X414679Y730585D01*
X415672Y729922D01*
X416842Y729689D01*
X418013Y729922D01*
X419005Y730585D01*
X419668Y731577D01*
X419901Y732748D01*
X419668Y733918D01*
X419005Y734911D01*
X418013Y735574D01*
X416842Y735807D01*
D02*
G37*
G36*
X318750Y735559D02*
X317579Y735326D01*
X316587Y734663D01*
X315924Y733671D01*
X315691Y732500D01*
X315924Y731329D01*
X316587Y730337D01*
X317579Y729674D01*
X318750Y729441D01*
X319921Y729674D01*
X320913Y730337D01*
X321576Y731329D01*
X321809Y732500D01*
X321576Y733671D01*
X320913Y734663D01*
X319921Y735326D01*
X318750Y735559D01*
D02*
G37*
G36*
X260250Y733309D02*
X259079Y733076D01*
X258087Y732413D01*
X257424Y731421D01*
X257191Y730250D01*
X257424Y729080D01*
X258087Y728087D01*
X259079Y727424D01*
X260250Y727191D01*
X261420Y727424D01*
X262413Y728087D01*
X263076Y729080D01*
X263309Y730250D01*
X263076Y731421D01*
X262413Y732413D01*
X261420Y733076D01*
X260250Y733309D01*
D02*
G37*
G36*
X859250Y741961D02*
X857031Y741668D01*
X854963Y740812D01*
X853188Y739449D01*
X851825Y737674D01*
X850969Y735606D01*
X850677Y733387D01*
X850969Y731168D01*
X851825Y729100D01*
X853188Y727325D01*
X854963Y725963D01*
X857031Y725106D01*
X859250Y724814D01*
X861469Y725106D01*
X863537Y725963D01*
X865312Y727325D01*
X866675Y729100D01*
X867531Y731168D01*
X867823Y733387D01*
X867531Y735606D01*
X866675Y737674D01*
X865312Y739449D01*
X863537Y740812D01*
X861469Y741668D01*
X859250Y741961D01*
D02*
G37*
G36*
X738500Y724809D02*
X737329Y724576D01*
X736337Y723913D01*
X735674Y722921D01*
X735441Y721750D01*
X735674Y720580D01*
X736337Y719587D01*
X737329Y718924D01*
X738500Y718691D01*
X739670Y718924D01*
X740663Y719587D01*
X741326Y720580D01*
X741559Y721750D01*
X741326Y722921D01*
X740663Y723913D01*
X739670Y724576D01*
X738500Y724809D01*
D02*
G37*
G36*
X300875Y722934D02*
X299704Y722701D01*
X298712Y722038D01*
X298049Y721046D01*
X297816Y719875D01*
X298049Y718705D01*
X298712Y717712D01*
X299704Y717049D01*
X300875Y716816D01*
X302045Y717049D01*
X303038Y717712D01*
X303701Y718705D01*
X303934Y719875D01*
X303701Y721046D01*
X303038Y722038D01*
X302045Y722701D01*
X300875Y722934D01*
D02*
G37*
G36*
X306500Y716059D02*
X305329Y715826D01*
X304337Y715163D01*
X303674Y714171D01*
X303441Y713000D01*
X303674Y711830D01*
X304337Y710837D01*
X305329Y710174D01*
X306500Y709941D01*
X307670Y710174D01*
X308663Y710837D01*
X309326Y711830D01*
X309559Y713000D01*
X309326Y714171D01*
X308663Y715163D01*
X307670Y715826D01*
X306500Y716059D01*
D02*
G37*
G36*
X754750Y711809D02*
X753579Y711576D01*
X752587Y710913D01*
X751924Y709921D01*
X751691Y708750D01*
X751924Y707579D01*
X752587Y706587D01*
X753579Y705924D01*
X754750Y705691D01*
X755920Y705924D01*
X756913Y706587D01*
X757576Y707579D01*
X757809Y708750D01*
X757576Y709921D01*
X756913Y710913D01*
X755920Y711576D01*
X754750Y711809D01*
D02*
G37*
G36*
X678500Y685059D02*
X677329Y684826D01*
X676337Y684163D01*
X675674Y683170D01*
X675441Y682000D01*
X675674Y680829D01*
X676337Y679837D01*
X677329Y679174D01*
X678500Y678941D01*
X679670Y679174D01*
X680663Y679837D01*
X681326Y680829D01*
X681559Y682000D01*
X681326Y683170D01*
X680663Y684163D01*
X679670Y684826D01*
X678500Y685059D01*
D02*
G37*
G36*
X759750Y683809D02*
X758579Y683576D01*
X757587Y682913D01*
X756924Y681920D01*
X756691Y680750D01*
X756924Y679579D01*
X757587Y678587D01*
X758579Y677924D01*
X759750Y677691D01*
X760920Y677924D01*
X761913Y678587D01*
X762576Y679579D01*
X762809Y680750D01*
X762576Y681920D01*
X761913Y682913D01*
X760920Y683576D01*
X759750Y683809D01*
D02*
G37*
G36*
X477750Y679059D02*
X476580Y678826D01*
X475587Y678163D01*
X474924Y677170D01*
X474691Y676000D01*
X474924Y674829D01*
X475587Y673837D01*
X476580Y673174D01*
X477750Y672941D01*
X478921Y673174D01*
X479913Y673837D01*
X480576Y674829D01*
X480809Y676000D01*
X480576Y677170D01*
X479913Y678163D01*
X478921Y678826D01*
X477750Y679059D01*
D02*
G37*
G36*
X684500Y678059D02*
X683329Y677826D01*
X682337Y677163D01*
X681674Y676171D01*
X681441Y675000D01*
X681674Y673829D01*
X682337Y672837D01*
X683329Y672174D01*
X684500Y671941D01*
X685670Y672174D01*
X686663Y672837D01*
X687326Y673829D01*
X687559Y675000D01*
X687326Y676171D01*
X686663Y677163D01*
X685670Y677826D01*
X684500Y678059D01*
D02*
G37*
G36*
X171252Y684038D02*
X169887Y683767D01*
X168729Y682993D01*
X167956Y681836D01*
X167684Y680470D01*
X167956Y679104D01*
X168729Y677947D01*
X169048Y677734D01*
Y676206D01*
X168729Y675993D01*
X167956Y674836D01*
X167684Y673470D01*
X167956Y672104D01*
X168729Y670947D01*
X168861Y670859D01*
Y669331D01*
X168729Y669243D01*
X168208Y668464D01*
X168076Y668420D01*
X166929D01*
X166797Y668464D01*
X166276Y669243D01*
X165118Y670017D01*
X163752Y670289D01*
X162387Y670017D01*
X161229Y669243D01*
X160456Y668086D01*
X160184Y666720D01*
X160456Y665354D01*
X161229Y664197D01*
X162387Y663423D01*
X163752Y663151D01*
X165118Y663423D01*
X166276Y664197D01*
X166797Y664976D01*
X166929Y665020D01*
X168076D01*
X168208Y664976D01*
X168729Y664197D01*
X169887Y663423D01*
X171252Y663151D01*
X172618Y663423D01*
X173776Y664197D01*
X174549Y665354D01*
X174821Y666720D01*
X174549Y668086D01*
X173776Y669243D01*
X173644Y669331D01*
Y670859D01*
X173776Y670947D01*
X174549Y672104D01*
X174821Y673470D01*
X174549Y674836D01*
X173776Y675993D01*
X173457Y676206D01*
Y677734D01*
X173776Y677947D01*
X174549Y679104D01*
X174821Y680470D01*
X174549Y681836D01*
X173776Y682993D01*
X172618Y683767D01*
X171252Y684038D01*
D02*
G37*
G36*
X766250Y672559D02*
X765079Y672326D01*
X764087Y671663D01*
X763424Y670670D01*
X763191Y669500D01*
X763424Y668329D01*
X764087Y667337D01*
X765079Y666674D01*
X766250Y666441D01*
X767421Y666674D01*
X768413Y667337D01*
X769076Y668329D01*
X769309Y669500D01*
X769076Y670670D01*
X768413Y671663D01*
X767421Y672326D01*
X766250Y672559D01*
D02*
G37*
G36*
X735750Y668809D02*
X734579Y668576D01*
X733587Y667913D01*
X732924Y666920D01*
X732691Y665750D01*
X732924Y664579D01*
X733587Y663587D01*
X734579Y662924D01*
X735750Y662691D01*
X736920Y662924D01*
X737913Y663587D01*
X738576Y664579D01*
X738809Y665750D01*
X738576Y666920D01*
X737913Y667913D01*
X736920Y668576D01*
X735750Y668809D01*
D02*
G37*
G36*
X326000Y667559D02*
X324829Y667326D01*
X323837Y666663D01*
X323174Y665670D01*
X322941Y664500D01*
X323174Y663329D01*
X323837Y662337D01*
X324829Y661674D01*
X326000Y661441D01*
X327170Y661674D01*
X328163Y662337D01*
X328826Y663329D01*
X329059Y664500D01*
X328826Y665670D01*
X328163Y666663D01*
X327170Y667326D01*
X326000Y667559D01*
D02*
G37*
G36*
X522250Y665559D02*
X521079Y665326D01*
X520087Y664663D01*
X519424Y663671D01*
X519191Y662500D01*
X519424Y661329D01*
X520087Y660337D01*
X521079Y659674D01*
X522250Y659441D01*
X523420Y659674D01*
X524413Y660337D01*
X525076Y661329D01*
X525309Y662500D01*
X525076Y663671D01*
X524413Y664663D01*
X523420Y665326D01*
X522250Y665559D01*
D02*
G37*
G36*
X171252Y658639D02*
X169887Y658367D01*
X168729Y657593D01*
X167956Y656436D01*
X167684Y655070D01*
X167956Y653704D01*
X168729Y652547D01*
X169048Y652334D01*
Y650806D01*
X168729Y650593D01*
X167956Y649436D01*
X167684Y648070D01*
X167956Y646704D01*
X168729Y645547D01*
X168861Y645459D01*
Y643931D01*
X168729Y643843D01*
X168208Y643064D01*
X168076Y643020D01*
X166929D01*
X166797Y643064D01*
X166276Y643843D01*
X165118Y644617D01*
X163752Y644889D01*
X162387Y644617D01*
X161229Y643843D01*
X160456Y642686D01*
X160184Y641320D01*
X160456Y639954D01*
X161229Y638797D01*
X162387Y638023D01*
X163752Y637751D01*
X165118Y638023D01*
X166276Y638797D01*
X166797Y639576D01*
X166929Y639620D01*
X168076D01*
X168208Y639576D01*
X168729Y638797D01*
X169887Y638023D01*
X171252Y637751D01*
X172618Y638023D01*
X173776Y638797D01*
X174549Y639954D01*
X174821Y641320D01*
X174549Y642686D01*
X173776Y643843D01*
X173644Y643931D01*
Y645459D01*
X173776Y645547D01*
X174549Y646704D01*
X174821Y648070D01*
X174549Y649436D01*
X173776Y650593D01*
X173457Y650806D01*
Y652334D01*
X173776Y652547D01*
X174549Y653704D01*
X174821Y655070D01*
X174549Y656436D01*
X173776Y657593D01*
X172618Y658367D01*
X171252Y658639D01*
D02*
G37*
G36*
X464500Y642809D02*
X463330Y642576D01*
X462337Y641913D01*
X461674Y640920D01*
X461441Y639750D01*
X461674Y638579D01*
X462337Y637587D01*
X463330Y636924D01*
X464500Y636691D01*
X465671Y636924D01*
X466663Y637587D01*
X467326Y638579D01*
X467559Y639750D01*
X467326Y640920D01*
X466663Y641913D01*
X465671Y642576D01*
X464500Y642809D01*
D02*
G37*
G36*
X810500Y639559D02*
X809330Y639326D01*
X808337Y638663D01*
X807674Y637671D01*
X807441Y636500D01*
X807674Y635330D01*
X808337Y634337D01*
X809330Y633674D01*
X810500Y633441D01*
X811671Y633674D01*
X812663Y634337D01*
X813326Y635330D01*
X813559Y636500D01*
X813326Y637671D01*
X812663Y638663D01*
X811671Y639326D01*
X810500Y639559D01*
D02*
G37*
G36*
X858750Y629819D02*
X857384Y629547D01*
X856227Y628773D01*
X855453Y627616D01*
X855181Y626250D01*
X855453Y624884D01*
X856227Y623727D01*
X857384Y622953D01*
X858750Y622681D01*
X860116Y622953D01*
X861273Y623727D01*
X862047Y624884D01*
X862319Y626250D01*
X862047Y627616D01*
X861273Y628773D01*
X860116Y629547D01*
X858750Y629819D01*
D02*
G37*
G36*
X776500Y625559D02*
X775330Y625326D01*
X774337Y624663D01*
X773674Y623671D01*
X773441Y622500D01*
X773674Y621329D01*
X774337Y620337D01*
X775330Y619674D01*
X776500Y619441D01*
X777671Y619674D01*
X778663Y620337D01*
X779326Y621329D01*
X779559Y622500D01*
X779326Y623671D01*
X778663Y624663D01*
X777671Y625326D01*
X776500Y625559D01*
D02*
G37*
G36*
X756500Y624809D02*
X755330Y624576D01*
X754337Y623913D01*
X753674Y622920D01*
X753441Y621750D01*
X753674Y620579D01*
X754337Y619587D01*
X755330Y618924D01*
X756500Y618691D01*
X757671Y618924D01*
X758663Y619587D01*
X759326Y620579D01*
X759559Y621750D01*
X759326Y622920D01*
X758663Y623913D01*
X757671Y624576D01*
X756500Y624809D01*
D02*
G37*
G36*
X234500Y624559D02*
X233330Y624326D01*
X232337Y623663D01*
X231674Y622671D01*
X231441Y621500D01*
X231674Y620330D01*
X232337Y619337D01*
X233330Y618674D01*
X234500Y618441D01*
X235671Y618674D01*
X236663Y619337D01*
X237326Y620330D01*
X237559Y621500D01*
X237326Y622671D01*
X236663Y623663D01*
X235671Y624326D01*
X234500Y624559D01*
D02*
G37*
G36*
X186000Y624309D02*
X184830Y624076D01*
X183837Y623413D01*
X183174Y622421D01*
X182941Y621250D01*
X183174Y620079D01*
X183837Y619087D01*
X184830Y618424D01*
X186000Y618191D01*
X187171Y618424D01*
X188163Y619087D01*
X188826Y620079D01*
X189059Y621250D01*
X188826Y622421D01*
X188163Y623413D01*
X187171Y624076D01*
X186000Y624309D01*
D02*
G37*
G36*
X620500Y623059D02*
X619329Y622826D01*
X618337Y622163D01*
X617674Y621171D01*
X617441Y620000D01*
X617674Y618829D01*
X618337Y617837D01*
X619329Y617174D01*
X620500Y616941D01*
X621670Y617174D01*
X622663Y617837D01*
X623326Y618829D01*
X623559Y620000D01*
X623326Y621171D01*
X622663Y622163D01*
X621670Y622826D01*
X620500Y623059D01*
D02*
G37*
G36*
X638000Y622809D02*
X636829Y622576D01*
X635837Y621913D01*
X635174Y620920D01*
X634941Y619750D01*
X635174Y618579D01*
X635837Y617587D01*
X636829Y616924D01*
X638000Y616691D01*
X639170Y616924D01*
X640163Y617587D01*
X640826Y618579D01*
X641059Y619750D01*
X640826Y620920D01*
X640163Y621913D01*
X639170Y622576D01*
X638000Y622809D01*
D02*
G37*
G36*
X690250Y621059D02*
X689080Y620826D01*
X688087Y620163D01*
X687424Y619170D01*
X687191Y618000D01*
X687424Y616829D01*
X688087Y615837D01*
X689080Y615174D01*
X690250Y614941D01*
X691421Y615174D01*
X692413Y615837D01*
X693076Y616829D01*
X693309Y618000D01*
X693076Y619170D01*
X692413Y620163D01*
X691421Y620826D01*
X690250Y621059D01*
D02*
G37*
G36*
X710500Y620559D02*
X709330Y620326D01*
X708337Y619663D01*
X707674Y618671D01*
X707441Y617500D01*
X707674Y616329D01*
X708337Y615337D01*
X709330Y614674D01*
X710500Y614441D01*
X711671Y614674D01*
X712663Y615337D01*
X713326Y616329D01*
X713559Y617500D01*
X713326Y618671D01*
X712663Y619663D01*
X711671Y620326D01*
X710500Y620559D01*
D02*
G37*
G36*
X440750Y620309D02*
X439580Y620076D01*
X438587Y619413D01*
X437924Y618420D01*
X437691Y617250D01*
X437924Y616079D01*
X438587Y615087D01*
X439580Y614424D01*
X440750Y614191D01*
X441921Y614424D01*
X442913Y615087D01*
X443576Y616079D01*
X443809Y617250D01*
X443576Y618420D01*
X442913Y619413D01*
X441921Y620076D01*
X440750Y620309D01*
D02*
G37*
G36*
X1031000Y620059D02*
X1029829Y619826D01*
X1028837Y619163D01*
X1028174Y618171D01*
X1027941Y617000D01*
X1028174Y615830D01*
X1028837Y614837D01*
X1029829Y614174D01*
X1031000Y613941D01*
X1032170Y614174D01*
X1033163Y614837D01*
X1033826Y615830D01*
X1034059Y617000D01*
X1033826Y618171D01*
X1033163Y619163D01*
X1032170Y619826D01*
X1031000Y620059D01*
D02*
G37*
G36*
X770250Y619559D02*
X769080Y619326D01*
X768087Y618663D01*
X767424Y617671D01*
X767191Y616500D01*
X767424Y615330D01*
X768087Y614337D01*
X769080Y613674D01*
X770250Y613441D01*
X771421Y613674D01*
X772413Y614337D01*
X773076Y615330D01*
X773309Y616500D01*
X773076Y617671D01*
X772413Y618663D01*
X771421Y619326D01*
X770250Y619559D01*
D02*
G37*
G36*
X305750Y619309D02*
X304580Y619076D01*
X303587Y618413D01*
X302924Y617421D01*
X302691Y616250D01*
X302924Y615079D01*
X303587Y614087D01*
X304580Y613424D01*
X305750Y613191D01*
X306921Y613424D01*
X307913Y614087D01*
X308576Y615079D01*
X308809Y616250D01*
X308576Y617421D01*
X307913Y618413D01*
X306921Y619076D01*
X305750Y619309D01*
D02*
G37*
G36*
X370750Y618559D02*
X369580Y618326D01*
X368587Y617663D01*
X367924Y616670D01*
X367691Y615500D01*
X367924Y614329D01*
X368587Y613337D01*
X369580Y612674D01*
X370750Y612441D01*
X371921Y612674D01*
X372913Y613337D01*
X373576Y614329D01*
X373809Y615500D01*
X373576Y616670D01*
X372913Y617663D01*
X371921Y618326D01*
X370750Y618559D01*
D02*
G37*
G36*
X192750Y618309D02*
X191579Y618076D01*
X190587Y617413D01*
X189924Y616421D01*
X189691Y615250D01*
X189924Y614080D01*
X190587Y613087D01*
X191579Y612424D01*
X192750Y612191D01*
X193920Y612424D01*
X194913Y613087D01*
X195576Y614080D01*
X195809Y615250D01*
X195576Y616421D01*
X194913Y617413D01*
X193920Y618076D01*
X192750Y618309D01*
D02*
G37*
G36*
X430750Y615559D02*
X429580Y615326D01*
X428587Y614663D01*
X427924Y613671D01*
X427691Y612500D01*
X427924Y611329D01*
X428587Y610337D01*
X429580Y609674D01*
X430750Y609441D01*
X431921Y609674D01*
X432913Y610337D01*
X433576Y611329D01*
X433809Y612500D01*
X433576Y613671D01*
X432913Y614663D01*
X431921Y615326D01*
X430750Y615559D01*
D02*
G37*
G36*
X418750Y613309D02*
X417579Y613076D01*
X416587Y612413D01*
X415924Y611421D01*
X415691Y610250D01*
X415924Y609080D01*
X416587Y608087D01*
X417579Y607424D01*
X418750Y607191D01*
X419921Y607424D01*
X420913Y608087D01*
X421576Y609080D01*
X421809Y610250D01*
X421576Y611421D01*
X420913Y612413D01*
X419921Y613076D01*
X418750Y613309D01*
D02*
G37*
G36*
X803250Y613059D02*
X802079Y612826D01*
X801087Y612163D01*
X800424Y611171D01*
X800191Y610000D01*
X800424Y608829D01*
X801087Y607837D01*
X802079Y607174D01*
X803250Y606941D01*
X804420Y607174D01*
X805413Y607837D01*
X806076Y608829D01*
X806309Y610000D01*
X806076Y611171D01*
X805413Y612163D01*
X804420Y612826D01*
X803250Y613059D01*
D02*
G37*
G36*
X505000Y612559D02*
X503829Y612326D01*
X502837Y611663D01*
X502174Y610671D01*
X501941Y609500D01*
X502174Y608330D01*
X502837Y607337D01*
X503829Y606674D01*
X505000Y606441D01*
X506171Y606674D01*
X507163Y607337D01*
X507826Y608330D01*
X508059Y609500D01*
X507826Y610671D01*
X507163Y611663D01*
X506171Y612326D01*
X505000Y612559D01*
D02*
G37*
G36*
X378750Y612059D02*
X377579Y611826D01*
X376587Y611163D01*
X375924Y610171D01*
X375691Y609000D01*
X375924Y607830D01*
X376587Y606837D01*
X377579Y606174D01*
X378750Y605941D01*
X379921Y606174D01*
X380913Y606837D01*
X381576Y607830D01*
X381809Y609000D01*
X381576Y610171D01*
X380913Y611163D01*
X379921Y611826D01*
X378750Y612059D01*
D02*
G37*
G36*
X397000Y609309D02*
X395830Y609076D01*
X394837Y608413D01*
X394174Y607421D01*
X393941Y606250D01*
X394174Y605079D01*
X394837Y604087D01*
X395830Y603424D01*
X397000Y603191D01*
X398171Y603424D01*
X399163Y604087D01*
X399826Y605079D01*
X400059Y606250D01*
X399826Y607421D01*
X399163Y608413D01*
X398171Y609076D01*
X397000Y609309D01*
D02*
G37*
G36*
X701250Y606809D02*
X700079Y606576D01*
X699087Y605913D01*
X698424Y604921D01*
X698191Y603750D01*
X698424Y602579D01*
X699087Y601587D01*
X700079Y600924D01*
X701250Y600691D01*
X702421Y600924D01*
X703413Y601587D01*
X704076Y602579D01*
X704309Y603750D01*
X704076Y604921D01*
X703413Y605913D01*
X702421Y606576D01*
X701250Y606809D01*
D02*
G37*
G36*
X1020750Y606059D02*
X1019579Y605826D01*
X1018587Y605163D01*
X1017924Y604170D01*
X1017691Y603000D01*
X1017924Y601829D01*
X1018587Y600837D01*
X1019579Y600174D01*
X1020750Y599941D01*
X1021920Y600174D01*
X1022913Y600837D01*
X1023576Y601829D01*
X1023809Y603000D01*
X1023576Y604170D01*
X1022913Y605163D01*
X1021920Y605826D01*
X1020750Y606059D01*
D02*
G37*
G36*
X566250Y605059D02*
X565079Y604826D01*
X564087Y604163D01*
X563424Y603171D01*
X563191Y602000D01*
X563424Y600830D01*
X564087Y599837D01*
X565079Y599174D01*
X566250Y598941D01*
X567421Y599174D01*
X568413Y599837D01*
X569076Y600830D01*
X569309Y602000D01*
X569076Y603171D01*
X568413Y604163D01*
X567421Y604826D01*
X566250Y605059D01*
D02*
G37*
G36*
X907250Y601809D02*
X906079Y601576D01*
X905087Y600913D01*
X904424Y599921D01*
X904191Y598750D01*
X904424Y597579D01*
X905087Y596587D01*
X906079Y595924D01*
X907250Y595691D01*
X908420Y595924D01*
X909413Y596587D01*
X910076Y597579D01*
X910309Y598750D01*
X910076Y599921D01*
X909413Y600913D01*
X908420Y601576D01*
X907250Y601809D01*
D02*
G37*
G36*
X748000Y598059D02*
X746830Y597826D01*
X745837Y597163D01*
X745174Y596171D01*
X744941Y595000D01*
X745174Y593829D01*
X745837Y592837D01*
X746830Y592174D01*
X748000Y591941D01*
X749171Y592174D01*
X750163Y592837D01*
X750826Y593829D01*
X751059Y595000D01*
X750826Y596171D01*
X750163Y597163D01*
X749171Y597826D01*
X748000Y598059D01*
D02*
G37*
G36*
X670000Y597809D02*
X668829Y597576D01*
X667837Y596913D01*
X667174Y595920D01*
X666941Y594750D01*
X667174Y593579D01*
X667837Y592587D01*
X668829Y591924D01*
X670000Y591691D01*
X671171Y591924D01*
X672163Y592587D01*
X672826Y593579D01*
X673059Y594750D01*
X672826Y595920D01*
X672163Y596913D01*
X671171Y597576D01*
X670000Y597809D01*
D02*
G37*
G36*
X702250Y597559D02*
X701079Y597326D01*
X700087Y596663D01*
X699424Y595671D01*
X699191Y594500D01*
X699424Y593330D01*
X700087Y592337D01*
X701079Y591674D01*
X702250Y591441D01*
X703420Y591674D01*
X704413Y592337D01*
X705076Y593330D01*
X705309Y594500D01*
X705076Y595671D01*
X704413Y596663D01*
X703420Y597326D01*
X702250Y597559D01*
D02*
G37*
G36*
X632750Y595809D02*
X631580Y595576D01*
X630587Y594913D01*
X629924Y593921D01*
X629691Y592750D01*
X629924Y591580D01*
X630587Y590587D01*
X631580Y589924D01*
X632750Y589691D01*
X633921Y589924D01*
X634913Y590587D01*
X635576Y591580D01*
X635809Y592750D01*
X635576Y593921D01*
X634913Y594913D01*
X633921Y595576D01*
X632750Y595809D01*
D02*
G37*
G36*
X1004750Y596819D02*
X1003384Y596547D01*
X1002227Y595773D01*
X1001453Y594616D01*
X1001181Y593250D01*
X1001453Y591884D01*
X1002227Y590727D01*
X1003384Y589953D01*
X1004750Y589681D01*
X1006116Y589953D01*
X1007273Y590727D01*
X1008047Y591884D01*
X1008319Y593250D01*
X1008047Y594616D01*
X1007273Y595773D01*
X1006116Y596547D01*
X1004750Y596819D01*
D02*
G37*
G36*
X663500Y590059D02*
X662329Y589826D01*
X661337Y589163D01*
X660674Y588171D01*
X660441Y587000D01*
X660674Y585830D01*
X661337Y584837D01*
X662329Y584174D01*
X663500Y583941D01*
X664670Y584174D01*
X665663Y584837D01*
X666326Y585830D01*
X666559Y587000D01*
X666326Y588171D01*
X665663Y589163D01*
X664670Y589826D01*
X663500Y590059D01*
D02*
G37*
G36*
X751000Y586059D02*
X749829Y585826D01*
X748837Y585163D01*
X748174Y584170D01*
X747941Y583000D01*
X748174Y581829D01*
X748837Y580837D01*
X749829Y580174D01*
X751000Y579941D01*
X752170Y580174D01*
X753163Y580837D01*
X753826Y581829D01*
X754059Y583000D01*
X753826Y584170D01*
X753163Y585163D01*
X752170Y585826D01*
X751000Y586059D01*
D02*
G37*
G36*
X676250Y583309D02*
X675079Y583076D01*
X674087Y582413D01*
X673424Y581421D01*
X673191Y580250D01*
X673424Y579080D01*
X674087Y578087D01*
X675079Y577424D01*
X676250Y577191D01*
X677421Y577424D01*
X678413Y578087D01*
X679076Y579080D01*
X679309Y580250D01*
X679076Y581421D01*
X678413Y582413D01*
X677421Y583076D01*
X676250Y583309D01*
D02*
G37*
G36*
X758500Y579809D02*
X757329Y579576D01*
X756337Y578913D01*
X755674Y577920D01*
X755441Y576750D01*
X755674Y575579D01*
X756337Y574587D01*
X757329Y573924D01*
X758500Y573691D01*
X759670Y573924D01*
X760663Y574587D01*
X761326Y575579D01*
X761559Y576750D01*
X761326Y577920D01*
X760663Y578913D01*
X759670Y579576D01*
X758500Y579809D01*
D02*
G37*
G36*
X414500Y578809D02*
X413330Y578576D01*
X412337Y577913D01*
X411674Y576921D01*
X411441Y575750D01*
X411674Y574580D01*
X412337Y573587D01*
X413330Y572924D01*
X414500Y572691D01*
X415671Y572924D01*
X416663Y573587D01*
X417326Y574580D01*
X417559Y575750D01*
X417326Y576921D01*
X416663Y577913D01*
X415671Y578576D01*
X414500Y578809D01*
D02*
G37*
G36*
X399751Y578685D02*
X398580Y578452D01*
X397588Y577789D01*
X396925Y576797D01*
X396692Y575626D01*
X396925Y574456D01*
X397588Y573463D01*
X398580Y572800D01*
X399751Y572567D01*
X400921Y572800D01*
X401913Y573463D01*
X402577Y574456D01*
X402809Y575626D01*
X402577Y576797D01*
X401913Y577789D01*
X400921Y578452D01*
X399751Y578685D01*
D02*
G37*
G36*
X746000Y578559D02*
X744829Y578326D01*
X743837Y577663D01*
X743174Y576670D01*
X742941Y575500D01*
X743174Y574329D01*
X743837Y573337D01*
X744829Y572674D01*
X746000Y572441D01*
X747170Y572674D01*
X748163Y573337D01*
X748826Y574329D01*
X749059Y575500D01*
X748826Y576670D01*
X748163Y577663D01*
X747170Y578326D01*
X746000Y578559D01*
D02*
G37*
G36*
X800000Y577809D02*
X798829Y577576D01*
X797837Y576913D01*
X797174Y575920D01*
X796941Y574750D01*
X797174Y573579D01*
X797837Y572587D01*
X798829Y571924D01*
X800000Y571691D01*
X801171Y571924D01*
X802163Y572587D01*
X802826Y573579D01*
X803059Y574750D01*
X802826Y575920D01*
X802163Y576913D01*
X801171Y577576D01*
X800000Y577809D01*
D02*
G37*
G36*
X591500Y575559D02*
X590330Y575326D01*
X589337Y574663D01*
X588674Y573671D01*
X588441Y572500D01*
X588674Y571329D01*
X589337Y570337D01*
X590330Y569674D01*
X591500Y569441D01*
X592671Y569674D01*
X593663Y570337D01*
X594326Y571329D01*
X594559Y572500D01*
X594326Y573671D01*
X593663Y574663D01*
X592671Y575326D01*
X591500Y575559D01*
D02*
G37*
G36*
X786750Y571309D02*
X785580Y571076D01*
X784587Y570413D01*
X783924Y569421D01*
X783691Y568250D01*
X783924Y567080D01*
X784587Y566087D01*
X785580Y565424D01*
X786750Y565191D01*
X787921Y565424D01*
X788913Y566087D01*
X789576Y567080D01*
X789809Y568250D01*
X789576Y569421D01*
X788913Y570413D01*
X787921Y571076D01*
X786750Y571309D01*
D02*
G37*
G36*
X796000Y570809D02*
X794829Y570576D01*
X793837Y569913D01*
X793174Y568921D01*
X792941Y567750D01*
X793174Y566580D01*
X793837Y565587D01*
X794829Y564924D01*
X796000Y564691D01*
X797170Y564924D01*
X798163Y565587D01*
X798826Y566580D01*
X799059Y567750D01*
X798826Y568921D01*
X798163Y569913D01*
X797170Y570576D01*
X796000Y570809D01*
D02*
G37*
G36*
X695000Y570309D02*
X693829Y570076D01*
X692837Y569413D01*
X692174Y568420D01*
X691941Y567250D01*
X692174Y566079D01*
X692837Y565087D01*
X693829Y564424D01*
X695000Y564191D01*
X696171Y564424D01*
X697163Y565087D01*
X697826Y566079D01*
X698059Y567250D01*
X697826Y568420D01*
X697163Y569413D01*
X696171Y570076D01*
X695000Y570309D01*
D02*
G37*
G36*
X145063Y570060D02*
Y561250D01*
X153873D01*
X153806Y561763D01*
X152643Y564570D01*
X150793Y566980D01*
X148382Y568830D01*
X145575Y569993D01*
X145063Y570060D01*
D02*
G37*
G36*
X140063D02*
X139550Y569993D01*
X136743Y568830D01*
X134332Y566980D01*
X132482Y564570D01*
X131320Y561763D01*
X131252Y561250D01*
X140063D01*
Y570060D01*
D02*
G37*
G36*
X650500Y565309D02*
X649330Y565076D01*
X648337Y564413D01*
X647674Y563420D01*
X647441Y562250D01*
X647674Y561079D01*
X648337Y560087D01*
X649330Y559424D01*
X650500Y559191D01*
X651671Y559424D01*
X652663Y560087D01*
X653326Y561079D01*
X653559Y562250D01*
X653326Y563420D01*
X652663Y564413D01*
X651671Y565076D01*
X650500Y565309D01*
D02*
G37*
G36*
X497250Y564059D02*
X496079Y563826D01*
X495087Y563163D01*
X494424Y562170D01*
X494191Y561000D01*
X494424Y559829D01*
X495087Y558837D01*
X496079Y558174D01*
X497250Y557941D01*
X498420Y558174D01*
X499413Y558837D01*
X500076Y559829D01*
X500309Y561000D01*
X500076Y562170D01*
X499413Y563163D01*
X498420Y563826D01*
X497250Y564059D01*
D02*
G37*
G36*
X930750Y564069D02*
X929384Y563797D01*
X928227Y563023D01*
X927453Y561866D01*
X927181Y560500D01*
X927453Y559134D01*
X928227Y557977D01*
X929384Y557203D01*
X930750Y556931D01*
X932116Y557203D01*
X933273Y557977D01*
X934047Y559134D01*
X934319Y560500D01*
X934047Y561866D01*
X933273Y563023D01*
X932116Y563797D01*
X930750Y564069D01*
D02*
G37*
G36*
X92563Y564868D02*
X90221Y564402D01*
X88237Y563076D01*
X86911Y561091D01*
X86445Y558750D01*
X86911Y556409D01*
X88237Y554424D01*
X90221Y553098D01*
X92563Y552632D01*
X94904Y553098D01*
X96888Y554424D01*
X98214Y556409D01*
X98680Y558750D01*
X98214Y561091D01*
X96888Y563076D01*
X94904Y564402D01*
X92563Y564868D01*
D02*
G37*
G36*
X656500Y558559D02*
X655330Y558326D01*
X654337Y557663D01*
X653674Y556670D01*
X653441Y555500D01*
X653674Y554329D01*
X654337Y553337D01*
X655330Y552674D01*
X656500Y552441D01*
X657671Y552674D01*
X658663Y553337D01*
X659326Y554329D01*
X659559Y555500D01*
X659326Y556670D01*
X658663Y557663D01*
X657671Y558326D01*
X656500Y558559D01*
D02*
G37*
G36*
X645250D02*
X644080Y558326D01*
X643087Y557663D01*
X642424Y556670D01*
X642191Y555500D01*
X642424Y554329D01*
X643087Y553337D01*
X644080Y552674D01*
X645250Y552441D01*
X646421Y552674D01*
X647413Y553337D01*
X648076Y554329D01*
X648309Y555500D01*
X648076Y556670D01*
X647413Y557663D01*
X646421Y558326D01*
X645250Y558559D01*
D02*
G37*
G36*
X153873Y556250D02*
X145063D01*
Y547439D01*
X145575Y547507D01*
X148382Y548670D01*
X150793Y550519D01*
X152643Y552930D01*
X153806Y555737D01*
X153873Y556250D01*
D02*
G37*
G36*
X140063D02*
X131252D01*
X131320Y555737D01*
X132482Y552930D01*
X134332Y550519D01*
X136743Y548670D01*
X139550Y547507D01*
X140063Y547439D01*
Y556250D01*
D02*
G37*
G36*
X735250Y549059D02*
X734080Y548826D01*
X733087Y548163D01*
X732424Y547170D01*
X732423Y547167D01*
X731098Y547012D01*
X730663Y547663D01*
X729670Y548326D01*
X728500Y548559D01*
X727329Y548326D01*
X726337Y547663D01*
X725674Y546670D01*
X725647Y546537D01*
X724353D01*
X724326Y546670D01*
X723663Y547663D01*
X722671Y548326D01*
X721500Y548559D01*
X720330Y548326D01*
X719337Y547663D01*
X718674Y546670D01*
X718441Y545500D01*
X718674Y544329D01*
X719337Y543337D01*
X720330Y542674D01*
X721500Y542441D01*
X722671Y542674D01*
X723663Y543337D01*
X724326Y544329D01*
X724353Y544463D01*
X725647D01*
X725674Y544329D01*
X726337Y543337D01*
X727329Y542674D01*
X728500Y542441D01*
X729670Y542674D01*
X730663Y543337D01*
X731326Y544329D01*
X731327Y544333D01*
X732652Y544488D01*
X733087Y543837D01*
X734080Y543174D01*
X735250Y542941D01*
X736421Y543174D01*
X737413Y543837D01*
X738076Y544829D01*
X738309Y546000D01*
X738076Y547170D01*
X737413Y548163D01*
X736421Y548826D01*
X735250Y549059D01*
D02*
G37*
G36*
X840500Y553059D02*
X839330Y552826D01*
X838337Y552163D01*
X837674Y551171D01*
X837441Y550000D01*
X837674Y548829D01*
X838337Y547837D01*
X839330Y547174D01*
X840500Y546941D01*
X841671Y547174D01*
X842663Y547837D01*
X843326Y548829D01*
X843559Y550000D01*
X843326Y551171D01*
X842663Y552163D01*
X841671Y552826D01*
X840500Y553059D01*
D02*
G37*
G36*
X808500Y552809D02*
X807329Y552576D01*
X806337Y551913D01*
X805674Y550920D01*
X805441Y549750D01*
X805674Y548579D01*
X806337Y547587D01*
X807329Y546924D01*
X808500Y546691D01*
X809670Y546924D01*
X810663Y547587D01*
X811326Y548579D01*
X811559Y549750D01*
X811326Y550920D01*
X810663Y551913D01*
X809670Y552576D01*
X808500Y552809D01*
D02*
G37*
G36*
X781750Y543559D02*
X780580Y543326D01*
X779587Y542663D01*
X778924Y541670D01*
X778691Y540500D01*
X778924Y539329D01*
X779587Y538337D01*
X780580Y537674D01*
X781750Y537441D01*
X782921Y537674D01*
X783913Y538337D01*
X784576Y539329D01*
X784809Y540500D01*
X784576Y541670D01*
X783913Y542663D01*
X782921Y543326D01*
X781750Y543559D01*
D02*
G37*
G36*
X803000Y540559D02*
X801830Y540326D01*
X800837Y539663D01*
X800174Y538671D01*
X799941Y537500D01*
X800174Y536329D01*
X800837Y535337D01*
X801830Y534674D01*
X803000Y534441D01*
X804171Y534674D01*
X805163Y535337D01*
X805826Y536329D01*
X806059Y537500D01*
X805826Y538671D01*
X805163Y539663D01*
X804171Y540326D01*
X803000Y540559D01*
D02*
G37*
G36*
X754000Y538309D02*
X752830Y538076D01*
X751837Y537413D01*
X751174Y536421D01*
X750941Y535250D01*
X751174Y534080D01*
X751837Y533087D01*
X752830Y532424D01*
X754000Y532191D01*
X755171Y532424D01*
X756163Y533087D01*
X756826Y534080D01*
X757059Y535250D01*
X756826Y536421D01*
X756163Y537413D01*
X755171Y538076D01*
X754000Y538309D01*
D02*
G37*
G36*
X621250Y527069D02*
X619884Y526797D01*
X618727Y526023D01*
X617953Y524866D01*
X617681Y523500D01*
X617953Y522134D01*
X618727Y520977D01*
X619884Y520203D01*
X621250Y519931D01*
X622616Y520203D01*
X623773Y520977D01*
X624547Y522134D01*
X624819Y523500D01*
X624547Y524866D01*
X623773Y526023D01*
X622616Y526797D01*
X621250Y527069D01*
D02*
G37*
G36*
X566750Y501309D02*
X565579Y501076D01*
X564587Y500413D01*
X563924Y499421D01*
X563691Y498250D01*
X563924Y497080D01*
X564587Y496087D01*
X565579Y495424D01*
X566750Y495191D01*
X567920Y495424D01*
X568913Y496087D01*
X569576Y497080D01*
X569809Y498250D01*
X569576Y499421D01*
X568913Y500413D01*
X567920Y501076D01*
X566750Y501309D01*
D02*
G37*
G36*
X442250Y500569D02*
X440884Y500297D01*
X439727Y499523D01*
X438953Y498366D01*
X438681Y497000D01*
X438953Y495634D01*
X439727Y494477D01*
X440884Y493703D01*
X442250Y493431D01*
X443616Y493703D01*
X444773Y494477D01*
X445547Y495634D01*
X445819Y497000D01*
X445547Y498366D01*
X444773Y499523D01*
X443616Y500297D01*
X442250Y500569D01*
D02*
G37*
G36*
X430750Y500319D02*
X429384Y500047D01*
X428227Y499273D01*
X427453Y498116D01*
X427181Y496750D01*
X427453Y495384D01*
X428227Y494227D01*
X429384Y493453D01*
X430750Y493181D01*
X432116Y493453D01*
X433273Y494227D01*
X434047Y495384D01*
X434319Y496750D01*
X434047Y498116D01*
X433273Y499273D01*
X432116Y500047D01*
X430750Y500319D01*
D02*
G37*
G36*
X74000Y499819D02*
X72634Y499547D01*
X71477Y498773D01*
X70703Y497616D01*
X70431Y496250D01*
X70703Y494884D01*
X71477Y493727D01*
X72634Y492953D01*
X74000Y492681D01*
X75366Y492953D01*
X76523Y493727D01*
X77297Y494884D01*
X77569Y496250D01*
X77297Y497616D01*
X76523Y498773D01*
X75366Y499547D01*
X74000Y499819D01*
D02*
G37*
G36*
X58375Y499319D02*
X57009Y499047D01*
X55852Y498273D01*
X55078Y497116D01*
X54806Y495750D01*
X55078Y494384D01*
X55852Y493227D01*
X57009Y492453D01*
X58375Y492181D01*
X59741Y492453D01*
X60898Y493227D01*
X61672Y494384D01*
X61944Y495750D01*
X61672Y497116D01*
X60898Y498273D01*
X59741Y499047D01*
X58375Y499319D01*
D02*
G37*
G36*
X74000Y489194D02*
X72634Y488922D01*
X71477Y488148D01*
X70703Y486991D01*
X70431Y485625D01*
X70703Y484259D01*
X71477Y483102D01*
X72634Y482328D01*
X74000Y482056D01*
X75366Y482328D01*
X76523Y483102D01*
X77297Y484259D01*
X77569Y485625D01*
X77297Y486991D01*
X76523Y488148D01*
X75366Y488922D01*
X74000Y489194D01*
D02*
G37*
G36*
X58375Y488944D02*
X57009Y488672D01*
X55852Y487898D01*
X55078Y486741D01*
X54806Y485375D01*
X55078Y484009D01*
X55852Y482852D01*
X57009Y482078D01*
X58375Y481806D01*
X59741Y482078D01*
X60898Y482852D01*
X61672Y484009D01*
X61944Y485375D01*
X61672Y486741D01*
X60898Y487898D01*
X59741Y488672D01*
X58375Y488944D01*
D02*
G37*
G36*
X74000Y478569D02*
X72634Y478297D01*
X71477Y477523D01*
X70703Y476366D01*
X70431Y475000D01*
X70703Y473634D01*
X71477Y472477D01*
X72634Y471703D01*
X74000Y471432D01*
X75366Y471703D01*
X76523Y472477D01*
X77297Y473634D01*
X77569Y475000D01*
X77297Y476366D01*
X76523Y477523D01*
X75366Y478297D01*
X74000Y478569D01*
D02*
G37*
G36*
X58500Y478569D02*
X57134Y478297D01*
X55977Y477523D01*
X55203Y476366D01*
X54931Y475000D01*
X55203Y473634D01*
X55977Y472477D01*
X57134Y471703D01*
X58500Y471431D01*
X59866Y471703D01*
X61023Y472477D01*
X61797Y473634D01*
X62069Y475000D01*
X61797Y476366D01*
X61023Y477523D01*
X59866Y478297D01*
X58500Y478569D01*
D02*
G37*
G36*
X425000Y474819D02*
X423634Y474547D01*
X422477Y473773D01*
X421703Y472616D01*
X421431Y471250D01*
X421703Y469884D01*
X422477Y468727D01*
X423634Y467953D01*
X425000Y467681D01*
X426366Y467953D01*
X427523Y468727D01*
X428297Y469884D01*
X428569Y471250D01*
X428297Y472616D01*
X427523Y473773D01*
X426366Y474547D01*
X425000Y474819D01*
D02*
G37*
G36*
X446250Y474569D02*
X444884Y474297D01*
X443727Y473523D01*
X442953Y472366D01*
X442681Y471000D01*
X442953Y469634D01*
X443727Y468477D01*
X444884Y467703D01*
X446250Y467431D01*
X447616Y467703D01*
X448773Y468477D01*
X449547Y469634D01*
X449819Y471000D01*
X449547Y472366D01*
X448773Y473523D01*
X447616Y474297D01*
X446250Y474569D01*
D02*
G37*
G36*
X435250D02*
X433884Y474297D01*
X432727Y473523D01*
X431953Y472366D01*
X431681Y471000D01*
X431953Y469634D01*
X432727Y468477D01*
X433884Y467703D01*
X435250Y467431D01*
X436616Y467703D01*
X437773Y468477D01*
X438547Y469634D01*
X438819Y471000D01*
X438547Y472366D01*
X437773Y473523D01*
X436616Y474297D01*
X435250Y474569D01*
D02*
G37*
G36*
X439750Y460819D02*
X438384Y460547D01*
X437227Y459773D01*
X436453Y458616D01*
X436181Y457250D01*
X436453Y455884D01*
X437227Y454727D01*
X438384Y453953D01*
X439750Y453681D01*
X441116Y453953D01*
X442273Y454727D01*
X443047Y455884D01*
X443319Y457250D01*
X443047Y458616D01*
X442273Y459773D01*
X441116Y460547D01*
X439750Y460819D01*
D02*
G37*
G36*
X962000Y450069D02*
X960634Y449797D01*
X959477Y449023D01*
X958703Y447866D01*
X958431Y446500D01*
X958703Y445134D01*
X959477Y443977D01*
X960634Y443203D01*
X962000Y442931D01*
X963366Y443203D01*
X964523Y443977D01*
X965297Y445134D01*
X965569Y446500D01*
X965297Y447866D01*
X964523Y449023D01*
X963366Y449797D01*
X962000Y450069D01*
D02*
G37*
G36*
X990500Y441809D02*
X989330Y441576D01*
X988337Y440913D01*
X987674Y439921D01*
X987441Y438750D01*
X987674Y437579D01*
X988337Y436587D01*
X989330Y435924D01*
X990500Y435691D01*
X991671Y435924D01*
X992663Y436587D01*
X993326Y437579D01*
X993559Y438750D01*
X993326Y439921D01*
X992663Y440913D01*
X991671Y441576D01*
X990500Y441809D01*
D02*
G37*
G36*
X23000Y450065D02*
X21042Y449807D01*
X19218Y449051D01*
X17651Y447849D01*
X16449Y446282D01*
X15693Y444458D01*
X15435Y442500D01*
X15693Y440542D01*
X16449Y438718D01*
X17651Y437151D01*
X19218Y435949D01*
X21042Y435193D01*
X23000Y434935D01*
X24958Y435193D01*
X26782Y435949D01*
X28349Y437151D01*
X29551Y438718D01*
X30307Y440542D01*
X30565Y442500D01*
X30307Y444458D01*
X29551Y446282D01*
X28349Y447849D01*
X26782Y449051D01*
X24958Y449807D01*
X23000Y450065D01*
D02*
G37*
G36*
X128154Y440497D02*
X126983Y440264D01*
X125991Y439601D01*
X125328Y438609D01*
X125095Y437438D01*
X125328Y436268D01*
X125991Y435275D01*
X126983Y434612D01*
X128154Y434379D01*
X129325Y434612D01*
X130317Y435275D01*
X130980Y436268D01*
X131213Y437438D01*
X130980Y438609D01*
X130317Y439601D01*
X129325Y440264D01*
X128154Y440497D01*
D02*
G37*
G36*
X648000Y418809D02*
X646830Y418576D01*
X645837Y417913D01*
X645174Y416921D01*
X644941Y415750D01*
X645174Y414580D01*
X645837Y413587D01*
X646830Y412924D01*
X648000Y412691D01*
X649171Y412924D01*
X650163Y413587D01*
X650826Y414580D01*
X651059Y415750D01*
X650826Y416921D01*
X650163Y417913D01*
X649171Y418576D01*
X648000Y418809D01*
D02*
G37*
G36*
X23000Y425065D02*
X21042Y424807D01*
X19218Y424051D01*
X17651Y422849D01*
X16449Y421282D01*
X15693Y419458D01*
X15435Y417500D01*
X15693Y415542D01*
X16449Y413718D01*
X17651Y412151D01*
X19218Y410949D01*
X21042Y410193D01*
X23000Y409935D01*
X24958Y410193D01*
X26782Y410949D01*
X28349Y412151D01*
X29551Y413718D01*
X30307Y415542D01*
X30565Y417500D01*
X30307Y419458D01*
X29551Y421282D01*
X28349Y422849D01*
X26782Y424051D01*
X24958Y424807D01*
X23000Y425065D01*
D02*
G37*
G36*
X199000Y401809D02*
X197829Y401576D01*
X196837Y400913D01*
X196174Y399921D01*
X195941Y398750D01*
X196174Y397579D01*
X196837Y396587D01*
X197829Y395924D01*
X199000Y395691D01*
X200170Y395924D01*
X201163Y396587D01*
X201826Y397579D01*
X202059Y398750D01*
X201826Y399921D01*
X201163Y400913D01*
X200170Y401576D01*
X199000Y401809D01*
D02*
G37*
G36*
X48000Y402069D02*
X46634Y401797D01*
X45477Y401023D01*
X44703Y399866D01*
X44431Y398500D01*
X44703Y397134D01*
X45477Y395977D01*
X46634Y395203D01*
X48000Y394931D01*
X49366Y395203D01*
X50523Y395977D01*
X51297Y397134D01*
X51569Y398500D01*
X51297Y399866D01*
X50523Y401023D01*
X49366Y401797D01*
X48000Y402069D01*
D02*
G37*
G36*
X32375D02*
X31009Y401797D01*
X29852Y401023D01*
X29078Y399866D01*
X28806Y398500D01*
X29078Y397134D01*
X29852Y395977D01*
X31009Y395203D01*
X32375Y394931D01*
X33741Y395203D01*
X34898Y395977D01*
X35672Y397134D01*
X35944Y398500D01*
X35672Y399866D01*
X34898Y401023D01*
X33741Y401797D01*
X32375Y402069D01*
D02*
G37*
G36*
X16750D02*
X15384Y401797D01*
X14227Y401023D01*
X13453Y399866D01*
X13181Y398500D01*
X13453Y397134D01*
X14227Y395977D01*
X15384Y395203D01*
X16750Y394931D01*
X18116Y395203D01*
X19273Y395977D01*
X20047Y397134D01*
X20319Y398500D01*
X20047Y399866D01*
X19273Y401023D01*
X18116Y401797D01*
X16750Y402069D01*
D02*
G37*
G36*
X577000Y398059D02*
X575830Y397826D01*
X574837Y397163D01*
X574174Y396171D01*
X573941Y395000D01*
X574174Y393829D01*
X574837Y392837D01*
X575830Y392174D01*
X577000Y391941D01*
X578171Y392174D01*
X579163Y392837D01*
X579826Y393829D01*
X580059Y395000D01*
X579826Y396171D01*
X579163Y397163D01*
X578171Y397826D01*
X577000Y398059D01*
D02*
G37*
G36*
X1010250Y397559D02*
X1009080Y397326D01*
X1008087Y396663D01*
X1007424Y395671D01*
X1007191Y394500D01*
X1007424Y393330D01*
X1008087Y392337D01*
X1009080Y391674D01*
X1010250Y391441D01*
X1011421Y391674D01*
X1012413Y392337D01*
X1013076Y393330D01*
X1013309Y394500D01*
X1013076Y395671D01*
X1012413Y396663D01*
X1011421Y397326D01*
X1010250Y397559D01*
D02*
G37*
G36*
X48000Y392819D02*
X46634Y392547D01*
X45477Y391773D01*
X44703Y390616D01*
X44431Y389250D01*
X44703Y387884D01*
X45477Y386727D01*
X46634Y385953D01*
X48000Y385681D01*
X49366Y385953D01*
X50523Y386727D01*
X51297Y387884D01*
X51569Y389250D01*
X51297Y390616D01*
X50523Y391773D01*
X49366Y392547D01*
X48000Y392819D01*
D02*
G37*
G36*
X32375D02*
X31009Y392547D01*
X29852Y391773D01*
X29078Y390616D01*
X28806Y389250D01*
X29078Y387884D01*
X29852Y386727D01*
X31009Y385953D01*
X32375Y385681D01*
X33741Y385953D01*
X34898Y386727D01*
X35672Y387884D01*
X35944Y389250D01*
X35672Y390616D01*
X34898Y391773D01*
X33741Y392547D01*
X32375Y392819D01*
D02*
G37*
G36*
X16750Y392319D02*
X15384Y392047D01*
X14227Y391273D01*
X13453Y390116D01*
X13181Y388750D01*
X13453Y387384D01*
X14227Y386227D01*
X15384Y385453D01*
X16750Y385181D01*
X18116Y385453D01*
X19273Y386227D01*
X20047Y387384D01*
X20319Y388750D01*
X20047Y390116D01*
X19273Y391273D01*
X18116Y392047D01*
X16750Y392319D01*
D02*
G37*
G36*
X1020691Y390813D02*
X1019520Y390580D01*
X1018528Y389917D01*
X1017865Y388925D01*
X1017632Y387754D01*
X1017865Y386584D01*
X1018528Y385592D01*
X1019520Y384929D01*
X1020691Y384696D01*
X1021861Y384929D01*
X1022853Y385592D01*
X1023516Y386584D01*
X1023749Y387754D01*
X1023516Y388925D01*
X1022853Y389917D01*
X1021861Y390580D01*
X1020691Y390813D01*
D02*
G37*
G36*
X84500Y381309D02*
X83329Y381076D01*
X82337Y380413D01*
X81674Y379421D01*
X81441Y378250D01*
X81674Y377080D01*
X82337Y376087D01*
X83329Y375424D01*
X84500Y375191D01*
X85670Y375424D01*
X86663Y376087D01*
X87326Y377080D01*
X87559Y378250D01*
X87326Y379421D01*
X86663Y380413D01*
X85670Y381076D01*
X84500Y381309D01*
D02*
G37*
G36*
X201750Y378059D02*
X200579Y377826D01*
X199587Y377163D01*
X198924Y376171D01*
X198691Y375000D01*
X198924Y373829D01*
X199587Y372837D01*
X200579Y372174D01*
X201750Y371941D01*
X202920Y372174D01*
X203913Y372837D01*
X204576Y373829D01*
X204809Y375000D01*
X204576Y376171D01*
X203913Y377163D01*
X202920Y377826D01*
X201750Y378059D01*
D02*
G37*
G36*
X159250Y377809D02*
X158079Y377576D01*
X157087Y376913D01*
X156424Y375920D01*
X156191Y374750D01*
X156424Y373579D01*
X157087Y372587D01*
X158079Y371924D01*
X159250Y371691D01*
X160420Y371924D01*
X161413Y372587D01*
X162076Y373579D01*
X162309Y374750D01*
X162076Y375920D01*
X161413Y376913D01*
X160420Y377576D01*
X159250Y377809D01*
D02*
G37*
G36*
X909250Y375559D02*
X908080Y375326D01*
X907087Y374663D01*
X906424Y373671D01*
X906191Y372500D01*
X906424Y371329D01*
X907087Y370337D01*
X908080Y369674D01*
X909250Y369441D01*
X910421Y369674D01*
X911413Y370337D01*
X912076Y371329D01*
X912309Y372500D01*
X912076Y373671D01*
X911413Y374663D01*
X910421Y375326D01*
X909250Y375559D01*
D02*
G37*
G36*
X921500Y375059D02*
X920330Y374826D01*
X919337Y374163D01*
X918674Y373171D01*
X918441Y372000D01*
X918674Y370830D01*
X919337Y369837D01*
X920330Y369174D01*
X921500Y368941D01*
X922671Y369174D01*
X923663Y369837D01*
X924326Y370830D01*
X924559Y372000D01*
X924326Y373171D01*
X923663Y374163D01*
X922671Y374826D01*
X921500Y375059D01*
D02*
G37*
G36*
X561750Y359569D02*
X560384Y359297D01*
X559227Y358523D01*
X558453Y357366D01*
X558181Y356000D01*
X558453Y354634D01*
X559227Y353477D01*
X560384Y352703D01*
X561750Y352431D01*
X563116Y352703D01*
X564273Y353477D01*
X565047Y354634D01*
X565319Y356000D01*
X565047Y357366D01*
X564273Y358523D01*
X563116Y359297D01*
X561750Y359569D01*
D02*
G37*
G36*
X770250Y355559D02*
X769080Y355326D01*
X768087Y354663D01*
X767424Y353671D01*
X767191Y352500D01*
X767424Y351329D01*
X768087Y350337D01*
X769080Y349674D01*
X770250Y349441D01*
X771421Y349674D01*
X772413Y350337D01*
X773076Y351329D01*
X773309Y352500D01*
X773076Y353671D01*
X772413Y354663D01*
X771421Y355326D01*
X770250Y355559D01*
D02*
G37*
G36*
X668750Y350059D02*
X667579Y349826D01*
X666587Y349163D01*
X665924Y348171D01*
X665691Y347000D01*
X665924Y345830D01*
X666587Y344837D01*
X667579Y344174D01*
X668750Y343941D01*
X669921Y344174D01*
X670913Y344837D01*
X671576Y345830D01*
X671809Y347000D01*
X671576Y348171D01*
X670913Y349163D01*
X669921Y349826D01*
X668750Y350059D01*
D02*
G37*
G36*
X710500Y341569D02*
X709134Y341297D01*
X707977Y340523D01*
X707203Y339366D01*
X706931Y338000D01*
X707203Y336634D01*
X707977Y335477D01*
X709134Y334703D01*
X710500Y334431D01*
X711866Y334703D01*
X713023Y335477D01*
X713797Y336634D01*
X714069Y338000D01*
X713797Y339366D01*
X713023Y340523D01*
X711866Y341297D01*
X710500Y341569D01*
D02*
G37*
G36*
X303750Y334059D02*
X302579Y333826D01*
X301587Y333163D01*
X300924Y332170D01*
X300691Y331000D01*
X300924Y329829D01*
X301587Y328837D01*
X302579Y328174D01*
X303750Y327941D01*
X304921Y328174D01*
X305913Y328837D01*
X306576Y329829D01*
X306809Y331000D01*
X306576Y332170D01*
X305913Y333163D01*
X304921Y333826D01*
X303750Y334059D01*
D02*
G37*
G36*
X238000Y324059D02*
X236829Y323826D01*
X235837Y323163D01*
X235174Y322170D01*
X234941Y321000D01*
X235174Y319830D01*
X235837Y318837D01*
X236829Y318174D01*
X238000Y317941D01*
X239170Y318174D01*
X240163Y318837D01*
X240826Y319830D01*
X241059Y321000D01*
X240826Y322170D01*
X240163Y323163D01*
X239170Y323826D01*
X238000Y324059D01*
D02*
G37*
G36*
X135500Y294569D02*
X134134Y294297D01*
X132977Y293523D01*
X132203Y292366D01*
X131931Y291000D01*
X132203Y289634D01*
X132977Y288477D01*
X133108Y288389D01*
Y286861D01*
X132977Y286773D01*
X132203Y285616D01*
X131931Y284250D01*
X132203Y282884D01*
X132977Y281727D01*
X134134Y280953D01*
X135500Y280681D01*
X136866Y280953D01*
X138023Y281727D01*
X138797Y282884D01*
X139069Y284250D01*
X138797Y285616D01*
X138023Y286773D01*
X137892Y286861D01*
Y288389D01*
X138023Y288477D01*
X138797Y289634D01*
X139069Y291000D01*
X138797Y292366D01*
X138023Y293523D01*
X136866Y294297D01*
X135500Y294569D01*
D02*
G37*
G36*
X53750D02*
X52384Y294297D01*
X51227Y293523D01*
X50453Y292366D01*
X50181Y291000D01*
X50453Y289634D01*
X51227Y288477D01*
X51358Y288389D01*
Y286861D01*
X51227Y286773D01*
X50453Y285616D01*
X50181Y284250D01*
X50453Y282884D01*
X51227Y281727D01*
X52384Y280953D01*
X53750Y280681D01*
X55116Y280953D01*
X56273Y281727D01*
X57047Y282884D01*
X57319Y284250D01*
X57047Y285616D01*
X56273Y286773D01*
X56142Y286861D01*
Y288389D01*
X56273Y288477D01*
X57047Y289634D01*
X57319Y291000D01*
X57047Y292366D01*
X56273Y293523D01*
X55116Y294297D01*
X53750Y294569D01*
D02*
G37*
G36*
X1019500Y280559D02*
X1018329Y280326D01*
X1017337Y279663D01*
X1016956Y279092D01*
X1016903Y279072D01*
X1015597D01*
X1015544Y279092D01*
X1015163Y279663D01*
X1014171Y280326D01*
X1013000Y280559D01*
X1011830Y280326D01*
X1010837Y279663D01*
X1010174Y278671D01*
X1009941Y277500D01*
X1010174Y276329D01*
X1010837Y275337D01*
X1011830Y274674D01*
X1013000Y274441D01*
X1014171Y274674D01*
X1015163Y275337D01*
X1015544Y275908D01*
X1015597Y275928D01*
X1016903D01*
X1016956Y275908D01*
X1017337Y275337D01*
X1018329Y274674D01*
X1019500Y274441D01*
X1020671Y274674D01*
X1021663Y275337D01*
X1022326Y276329D01*
X1022559Y277500D01*
X1022326Y278671D01*
X1021663Y279663D01*
X1020671Y280326D01*
X1019500Y280559D01*
D02*
G37*
G36*
X398250Y276569D02*
X396884Y276297D01*
X395727Y275523D01*
X394953Y274366D01*
X394681Y273000D01*
X394953Y271634D01*
X395727Y270477D01*
X396884Y269703D01*
X398250Y269431D01*
X399616Y269703D01*
X400773Y270477D01*
X401547Y271634D01*
X401819Y273000D01*
X401547Y274366D01*
X400773Y275523D01*
X399616Y276297D01*
X398250Y276569D01*
D02*
G37*
G36*
X459750Y276069D02*
X458384Y275797D01*
X457227Y275023D01*
X456453Y273866D01*
X456181Y272500D01*
X456453Y271134D01*
X457227Y269977D01*
X458384Y269203D01*
X459750Y268931D01*
X461116Y269203D01*
X462273Y269977D01*
X463047Y271134D01*
X463319Y272500D01*
X463047Y273866D01*
X462273Y275023D01*
X461116Y275797D01*
X459750Y276069D01*
D02*
G37*
G36*
X56000Y273569D02*
X54634Y273297D01*
X53477Y272523D01*
X52703Y271366D01*
X52431Y270000D01*
X52703Y268634D01*
X53477Y267477D01*
X53776Y267276D01*
Y265749D01*
X53477Y265548D01*
X52703Y264391D01*
X52431Y263025D01*
X52703Y261660D01*
X53477Y260502D01*
X54634Y259728D01*
X56000Y259457D01*
X57366Y259728D01*
X58523Y260502D01*
X59297Y261660D01*
X59569Y263025D01*
X59297Y264391D01*
X58523Y265548D01*
X58224Y265749D01*
Y267276D01*
X58523Y267477D01*
X59297Y268634D01*
X59569Y270000D01*
X59297Y271366D01*
X58523Y272523D01*
X57366Y273297D01*
X56000Y273569D01*
D02*
G37*
G36*
X9000Y251569D02*
X7634Y251297D01*
X6477Y250523D01*
X5703Y249366D01*
X5431Y248000D01*
X5703Y246634D01*
X6477Y245477D01*
X6608Y245389D01*
Y243861D01*
X6477Y243773D01*
X5703Y242616D01*
X5431Y241250D01*
X5703Y239884D01*
X6477Y238727D01*
X6795Y238514D01*
Y236986D01*
X6477Y236773D01*
X5703Y235616D01*
X5431Y234250D01*
X5703Y232884D01*
X6477Y231727D01*
X7634Y230953D01*
X9000Y230681D01*
X10366Y230953D01*
X11523Y231727D01*
X12297Y232884D01*
X12569Y234250D01*
X12297Y235616D01*
X11523Y236773D01*
X11205Y236986D01*
Y238514D01*
X11523Y238727D01*
X12297Y239884D01*
X12569Y241250D01*
X12297Y242616D01*
X11523Y243773D01*
X11392Y243861D01*
Y245389D01*
X11523Y245477D01*
X12297Y246634D01*
X12569Y248000D01*
X12297Y249366D01*
X11523Y250523D01*
X10366Y251297D01*
X9000Y251569D01*
D02*
G37*
G36*
X649000Y226069D02*
X647634Y225797D01*
X646477Y225023D01*
X645703Y223866D01*
X645431Y222500D01*
X645703Y221134D01*
X646477Y219977D01*
X647634Y219203D01*
X649000Y218931D01*
X650366Y219203D01*
X651523Y219977D01*
X652297Y221134D01*
X652569Y222500D01*
X652297Y223866D01*
X651523Y225023D01*
X650366Y225797D01*
X649000Y226069D01*
D02*
G37*
G36*
X616375D02*
X615009Y225797D01*
X613852Y225023D01*
X613078Y223866D01*
X612806Y222500D01*
X613078Y221134D01*
X613852Y219977D01*
X615009Y219203D01*
X616375Y218931D01*
X617741Y219203D01*
X618898Y219977D01*
X619672Y221134D01*
X619944Y222500D01*
X619672Y223866D01*
X618898Y225023D01*
X617741Y225797D01*
X616375Y226069D01*
D02*
G37*
G36*
X583500D02*
X582134Y225797D01*
X580977Y225023D01*
X580203Y223866D01*
X579931Y222500D01*
X580203Y221134D01*
X580977Y219977D01*
X582134Y219203D01*
X583500Y218931D01*
X584866Y219203D01*
X586023Y219977D01*
X586797Y221134D01*
X587069Y222500D01*
X586797Y223866D01*
X586023Y225023D01*
X584866Y225797D01*
X583500Y226069D01*
D02*
G37*
G36*
X800000Y215319D02*
X798634Y215047D01*
X797477Y214273D01*
X796703Y213116D01*
X796431Y211750D01*
X796703Y210384D01*
X797477Y209227D01*
X798634Y208453D01*
X800000Y208181D01*
X801366Y208453D01*
X802523Y209227D01*
X803297Y210384D01*
X803569Y211750D01*
X803297Y213116D01*
X802523Y214273D01*
X801366Y215047D01*
X800000Y215319D01*
D02*
G37*
G36*
X775000D02*
X773634Y215047D01*
X772477Y214273D01*
X771703Y213116D01*
X771431Y211750D01*
X771703Y210384D01*
X772477Y209227D01*
X773634Y208453D01*
X775000Y208181D01*
X776366Y208453D01*
X777523Y209227D01*
X778297Y210384D01*
X778569Y211750D01*
X778297Y213116D01*
X777523Y214273D01*
X776366Y215047D01*
X775000Y215319D01*
D02*
G37*
G36*
X750000D02*
X748634Y215047D01*
X747477Y214273D01*
X746703Y213116D01*
X746431Y211750D01*
X746703Y210384D01*
X747477Y209227D01*
X748634Y208453D01*
X750000Y208181D01*
X751366Y208453D01*
X752523Y209227D01*
X753297Y210384D01*
X753569Y211750D01*
X753297Y213116D01*
X752523Y214273D01*
X751366Y215047D01*
X750000Y215319D01*
D02*
G37*
G36*
X725000D02*
X723634Y215047D01*
X722477Y214273D01*
X721703Y213116D01*
X721431Y211750D01*
X721703Y210384D01*
X722477Y209227D01*
X723634Y208453D01*
X725000Y208181D01*
X726366Y208453D01*
X727523Y209227D01*
X728297Y210384D01*
X728569Y211750D01*
X728297Y213116D01*
X727523Y214273D01*
X726366Y215047D01*
X725000Y215319D01*
D02*
G37*
G36*
X700000D02*
X698634Y215047D01*
X697477Y214273D01*
X696703Y213116D01*
X696431Y211750D01*
X696703Y210384D01*
X697477Y209227D01*
X698634Y208453D01*
X700000Y208181D01*
X701366Y208453D01*
X702523Y209227D01*
X703297Y210384D01*
X703569Y211750D01*
X703297Y213116D01*
X702523Y214273D01*
X701366Y215047D01*
X700000Y215319D01*
D02*
G37*
G36*
X673750Y215069D02*
X672384Y214797D01*
X671227Y214023D01*
X670453Y212866D01*
X670181Y211500D01*
X670453Y210134D01*
X671227Y208977D01*
X672384Y208203D01*
X673750Y207931D01*
X675116Y208203D01*
X676273Y208977D01*
X677047Y210134D01*
X677319Y211500D01*
X677047Y212866D01*
X676273Y214023D01*
X675116Y214797D01*
X673750Y215069D01*
D02*
G37*
G36*
X991500Y181809D02*
X990330Y181576D01*
X989337Y180913D01*
X988674Y179921D01*
X988441Y178750D01*
X988674Y177579D01*
X989337Y176587D01*
X990330Y175924D01*
X991500Y175691D01*
X992671Y175924D01*
X993663Y176587D01*
X994326Y177579D01*
X994559Y178750D01*
X994326Y179921D01*
X993663Y180913D01*
X992671Y181576D01*
X991500Y181809D01*
D02*
G37*
G36*
X975000Y153059D02*
X973829Y152826D01*
X972837Y152163D01*
X972174Y151171D01*
X971941Y150000D01*
X972174Y148829D01*
X972837Y147837D01*
X973829Y147174D01*
X975000Y146941D01*
X976171Y147174D01*
X977163Y147837D01*
X977826Y148829D01*
X978059Y150000D01*
X977826Y151171D01*
X977163Y152163D01*
X976171Y152826D01*
X975000Y153059D01*
D02*
G37*
G36*
X940000D02*
X938829Y152826D01*
X937837Y152163D01*
X937174Y151171D01*
X936941Y150000D01*
X937174Y148829D01*
X937837Y147837D01*
X938829Y147174D01*
X940000Y146941D01*
X941171Y147174D01*
X942163Y147837D01*
X942826Y148829D01*
X943059Y150000D01*
X942826Y151171D01*
X942163Y152163D01*
X941171Y152826D01*
X940000Y153059D01*
D02*
G37*
G36*
X905000D02*
X903829Y152826D01*
X902837Y152163D01*
X902174Y151171D01*
X901941Y150000D01*
X902174Y148829D01*
X902837Y147837D01*
X903829Y147174D01*
X905000Y146941D01*
X906171Y147174D01*
X907163Y147837D01*
X907826Y148829D01*
X908059Y150000D01*
X907826Y151171D01*
X907163Y152163D01*
X906171Y152826D01*
X905000Y153059D01*
D02*
G37*
G36*
X1001167Y152809D02*
X999996Y152576D01*
X999004Y151913D01*
X998341Y150920D01*
X998108Y149750D01*
X998341Y148580D01*
X999004Y147587D01*
X999996Y146924D01*
X1001167Y146691D01*
X1002337Y146924D01*
X1003330Y147587D01*
X1003993Y148580D01*
X1004225Y149750D01*
X1003993Y150920D01*
X1003330Y151913D01*
X1002337Y152576D01*
X1001167Y152809D01*
D02*
G37*
G36*
X869750D02*
X868579Y152576D01*
X867587Y151913D01*
X866924Y150920D01*
X866691Y149750D01*
X866924Y148580D01*
X867587Y147587D01*
X868579Y146924D01*
X869750Y146691D01*
X870920Y146924D01*
X871913Y147587D01*
X872576Y148580D01*
X872809Y149750D01*
X872576Y150920D01*
X871913Y151913D01*
X870920Y152576D01*
X869750Y152809D01*
D02*
G37*
G36*
X834750Y146569D02*
X833384Y146297D01*
X832227Y145523D01*
X831453Y144366D01*
X831181Y143000D01*
X831453Y141634D01*
X832227Y140477D01*
X833384Y139703D01*
X834750Y139431D01*
X836116Y139703D01*
X837273Y140477D01*
X838047Y141634D01*
X838319Y143000D01*
X838047Y144366D01*
X837273Y145523D01*
X836116Y146297D01*
X834750Y146569D01*
D02*
G37*
G36*
X900000Y127565D02*
X898042Y127307D01*
X896218Y126551D01*
X894651Y125349D01*
X893449Y123782D01*
X892693Y121958D01*
X892435Y120000D01*
X892693Y118042D01*
X893449Y116218D01*
X894651Y114651D01*
X896218Y113449D01*
X898042Y112693D01*
X900000Y112435D01*
X901958Y112693D01*
X903782Y113449D01*
X905349Y114651D01*
X906551Y116218D01*
X907307Y118042D01*
X907565Y120000D01*
X907307Y121958D01*
X906551Y123782D01*
X905349Y125349D01*
X903782Y126551D01*
X901958Y127307D01*
X900000Y127565D01*
D02*
G37*
G36*
X870000D02*
X868042Y127307D01*
X866218Y126551D01*
X864651Y125349D01*
X863449Y123782D01*
X862693Y121958D01*
X862435Y120000D01*
X862693Y118042D01*
X863449Y116218D01*
X864651Y114651D01*
X866218Y113449D01*
X868042Y112693D01*
X870000Y112435D01*
X871958Y112693D01*
X873782Y113449D01*
X875349Y114651D01*
X876551Y116218D01*
X877307Y118042D01*
X877565Y120000D01*
X877307Y121958D01*
X876551Y123782D01*
X875349Y125349D01*
X873782Y126551D01*
X871958Y127307D01*
X870000Y127565D01*
D02*
G37*
G36*
X200000D02*
X198042Y127307D01*
X196218Y126551D01*
X194651Y125349D01*
X193449Y123782D01*
X192693Y121958D01*
X192435Y120000D01*
X192693Y118042D01*
X193449Y116218D01*
X194651Y114651D01*
X196218Y113449D01*
X198042Y112693D01*
X200000Y112435D01*
X201958Y112693D01*
X203782Y113449D01*
X205349Y114651D01*
X206551Y116218D01*
X207307Y118042D01*
X207565Y120000D01*
X207307Y121958D01*
X206551Y123782D01*
X205349Y125349D01*
X203782Y126551D01*
X201958Y127307D01*
X200000Y127565D01*
D02*
G37*
G36*
X170000D02*
X168042Y127307D01*
X166218Y126551D01*
X164651Y125349D01*
X163449Y123782D01*
X162693Y121958D01*
X162435Y120000D01*
X162693Y118042D01*
X163449Y116218D01*
X164651Y114651D01*
X166218Y113449D01*
X168042Y112693D01*
X170000Y112435D01*
X171958Y112693D01*
X173782Y113449D01*
X175349Y114651D01*
X176551Y116218D01*
X177307Y118042D01*
X177565Y120000D01*
X177307Y121958D01*
X176551Y123782D01*
X175349Y125349D01*
X173782Y126551D01*
X171958Y127307D01*
X170000Y127565D01*
D02*
G37*
G36*
X840000Y127565D02*
X838042Y127307D01*
X836218Y126551D01*
X834651Y125349D01*
X833449Y123782D01*
X832693Y121958D01*
X832435Y120000D01*
X832693Y118042D01*
X833449Y116218D01*
X834651Y114651D01*
X836218Y113449D01*
X838042Y112693D01*
X840000Y112435D01*
X841958Y112693D01*
X843782Y113449D01*
X845349Y114651D01*
X846551Y116218D01*
X847307Y118042D01*
X847565Y120000D01*
X847307Y121958D01*
X846551Y123782D01*
X845349Y125349D01*
X843782Y126551D01*
X841958Y127307D01*
X840000Y127565D01*
D02*
G37*
G36*
X810000D02*
X808042Y127307D01*
X806218Y126551D01*
X804651Y125349D01*
X803449Y123782D01*
X802693Y121958D01*
X802435Y120000D01*
X802693Y118042D01*
X803449Y116218D01*
X804651Y114651D01*
X806218Y113449D01*
X808042Y112693D01*
X810000Y112435D01*
X811958Y112693D01*
X813782Y113449D01*
X815349Y114651D01*
X816551Y116218D01*
X817307Y118042D01*
X817565Y120000D01*
X817307Y121958D01*
X816551Y123782D01*
X815349Y125349D01*
X813782Y126551D01*
X811958Y127307D01*
X810000Y127565D01*
D02*
G37*
G36*
X780000D02*
X778042Y127307D01*
X776218Y126551D01*
X774651Y125349D01*
X773449Y123782D01*
X772693Y121958D01*
X772435Y120000D01*
X772693Y118042D01*
X773449Y116218D01*
X774651Y114651D01*
X776218Y113449D01*
X778042Y112693D01*
X780000Y112435D01*
X781958Y112693D01*
X783782Y113449D01*
X785349Y114651D01*
X786551Y116218D01*
X787307Y118042D01*
X787565Y120000D01*
X787307Y121958D01*
X786551Y123782D01*
X785349Y125349D01*
X783782Y126551D01*
X781958Y127307D01*
X780000Y127565D01*
D02*
G37*
G36*
X750000D02*
X748042Y127307D01*
X746218Y126551D01*
X744651Y125349D01*
X743449Y123782D01*
X742693Y121958D01*
X742435Y120000D01*
X742693Y118042D01*
X743449Y116218D01*
X744651Y114651D01*
X746218Y113449D01*
X748042Y112693D01*
X750000Y112435D01*
X751958Y112693D01*
X753782Y113449D01*
X755349Y114651D01*
X756551Y116218D01*
X757307Y118042D01*
X757565Y120000D01*
X757307Y121958D01*
X756551Y123782D01*
X755349Y125349D01*
X753782Y126551D01*
X751958Y127307D01*
X750000Y127565D01*
D02*
G37*
G36*
X665000D02*
X663042Y127307D01*
X661218Y126551D01*
X659651Y125349D01*
X658449Y123782D01*
X657693Y121958D01*
X657435Y120000D01*
X657693Y118042D01*
X658449Y116218D01*
X659651Y114651D01*
X661218Y113449D01*
X663042Y112693D01*
X665000Y112435D01*
X666958Y112693D01*
X668782Y113449D01*
X670349Y114651D01*
X671551Y116218D01*
X672307Y118042D01*
X672565Y120000D01*
X672307Y121958D01*
X671551Y123782D01*
X670349Y125349D01*
X668782Y126551D01*
X666958Y127307D01*
X665000Y127565D01*
D02*
G37*
G36*
X635000D02*
X633042Y127307D01*
X631218Y126551D01*
X629651Y125349D01*
X628449Y123782D01*
X627693Y121958D01*
X627435Y120000D01*
X627693Y118042D01*
X628449Y116218D01*
X629651Y114651D01*
X631218Y113449D01*
X633042Y112693D01*
X635000Y112435D01*
X636958Y112693D01*
X638782Y113449D01*
X640349Y114651D01*
X641551Y116218D01*
X642307Y118042D01*
X642565Y120000D01*
X642307Y121958D01*
X641551Y123782D01*
X640349Y125349D01*
X638782Y126551D01*
X636958Y127307D01*
X635000Y127565D01*
D02*
G37*
G36*
X490000D02*
X488042Y127307D01*
X486218Y126551D01*
X484651Y125349D01*
X483449Y123782D01*
X482693Y121958D01*
X482435Y120000D01*
X482693Y118042D01*
X483449Y116218D01*
X484651Y114651D01*
X486218Y113449D01*
X488042Y112693D01*
X490000Y112435D01*
X491958Y112693D01*
X493782Y113449D01*
X495349Y114651D01*
X496551Y116218D01*
X497307Y118042D01*
X497565Y120000D01*
X497307Y121958D01*
X496551Y123782D01*
X495349Y125349D01*
X493782Y126551D01*
X491958Y127307D01*
X490000Y127565D01*
D02*
G37*
G36*
X460000D02*
X458042Y127307D01*
X456218Y126551D01*
X454651Y125349D01*
X453449Y123782D01*
X452693Y121958D01*
X452435Y120000D01*
X452693Y118042D01*
X453449Y116218D01*
X454651Y114651D01*
X456218Y113449D01*
X458042Y112693D01*
X460000Y112435D01*
X461958Y112693D01*
X463782Y113449D01*
X465349Y114651D01*
X466551Y116218D01*
X467307Y118042D01*
X467565Y120000D01*
X467307Y121958D01*
X466551Y123782D01*
X465349Y125349D01*
X463782Y126551D01*
X461958Y127307D01*
X460000Y127565D01*
D02*
G37*
G36*
X315000D02*
X313042Y127307D01*
X311218Y126551D01*
X309651Y125349D01*
X308449Y123782D01*
X307693Y121958D01*
X307435Y120000D01*
X307693Y118042D01*
X308449Y116218D01*
X309651Y114651D01*
X311218Y113449D01*
X313042Y112693D01*
X315000Y112435D01*
X316958Y112693D01*
X318782Y113449D01*
X320349Y114651D01*
X321551Y116218D01*
X322307Y118042D01*
X322565Y120000D01*
X322307Y121958D01*
X321551Y123782D01*
X320349Y125349D01*
X318782Y126551D01*
X316958Y127307D01*
X315000Y127565D01*
D02*
G37*
G36*
X285000D02*
X283042Y127307D01*
X281218Y126551D01*
X279651Y125349D01*
X278449Y123782D01*
X277693Y121958D01*
X277435Y120000D01*
X277693Y118042D01*
X278449Y116218D01*
X279651Y114651D01*
X281218Y113449D01*
X283042Y112693D01*
X285000Y112435D01*
X286958Y112693D01*
X288782Y113449D01*
X290349Y114651D01*
X291551Y116218D01*
X292307Y118042D01*
X292565Y120000D01*
X292307Y121958D01*
X291551Y123782D01*
X290349Y125349D01*
X288782Y126551D01*
X286958Y127307D01*
X285000Y127565D01*
D02*
G37*
G36*
X140000D02*
X138042Y127307D01*
X136218Y126551D01*
X134651Y125349D01*
X133449Y123782D01*
X132693Y121958D01*
X132435Y120000D01*
X132693Y118042D01*
X133449Y116218D01*
X134651Y114651D01*
X136218Y113449D01*
X138042Y112693D01*
X140000Y112435D01*
X141958Y112693D01*
X143782Y113449D01*
X145349Y114651D01*
X146551Y116218D01*
X147307Y118042D01*
X147565Y120000D01*
X147307Y121958D01*
X146551Y123782D01*
X145349Y125349D01*
X143782Y126551D01*
X141958Y127307D01*
X140000Y127565D01*
D02*
G37*
G36*
X605000Y127565D02*
X603042Y127307D01*
X601218Y126551D01*
X599651Y125349D01*
X598449Y123782D01*
X597693Y121958D01*
X597435Y120000D01*
X597693Y118042D01*
X598449Y116218D01*
X599651Y114651D01*
X601218Y113449D01*
X603042Y112693D01*
X605000Y112435D01*
X606958Y112693D01*
X608782Y113449D01*
X610349Y114651D01*
X611551Y116218D01*
X612307Y118042D01*
X612565Y120000D01*
X612307Y121958D01*
X611551Y123782D01*
X610349Y125349D01*
X608782Y126551D01*
X606958Y127307D01*
X605000Y127565D01*
D02*
G37*
G36*
X575000D02*
X573042Y127307D01*
X571218Y126551D01*
X569651Y125349D01*
X568449Y123782D01*
X567693Y121958D01*
X567435Y120000D01*
X567693Y118042D01*
X568449Y116218D01*
X569651Y114651D01*
X571218Y113449D01*
X573042Y112693D01*
X575000Y112435D01*
X576958Y112693D01*
X578782Y113449D01*
X580349Y114651D01*
X581551Y116218D01*
X582307Y118042D01*
X582565Y120000D01*
X582307Y121958D01*
X581551Y123782D01*
X580349Y125349D01*
X578782Y126551D01*
X576958Y127307D01*
X575000Y127565D01*
D02*
G37*
G36*
X430000D02*
X428042Y127307D01*
X426218Y126551D01*
X424651Y125349D01*
X423449Y123782D01*
X422693Y121958D01*
X422435Y120000D01*
X422693Y118042D01*
X423449Y116218D01*
X424651Y114651D01*
X426218Y113449D01*
X428042Y112693D01*
X430000Y112435D01*
X431958Y112693D01*
X433782Y113449D01*
X435349Y114651D01*
X436551Y116218D01*
X437307Y118042D01*
X437565Y120000D01*
X437307Y121958D01*
X436551Y123782D01*
X435349Y125349D01*
X433782Y126551D01*
X431958Y127307D01*
X430000Y127565D01*
D02*
G37*
G36*
X400000D02*
X398042Y127307D01*
X396218Y126551D01*
X394651Y125349D01*
X393449Y123782D01*
X392693Y121958D01*
X392435Y120000D01*
X392693Y118042D01*
X393449Y116218D01*
X394651Y114651D01*
X396218Y113449D01*
X398042Y112693D01*
X400000Y112435D01*
X401958Y112693D01*
X403782Y113449D01*
X405349Y114651D01*
X406551Y116218D01*
X407307Y118042D01*
X407565Y120000D01*
X407307Y121958D01*
X406551Y123782D01*
X405349Y125349D01*
X403782Y126551D01*
X401958Y127307D01*
X400000Y127565D01*
D02*
G37*
G36*
X1008500Y122809D02*
X1007329Y122576D01*
X1006337Y121913D01*
X1005674Y120921D01*
X1005441Y119750D01*
X1005674Y118580D01*
X1006337Y117587D01*
X1007329Y116924D01*
X1008500Y116691D01*
X1009174Y116825D01*
X1009225Y116802D01*
X1010148Y115879D01*
X1010171Y115827D01*
X1010037Y115154D01*
X1010270Y113983D01*
X1010933Y112991D01*
X1011926Y112328D01*
X1013096Y112095D01*
X1014267Y112328D01*
X1015259Y112991D01*
X1015922Y113983D01*
X1016155Y115154D01*
X1015922Y116324D01*
X1015259Y117317D01*
X1014267Y117980D01*
X1013096Y118213D01*
X1012423Y118079D01*
X1012371Y118102D01*
X1011448Y119025D01*
X1011425Y119076D01*
X1011559Y119750D01*
X1011326Y120921D01*
X1010663Y121913D01*
X1009670Y122576D01*
X1008500Y122809D01*
D02*
G37*
G36*
X902500Y101311D02*
Y92500D01*
X911311D01*
X911243Y93013D01*
X910080Y95820D01*
X908230Y98230D01*
X905820Y100080D01*
X903013Y101243D01*
X902500Y101311D01*
D02*
G37*
G36*
X897500D02*
X896988Y101243D01*
X894180Y100080D01*
X891770Y98230D01*
X889920Y95820D01*
X888757Y93013D01*
X888690Y92500D01*
X897500D01*
Y101311D01*
D02*
G37*
G36*
X202500D02*
Y92500D01*
X211310D01*
X211243Y93013D01*
X210080Y95820D01*
X208230Y98230D01*
X205820Y100080D01*
X203013Y101243D01*
X202500Y101311D01*
D02*
G37*
G36*
X197500D02*
X196987Y101243D01*
X194180Y100080D01*
X191770Y98230D01*
X189920Y95820D01*
X188757Y93013D01*
X188690Y92500D01*
X197500D01*
Y101311D01*
D02*
G37*
G36*
X667500Y101310D02*
Y92500D01*
X676311D01*
X676243Y93013D01*
X675080Y95820D01*
X673231Y98230D01*
X670820Y100080D01*
X668013Y101243D01*
X667500Y101310D01*
D02*
G37*
G36*
X662500D02*
X661988Y101243D01*
X659180Y100080D01*
X656770Y98230D01*
X654920Y95820D01*
X653757Y93013D01*
X653690Y92500D01*
X662500D01*
Y101310D01*
D02*
G37*
G36*
X637500D02*
Y92500D01*
X646311D01*
X646243Y93013D01*
X645080Y95820D01*
X643231Y98230D01*
X640820Y100080D01*
X638013Y101243D01*
X637500Y101310D01*
D02*
G37*
G36*
X632500D02*
X631987Y101243D01*
X629180Y100080D01*
X626770Y98230D01*
X624920Y95820D01*
X623757Y93013D01*
X623690Y92500D01*
X632500D01*
Y101310D01*
D02*
G37*
G36*
X492500D02*
Y92500D01*
X501311D01*
X501243Y93013D01*
X500080Y95820D01*
X498230Y98230D01*
X495820Y100080D01*
X493013Y101243D01*
X492500Y101310D01*
D02*
G37*
G36*
X487500D02*
X486987Y101243D01*
X484180Y100080D01*
X481770Y98230D01*
X479920Y95820D01*
X478757Y93013D01*
X478690Y92500D01*
X487500D01*
Y101310D01*
D02*
G37*
G36*
X317500D02*
Y92500D01*
X326311D01*
X326243Y93013D01*
X325080Y95820D01*
X323230Y98230D01*
X320820Y100080D01*
X318013Y101243D01*
X317500Y101310D01*
D02*
G37*
G36*
X312500D02*
X311987Y101243D01*
X309180Y100080D01*
X306770Y98230D01*
X304920Y95820D01*
X303757Y93013D01*
X303690Y92500D01*
X312500D01*
Y101310D01*
D02*
G37*
G36*
X870000Y97565D02*
X868042Y97307D01*
X866218Y96551D01*
X864651Y95349D01*
X863449Y93782D01*
X862693Y91958D01*
X862435Y90000D01*
X862693Y88042D01*
X863449Y86218D01*
X864651Y84651D01*
X866218Y83449D01*
X868042Y82693D01*
X870000Y82435D01*
X871958Y82693D01*
X873782Y83449D01*
X875349Y84651D01*
X876551Y86218D01*
X877307Y88042D01*
X877565Y90000D01*
X877307Y91958D01*
X876551Y93782D01*
X875349Y95349D01*
X873782Y96551D01*
X871958Y97307D01*
X870000Y97565D01*
D02*
G37*
G36*
X170000D02*
X168042Y97307D01*
X166218Y96551D01*
X164651Y95349D01*
X163449Y93782D01*
X162693Y91958D01*
X162435Y90000D01*
X162693Y88042D01*
X163449Y86218D01*
X164651Y84651D01*
X166218Y83449D01*
X168042Y82693D01*
X170000Y82435D01*
X171958Y82693D01*
X173782Y83449D01*
X175349Y84651D01*
X176551Y86218D01*
X177307Y88042D01*
X177565Y90000D01*
X177307Y91958D01*
X176551Y93782D01*
X175349Y95349D01*
X173782Y96551D01*
X171958Y97307D01*
X170000Y97565D01*
D02*
G37*
G36*
X840000Y97565D02*
X838042Y97307D01*
X836218Y96551D01*
X834651Y95349D01*
X833449Y93782D01*
X832693Y91958D01*
X832435Y90000D01*
X832693Y88042D01*
X833449Y86218D01*
X834651Y84651D01*
X836218Y83449D01*
X838042Y82693D01*
X840000Y82435D01*
X841958Y82693D01*
X843782Y83449D01*
X845349Y84651D01*
X846551Y86218D01*
X847307Y88042D01*
X847565Y90000D01*
X847307Y91958D01*
X846551Y93782D01*
X845349Y95349D01*
X843782Y96551D01*
X841958Y97307D01*
X840000Y97565D01*
D02*
G37*
G36*
X810000D02*
X808042Y97307D01*
X806218Y96551D01*
X804651Y95349D01*
X803449Y93782D01*
X802693Y91958D01*
X802435Y90000D01*
X802693Y88042D01*
X803449Y86218D01*
X804651Y84651D01*
X806218Y83449D01*
X808042Y82693D01*
X810000Y82435D01*
X811958Y82693D01*
X813782Y83449D01*
X815349Y84651D01*
X816551Y86218D01*
X817307Y88042D01*
X817565Y90000D01*
X817307Y91958D01*
X816551Y93782D01*
X815349Y95349D01*
X813782Y96551D01*
X811958Y97307D01*
X810000Y97565D01*
D02*
G37*
G36*
X780000D02*
X778042Y97307D01*
X776218Y96551D01*
X774651Y95349D01*
X773449Y93782D01*
X772693Y91958D01*
X772435Y90000D01*
X772693Y88042D01*
X773449Y86218D01*
X774651Y84651D01*
X776218Y83449D01*
X778042Y82693D01*
X780000Y82435D01*
X781958Y82693D01*
X783782Y83449D01*
X785349Y84651D01*
X786551Y86218D01*
X787307Y88042D01*
X787565Y90000D01*
X787307Y91958D01*
X786551Y93782D01*
X785349Y95349D01*
X783782Y96551D01*
X781958Y97307D01*
X780000Y97565D01*
D02*
G37*
G36*
X750000D02*
X748042Y97307D01*
X746218Y96551D01*
X744651Y95349D01*
X743449Y93782D01*
X742693Y91958D01*
X742435Y90000D01*
X742693Y88042D01*
X743449Y86218D01*
X744651Y84651D01*
X746218Y83449D01*
X748042Y82693D01*
X750000Y82435D01*
X751958Y82693D01*
X753782Y83449D01*
X755349Y84651D01*
X756551Y86218D01*
X757307Y88042D01*
X757565Y90000D01*
X757307Y91958D01*
X756551Y93782D01*
X755349Y95349D01*
X753782Y96551D01*
X751958Y97307D01*
X750000Y97565D01*
D02*
G37*
G36*
X460000D02*
X458042Y97307D01*
X456218Y96551D01*
X454651Y95349D01*
X453449Y93782D01*
X452693Y91958D01*
X452435Y90000D01*
X452693Y88042D01*
X453449Y86218D01*
X454651Y84651D01*
X456218Y83449D01*
X458042Y82693D01*
X460000Y82435D01*
X461958Y82693D01*
X463782Y83449D01*
X465349Y84651D01*
X466551Y86218D01*
X467307Y88042D01*
X467565Y90000D01*
X467307Y91958D01*
X466551Y93782D01*
X465349Y95349D01*
X463782Y96551D01*
X461958Y97307D01*
X460000Y97565D01*
D02*
G37*
G36*
X285000D02*
X283042Y97307D01*
X281218Y96551D01*
X279651Y95349D01*
X278449Y93782D01*
X277693Y91958D01*
X277435Y90000D01*
X277693Y88042D01*
X278449Y86218D01*
X279651Y84651D01*
X281218Y83449D01*
X283042Y82693D01*
X285000Y82435D01*
X286958Y82693D01*
X288782Y83449D01*
X290349Y84651D01*
X291551Y86218D01*
X292307Y88042D01*
X292565Y90000D01*
X292307Y91958D01*
X291551Y93782D01*
X290349Y95349D01*
X288782Y96551D01*
X286958Y97307D01*
X285000Y97565D01*
D02*
G37*
G36*
X140000D02*
X138042Y97307D01*
X136218Y96551D01*
X134651Y95349D01*
X133449Y93782D01*
X132693Y91958D01*
X132435Y90000D01*
X132693Y88042D01*
X133449Y86218D01*
X134651Y84651D01*
X136218Y83449D01*
X138042Y82693D01*
X140000Y82435D01*
X141958Y82693D01*
X143782Y83449D01*
X145349Y84651D01*
X146551Y86218D01*
X147307Y88042D01*
X147565Y90000D01*
X147307Y91958D01*
X146551Y93782D01*
X145349Y95349D01*
X143782Y96551D01*
X141958Y97307D01*
X140000Y97565D01*
D02*
G37*
G36*
X605000Y97565D02*
X603042Y97307D01*
X601218Y96551D01*
X599651Y95349D01*
X598449Y93782D01*
X597693Y91958D01*
X597435Y90000D01*
X597693Y88042D01*
X598449Y86218D01*
X599651Y84651D01*
X601218Y83449D01*
X603042Y82693D01*
X605000Y82435D01*
X606958Y82693D01*
X608782Y83449D01*
X610349Y84651D01*
X611551Y86218D01*
X612307Y88042D01*
X612565Y90000D01*
X612307Y91958D01*
X611551Y93782D01*
X610349Y95349D01*
X608782Y96551D01*
X606958Y97307D01*
X605000Y97565D01*
D02*
G37*
G36*
X575000D02*
X573042Y97307D01*
X571218Y96551D01*
X569651Y95349D01*
X568449Y93782D01*
X567693Y91958D01*
X567435Y90000D01*
X567693Y88042D01*
X568449Y86218D01*
X569651Y84651D01*
X571218Y83449D01*
X573042Y82693D01*
X575000Y82435D01*
X576958Y82693D01*
X578782Y83449D01*
X580349Y84651D01*
X581551Y86218D01*
X582307Y88042D01*
X582565Y90000D01*
X582307Y91958D01*
X581551Y93782D01*
X580349Y95349D01*
X578782Y96551D01*
X576958Y97307D01*
X575000Y97565D01*
D02*
G37*
G36*
X430000D02*
X428042Y97307D01*
X426218Y96551D01*
X424651Y95349D01*
X423449Y93782D01*
X422693Y91958D01*
X422435Y90000D01*
X422693Y88042D01*
X423449Y86218D01*
X424651Y84651D01*
X426218Y83449D01*
X428042Y82693D01*
X430000Y82435D01*
X431958Y82693D01*
X433782Y83449D01*
X435349Y84651D01*
X436551Y86218D01*
X437307Y88042D01*
X437565Y90000D01*
X437307Y91958D01*
X436551Y93782D01*
X435349Y95349D01*
X433782Y96551D01*
X431958Y97307D01*
X430000Y97565D01*
D02*
G37*
G36*
X400000D02*
X398042Y97307D01*
X396218Y96551D01*
X394651Y95349D01*
X393449Y93782D01*
X392693Y91958D01*
X392435Y90000D01*
X392693Y88042D01*
X393449Y86218D01*
X394651Y84651D01*
X396218Y83449D01*
X398042Y82693D01*
X400000Y82435D01*
X401958Y82693D01*
X403782Y83449D01*
X405349Y84651D01*
X406551Y86218D01*
X407307Y88042D01*
X407565Y90000D01*
X407307Y91958D01*
X406551Y93782D01*
X405349Y95349D01*
X403782Y96551D01*
X401958Y97307D01*
X400000Y97565D01*
D02*
G37*
G36*
X911311Y87500D02*
X902500D01*
Y78690D01*
X903013Y78757D01*
X905820Y79920D01*
X908230Y81770D01*
X910080Y84180D01*
X911243Y86987D01*
X911311Y87500D01*
D02*
G37*
G36*
X897500D02*
X888690D01*
X888757Y86987D01*
X889920Y84180D01*
X891770Y81770D01*
X894180Y79920D01*
X896988Y78757D01*
X897500Y78690D01*
Y87500D01*
D02*
G37*
G36*
X211310D02*
X202500D01*
Y78690D01*
X203013Y78757D01*
X205820Y79920D01*
X208230Y81770D01*
X210080Y84180D01*
X211243Y86987D01*
X211310Y87500D01*
D02*
G37*
G36*
X197500D02*
X188690D01*
X188757Y86987D01*
X189920Y84180D01*
X191770Y81770D01*
X194180Y79920D01*
X196987Y78757D01*
X197500Y78690D01*
Y87500D01*
D02*
G37*
G36*
X676311Y87500D02*
X667500D01*
Y78690D01*
X668013Y78757D01*
X670820Y79920D01*
X673231Y81770D01*
X675080Y84180D01*
X676243Y86987D01*
X676311Y87500D01*
D02*
G37*
G36*
X662500D02*
X653690D01*
X653757Y86987D01*
X654920Y84180D01*
X656770Y81770D01*
X659180Y79920D01*
X661988Y78757D01*
X662500Y78690D01*
Y87500D01*
D02*
G37*
G36*
X646311D02*
X637500D01*
Y78690D01*
X638013Y78757D01*
X640820Y79920D01*
X643231Y81770D01*
X645080Y84180D01*
X646243Y86987D01*
X646311Y87500D01*
D02*
G37*
G36*
X632500D02*
X623690D01*
X623757Y86987D01*
X624920Y84180D01*
X626770Y81770D01*
X629180Y79920D01*
X631987Y78757D01*
X632500Y78690D01*
Y87500D01*
D02*
G37*
G36*
X501311D02*
X492500D01*
Y78690D01*
X493013Y78757D01*
X495820Y79920D01*
X498230Y81770D01*
X500080Y84180D01*
X501243Y86987D01*
X501311Y87500D01*
D02*
G37*
G36*
X487500D02*
X478690D01*
X478757Y86987D01*
X479920Y84180D01*
X481770Y81770D01*
X484180Y79920D01*
X486987Y78757D01*
X487500Y78690D01*
Y87500D01*
D02*
G37*
G36*
X326311D02*
X317500D01*
Y78690D01*
X318013Y78757D01*
X320820Y79920D01*
X323230Y81770D01*
X325080Y84180D01*
X326243Y86987D01*
X326311Y87500D01*
D02*
G37*
G36*
X312500D02*
X303690D01*
X303757Y86987D01*
X304920Y84180D01*
X306770Y81770D01*
X309180Y79920D01*
X311987Y78757D01*
X312500Y78690D01*
Y87500D01*
D02*
G37*
%LPD*%
D127*
X490000Y90000D02*
D03*
X315000D02*
D03*
X200000Y90000D02*
D03*
X270000Y910000D02*
D03*
X240000D02*
D03*
X142563Y558750D02*
D03*
X635000Y90000D02*
D03*
X665000D02*
D03*
X900000Y90000D02*
D03*
X630000Y975000D02*
D03*
D133*
X639350Y823200D02*
D03*
D135*
X731000Y337750D02*
D03*
X750500Y338500D02*
D03*
X496750Y819500D02*
D03*
X709750Y751500D02*
D03*
X351750Y326500D02*
D03*
X867000Y386250D02*
D03*
X823000Y431250D02*
D03*
X690250Y701000D02*
D03*
X660500Y729750D02*
D03*
X662250Y596500D02*
D03*
X667750Y619000D02*
D03*
X667250Y673750D02*
D03*
X667500Y644750D02*
D03*
X532250Y599250D02*
D03*
X407372Y529045D02*
D03*
X385000Y516000D02*
D03*
X365000Y530500D02*
D03*
X508000Y520250D02*
D03*
X526000Y550500D02*
D03*
X464000Y474500D02*
D03*
X225500Y54250D02*
D03*
X321250Y54000D02*
D03*
X418250Y53250D02*
D03*
X766000Y993000D02*
D03*
X712250Y994000D02*
D03*
X662500Y993750D02*
D03*
X606500D02*
D03*
X546000Y992250D02*
D03*
X495750Y992750D02*
D03*
X451500D02*
D03*
X400750D02*
D03*
X341250Y992250D02*
D03*
X284250Y991000D02*
D03*
X230000D02*
D03*
X176000Y991500D02*
D03*
X137000D02*
D03*
X96500Y992250D02*
D03*
X818750Y542500D02*
D03*
X774000Y646250D02*
D03*
X767000Y678250D02*
D03*
X774000Y662500D02*
D03*
X469250Y923000D02*
D03*
X546750Y909250D02*
D03*
X582000Y845250D02*
D03*
X581750Y815500D02*
D03*
X581500Y785000D02*
D03*
X536555Y770002D02*
D03*
X510250Y770250D02*
D03*
X458250Y770750D02*
D03*
X649750Y665750D02*
D03*
X585000Y702500D02*
D03*
X543250Y697750D02*
D03*
X534250Y715500D02*
D03*
X568000Y654250D02*
D03*
X553750Y661250D02*
D03*
X534750Y866750D02*
D03*
X524250Y892750D02*
D03*
X392250Y435500D02*
D03*
X162750Y591250D02*
D03*
X133250Y612500D02*
D03*
X226750Y333750D02*
D03*
X209250Y276500D02*
D03*
X247500Y107500D02*
D03*
X248000Y85750D02*
D03*
X359750Y143000D02*
D03*
X374500Y89500D02*
D03*
X376250Y78000D02*
D03*
X362750Y92750D02*
D03*
X560500Y107250D02*
D03*
X561000Y133000D02*
D03*
X523500Y133500D02*
D03*
X503250Y134250D02*
D03*
X590000Y79000D02*
D03*
X550000Y79500D02*
D03*
X856477Y78737D02*
D03*
X826250Y78000D02*
D03*
X764500Y77500D02*
D03*
X794750Y78500D02*
D03*
X718500Y83750D02*
D03*
X944500Y128250D02*
D03*
X929250Y108000D02*
D03*
X913000Y129000D02*
D03*
X956500Y189250D02*
D03*
X922500Y190750D02*
D03*
X852000Y190000D02*
D03*
X815250Y193000D02*
D03*
X820500Y234000D02*
D03*
X811500Y251750D02*
D03*
X915250Y331750D02*
D03*
X985250Y470000D02*
D03*
X1000250Y421750D02*
D03*
X999750Y461000D02*
D03*
X983500Y402000D02*
D03*
X1019000Y394750D02*
D03*
X1021500Y619500D02*
D03*
X1030500Y634250D02*
D03*
X912000Y546750D02*
D03*
X915750Y496750D02*
D03*
X952000Y489500D02*
D03*
X907750Y566250D02*
D03*
X839250Y556750D02*
D03*
X894750Y553250D02*
D03*
X845000Y506000D02*
D03*
X745500Y405000D02*
D03*
X737750Y446000D02*
D03*
X702750Y478500D02*
D03*
X703000Y429500D02*
D03*
X664500Y512500D02*
D03*
X638500Y506250D02*
D03*
X606750Y499250D02*
D03*
X656250Y522750D02*
D03*
X644500Y524000D02*
D03*
X612000Y523000D02*
D03*
X553750Y477250D02*
D03*
X577500Y501000D02*
D03*
X554250Y452500D02*
D03*
X526500Y446750D02*
D03*
X555750Y495500D02*
D03*
X483000Y416750D02*
D03*
X498500Y433000D02*
D03*
X496500Y398250D02*
D03*
X497750Y367500D02*
D03*
X462750Y415500D02*
D03*
X411500Y419500D02*
D03*
X390250Y329500D02*
D03*
X503500Y330750D02*
D03*
X454250Y326500D02*
D03*
X438250Y326000D02*
D03*
X534325Y327301D02*
D03*
X557250Y327500D02*
D03*
X585250Y326750D02*
D03*
X610500Y327000D02*
D03*
X633000Y327250D02*
D03*
X653500Y322000D02*
D03*
X683750Y322250D02*
D03*
X715750Y321750D02*
D03*
X767250Y322000D02*
D03*
X863750Y276750D02*
D03*
X851750Y213750D02*
D03*
Y245500D02*
D03*
X886500Y215000D02*
D03*
X887000Y245750D02*
D03*
X313000Y406250D02*
D03*
X311750Y362000D02*
D03*
X338000Y445500D02*
D03*
X366750Y446750D02*
D03*
X462000Y856000D02*
D03*
X431953Y855407D02*
D03*
X395000Y853750D02*
D03*
X365500Y837750D02*
D03*
X341000Y812000D02*
D03*
X1016250Y875250D02*
D03*
Y845250D02*
D03*
Y815250D02*
D03*
Y785250D02*
D03*
Y755250D02*
D03*
Y725250D02*
D03*
Y695250D02*
D03*
X986250Y875250D02*
D03*
Y845250D02*
D03*
Y815250D02*
D03*
Y785250D02*
D03*
Y755250D02*
D03*
Y725250D02*
D03*
Y695250D02*
D03*
Y665250D02*
D03*
Y545250D02*
D03*
Y515250D02*
D03*
Y425250D02*
D03*
Y335250D02*
D03*
Y275250D02*
D03*
Y185250D02*
D03*
X956250Y905250D02*
D03*
Y875250D02*
D03*
Y845250D02*
D03*
Y815250D02*
D03*
Y785250D02*
D03*
Y755250D02*
D03*
Y725250D02*
D03*
Y695250D02*
D03*
Y665250D02*
D03*
Y575250D02*
D03*
Y545250D02*
D03*
Y515250D02*
D03*
Y365250D02*
D03*
Y335250D02*
D03*
Y305250D02*
D03*
Y245250D02*
D03*
Y215250D02*
D03*
Y5250D02*
D03*
X926250Y665250D02*
D03*
Y635250D02*
D03*
Y575250D02*
D03*
Y425250D02*
D03*
Y305250D02*
D03*
Y245250D02*
D03*
Y215250D02*
D03*
Y5250D02*
D03*
X896250Y665250D02*
D03*
Y635250D02*
D03*
Y515250D02*
D03*
Y425250D02*
D03*
Y365250D02*
D03*
Y305250D02*
D03*
Y5250D02*
D03*
X866250Y695250D02*
D03*
Y635250D02*
D03*
Y545250D02*
D03*
Y485250D02*
D03*
Y335250D02*
D03*
Y305250D02*
D03*
Y185250D02*
D03*
Y5250D02*
D03*
X836250Y695250D02*
D03*
Y665250D02*
D03*
Y425250D02*
D03*
Y305250D02*
D03*
Y275250D02*
D03*
Y5250D02*
D03*
X806250Y425250D02*
D03*
Y395250D02*
D03*
Y335250D02*
D03*
Y5250D02*
D03*
X776250Y365250D02*
D03*
Y5250D02*
D03*
X746250Y965250D02*
D03*
Y935250D02*
D03*
Y905250D02*
D03*
Y785250D02*
D03*
Y755250D02*
D03*
Y695250D02*
D03*
Y5250D02*
D03*
X716250Y965250D02*
D03*
Y935250D02*
D03*
Y485250D02*
D03*
Y185250D02*
D03*
Y155250D02*
D03*
Y125250D02*
D03*
Y5250D02*
D03*
X686250Y965250D02*
D03*
Y935250D02*
D03*
Y875250D02*
D03*
Y785250D02*
D03*
Y245250D02*
D03*
Y185250D02*
D03*
Y155250D02*
D03*
Y5250D02*
D03*
X656250Y875250D02*
D03*
Y845250D02*
D03*
Y785250D02*
D03*
Y695250D02*
D03*
Y455250D02*
D03*
Y425250D02*
D03*
Y365250D02*
D03*
Y155250D02*
D03*
Y5250D02*
D03*
X626250Y905250D02*
D03*
Y875250D02*
D03*
Y845250D02*
D03*
Y815250D02*
D03*
Y785250D02*
D03*
Y755250D02*
D03*
Y695250D02*
D03*
Y485250D02*
D03*
Y455250D02*
D03*
Y155250D02*
D03*
Y5250D02*
D03*
X596250Y905250D02*
D03*
Y875250D02*
D03*
Y845250D02*
D03*
Y815250D02*
D03*
Y785250D02*
D03*
Y755250D02*
D03*
Y485250D02*
D03*
Y455250D02*
D03*
Y5250D02*
D03*
X566250Y965250D02*
D03*
Y905250D02*
D03*
Y875250D02*
D03*
Y785250D02*
D03*
Y755250D02*
D03*
Y575250D02*
D03*
Y305250D02*
D03*
Y275250D02*
D03*
Y5250D02*
D03*
X536250Y965250D02*
D03*
Y425250D02*
D03*
Y215250D02*
D03*
Y95250D02*
D03*
Y5250D02*
D03*
X506250Y275250D02*
D03*
Y245250D02*
D03*
Y95250D02*
D03*
Y5250D02*
D03*
X476250Y575250D02*
D03*
Y515250D02*
D03*
Y365250D02*
D03*
Y155250D02*
D03*
Y95250D02*
D03*
Y5250D02*
D03*
X446250Y935250D02*
D03*
Y815250D02*
D03*
Y605250D02*
D03*
Y575250D02*
D03*
Y395250D02*
D03*
Y245250D02*
D03*
Y215250D02*
D03*
Y185250D02*
D03*
Y155250D02*
D03*
Y125250D02*
D03*
Y5250D02*
D03*
X416250Y905250D02*
D03*
Y875250D02*
D03*
Y815250D02*
D03*
Y5250D02*
D03*
X386250Y815250D02*
D03*
Y395250D02*
D03*
Y365250D02*
D03*
Y245250D02*
D03*
Y5250D02*
D03*
X356250Y875250D02*
D03*
Y575250D02*
D03*
Y395250D02*
D03*
Y365250D02*
D03*
Y275250D02*
D03*
Y5250D02*
D03*
X326250Y875250D02*
D03*
Y845250D02*
D03*
Y755250D02*
D03*
Y575250D02*
D03*
Y425250D02*
D03*
Y5250D02*
D03*
X296250Y965250D02*
D03*
Y845250D02*
D03*
Y545250D02*
D03*
Y515250D02*
D03*
Y275250D02*
D03*
Y245250D02*
D03*
Y215250D02*
D03*
Y185250D02*
D03*
Y155250D02*
D03*
Y5250D02*
D03*
X266250Y965250D02*
D03*
Y545250D02*
D03*
Y515250D02*
D03*
Y275250D02*
D03*
Y125250D02*
D03*
Y95250D02*
D03*
Y5250D02*
D03*
X236250Y965250D02*
D03*
Y545250D02*
D03*
Y275250D02*
D03*
Y215250D02*
D03*
Y185250D02*
D03*
Y155250D02*
D03*
Y5250D02*
D03*
X206250Y965250D02*
D03*
Y545250D02*
D03*
Y5250D02*
D03*
X176250Y545250D02*
D03*
Y455250D02*
D03*
Y425250D02*
D03*
Y275250D02*
D03*
Y65250D02*
D03*
Y5250D02*
D03*
X146250Y965250D02*
D03*
Y605250D02*
D03*
Y545250D02*
D03*
Y275250D02*
D03*
Y65250D02*
D03*
Y5250D02*
D03*
X116250Y965250D02*
D03*
Y935250D02*
D03*
Y875250D02*
D03*
Y455250D02*
D03*
Y395250D02*
D03*
Y305250D02*
D03*
Y245250D02*
D03*
Y125250D02*
D03*
Y5250D02*
D03*
X86250Y905250D02*
D03*
Y845250D02*
D03*
Y815250D02*
D03*
Y335250D02*
D03*
Y125250D02*
D03*
Y5250D02*
D03*
X56250Y875250D02*
D03*
Y845250D02*
D03*
Y815250D02*
D03*
X26250Y875250D02*
D03*
Y845250D02*
D03*
Y815250D02*
D03*
X785250Y620750D02*
D03*
X809250Y518250D02*
D03*
X811750Y504750D02*
D03*
Y489500D02*
D03*
X726000Y489625D02*
D03*
Y505750D02*
D03*
X731750Y473500D02*
D03*
X685500Y752250D02*
D03*
X990500Y381000D02*
D03*
X850625Y576625D02*
D03*
X884125D02*
D03*
X868625Y576875D02*
D03*
X854625Y583375D02*
D03*
X844375Y583125D02*
D03*
X997150Y355800D02*
D03*
X984500Y355250D02*
D03*
X569250Y157250D02*
D03*
X632250Y157000D02*
D03*
X600750D02*
D03*
X802205Y297000D02*
D03*
X770864Y296750D02*
D03*
X742273D02*
D03*
X713682D02*
D03*
X684841D02*
D03*
X656250Y297000D02*
D03*
X681500Y378500D02*
D03*
X462250Y365750D02*
D03*
X463750Y380000D02*
D03*
X400750Y365750D02*
D03*
X403000Y380250D02*
D03*
X82500Y408500D02*
D03*
X88500Y429750D02*
D03*
X289250Y320250D02*
D03*
X80841Y308400D02*
D03*
X777472Y530000D02*
D03*
X797500D02*
D03*
X801657Y473500D02*
D03*
X787675D02*
D03*
X773694D02*
D03*
X759713D02*
D03*
X745731Y473250D02*
D03*
X733000Y512750D02*
D03*
X745125D02*
D03*
X757250D02*
D03*
X761250Y522500D02*
D03*
Y534250D02*
D03*
X702500Y573750D02*
D03*
X728750Y521250D02*
D03*
X711500Y515500D02*
D03*
X341500Y725750D02*
D03*
X349750Y680000D02*
D03*
X469500Y673500D02*
D03*
X411750Y755500D02*
D03*
X367250Y739250D02*
D03*
X751500Y665500D02*
D03*
X478000Y785500D02*
D03*
X533500Y786000D02*
D03*
X529250Y971250D02*
D03*
X440500Y877000D02*
D03*
Y912500D02*
D03*
Y948250D02*
D03*
X324500Y886250D02*
D03*
Y921750D02*
D03*
Y957750D02*
D03*
X605250Y474500D02*
D03*
X535500Y376000D02*
D03*
X829750Y637000D02*
D03*
Y614500D02*
D03*
X934400Y475936D02*
D03*
X921700D02*
D03*
X909000D02*
D03*
X858250Y363968D02*
D03*
X845500Y364000D02*
D03*
X630250Y226250D02*
D03*
X597375D02*
D03*
X564500D02*
D03*
X532000Y261000D02*
D03*
X347000Y201500D02*
D03*
X326750Y331750D02*
D03*
D136*
X101000Y816000D02*
D03*
Y805750D02*
D03*
Y826750D02*
D03*
X255750Y828250D02*
D03*
X252750Y819250D02*
D03*
X584000Y364750D02*
D03*
X646750Y752500D02*
D03*
X508750Y152300D02*
D03*
X502000Y152550D02*
D03*
X381250Y151550D02*
D03*
X388000Y151300D02*
D03*
X507950Y191500D02*
D03*
X508200Y198250D02*
D03*
X381300Y191750D02*
D03*
X381550Y198500D02*
D03*
X448500Y709000D02*
D03*
X351501Y551801D02*
D03*
X376751D02*
D03*
X439751D02*
D03*
X465001Y552051D02*
D03*
X481550Y631751D02*
D03*
X501950Y690500D02*
D03*
X512501Y684951D02*
D03*
X559000Y536000D02*
D03*
X558500Y635000D02*
D03*
X612250Y650500D02*
D03*
X543500Y849250D02*
D03*
X490250Y893000D02*
D03*
X734000Y827250D02*
D03*
X746750Y810750D02*
D03*
X888750Y665000D02*
D03*
X931500Y545000D02*
D03*
X990750Y572000D02*
D03*
X977750D02*
D03*
X964750D02*
D03*
X971250Y490000D02*
D03*
X984250D02*
D03*
X997250D02*
D03*
X838250Y461000D02*
D03*
X950500Y424500D02*
D03*
X688250Y364500D02*
D03*
X769598Y426000D02*
D03*
X620750Y427250D02*
D03*
X181500Y233875D02*
D03*
Y255125D02*
D03*
Y244500D02*
D03*
X195000Y234125D02*
D03*
Y255375D02*
D03*
Y244750D02*
D03*
X451750Y518500D02*
D03*
X419500D02*
D03*
X427750Y525250D02*
D03*
X443250D02*
D03*
X331750Y509375D02*
D03*
Y520000D02*
D03*
X993125Y619125D02*
D03*
X124500Y617000D02*
D03*
Y606375D02*
D03*
Y627625D02*
D03*
X141000Y355250D02*
D03*
Y365875D02*
D03*
Y344625D02*
D03*
X140750Y390125D02*
D03*
Y411375D02*
D03*
Y400750D02*
D03*
X303750Y497250D02*
D03*
X325000D02*
D03*
X314375D02*
D03*
X292500Y496500D02*
D03*
X172000Y522250D02*
D03*
Y501000D02*
D03*
Y511625D02*
D03*
X171250Y533500D02*
D03*
X143750Y533250D02*
D03*
X122500D02*
D03*
X133125D02*
D03*
X155000Y534000D02*
D03*
X143750Y511500D02*
D03*
X122500D02*
D03*
X133125D02*
D03*
X155000Y512250D02*
D03*
X252750Y578375D02*
D03*
Y588000D02*
D03*
X256750Y569500D02*
D03*
X278125Y569250D02*
D03*
X288750D02*
D03*
X267500D02*
D03*
X303750Y827750D02*
D03*
Y840000D02*
D03*
X282250Y850750D02*
D03*
X303500D02*
D03*
X292875D02*
D03*
X8000Y277667D02*
D03*
Y268833D02*
D03*
X15250Y260000D02*
D03*
X22000D02*
D03*
X8250D02*
D03*
X14500Y286500D02*
D03*
X21250D02*
D03*
X7500Y286500D02*
D03*
X427000Y653500D02*
D03*
X386500D02*
D03*
Y694750D02*
D03*
X427000D02*
D03*
X406750Y674250D02*
D03*
X620750Y558500D02*
D03*
M02*
