G04*
G04 #@! TF.GenerationSoftware,Altium Limited,Altium Designer,25.1.2 (22)*
G04*
G04 Layer_Color=8421504*
%FSLAX44Y44*%
%MOMM*%
G71*
G04*
G04 #@! TF.SameCoordinates,3BD23415-9EF0-431C-9871-610E16DD9A5B*
G04*
G04*
G04 #@! TF.FilePolarity,Positive*
G04*
G01*
G75*
G04:AMPARAMS|DCode=24|XSize=1.7mm|YSize=1.1mm|CornerRadius=0.055mm|HoleSize=0mm|Usage=FLASHONLY|Rotation=180.000|XOffset=0mm|YOffset=0mm|HoleType=Round|Shape=RoundedRectangle|*
%AMROUNDEDRECTD24*
21,1,1.7000,0.9900,0,0,180.0*
21,1,1.5900,1.1000,0,0,180.0*
1,1,0.1100,-0.7950,0.4950*
1,1,0.1100,0.7950,0.4950*
1,1,0.1100,0.7950,-0.4950*
1,1,0.1100,-0.7950,-0.4950*
%
%ADD24ROUNDEDRECTD24*%
%ADD25R,1.0000X0.6500*%
%ADD26R,0.6500X1.0000*%
%ADD27R,0.9000X0.6500*%
%ADD28R,0.6500X0.9000*%
G04:AMPARAMS|DCode=29|XSize=0.9mm|YSize=0.65mm|CornerRadius=0.0325mm|HoleSize=0mm|Usage=FLASHONLY|Rotation=180.000|XOffset=0mm|YOffset=0mm|HoleType=Round|Shape=RoundedRectangle|*
%AMROUNDEDRECTD29*
21,1,0.9000,0.5850,0,0,180.0*
21,1,0.8350,0.6500,0,0,180.0*
1,1,0.0650,-0.4175,0.2925*
1,1,0.0650,0.4175,0.2925*
1,1,0.0650,0.4175,-0.2925*
1,1,0.0650,-0.4175,-0.2925*
%
%ADD29ROUNDEDRECTD29*%
%ADD30R,1.0000X1.3000*%
%ADD31R,2.1600X2.2600*%
%ADD32R,1.5000X3.3000*%
%ADD33R,1.5000X1.0000*%
%ADD34R,0.7500X1.6000*%
%ADD35R,0.8500X0.8500*%
%ADD36R,1.3000X1.0000*%
%ADD37R,1.2000X1.2000*%
%ADD38R,3.4000X1.6000*%
%ADD39R,1.6000X0.7500*%
G04:AMPARAMS|DCode=40|XSize=1.96mm|YSize=3.15mm|CornerRadius=0.098mm|HoleSize=0mm|Usage=FLASHONLY|Rotation=180.000|XOffset=0mm|YOffset=0mm|HoleType=Round|Shape=RoundedRectangle|*
%AMROUNDEDRECTD40*
21,1,1.9600,2.9540,0,0,180.0*
21,1,1.7640,3.1500,0,0,180.0*
1,1,0.1960,-0.8820,1.4770*
1,1,0.1960,0.8820,1.4770*
1,1,0.1960,0.8820,-1.4770*
1,1,0.1960,-0.8820,-1.4770*
%
%ADD40ROUNDEDRECTD40*%
%ADD41R,1.7000X1.1000*%
%ADD42R,5.7000X6.2000*%
%ADD43R,1.4000X2.3000*%
%ADD44R,0.6300X0.8000*%
G04:AMPARAMS|DCode=45|XSize=1.96mm|YSize=3.15mm|CornerRadius=0.098mm|HoleSize=0mm|Usage=FLASHONLY|Rotation=270.000|XOffset=0mm|YOffset=0mm|HoleType=Round|Shape=RoundedRectangle|*
%AMROUNDEDRECTD45*
21,1,1.9600,2.9540,0,0,270.0*
21,1,1.7640,3.1500,0,0,270.0*
1,1,0.1960,-1.4770,-0.8820*
1,1,0.1960,-1.4770,0.8820*
1,1,0.1960,1.4770,0.8820*
1,1,0.1960,1.4770,-0.8820*
%
%ADD45ROUNDEDRECTD45*%
%ADD46R,0.7000X0.6000*%
%ADD47R,0.6000X0.7000*%
G04:AMPARAMS|DCode=48|XSize=1.7mm|YSize=1.1mm|CornerRadius=0.055mm|HoleSize=0mm|Usage=FLASHONLY|Rotation=270.000|XOffset=0mm|YOffset=0mm|HoleType=Round|Shape=RoundedRectangle|*
%AMROUNDEDRECTD48*
21,1,1.7000,0.9900,0,0,270.0*
21,1,1.5900,1.1000,0,0,270.0*
1,1,0.1100,-0.4950,-0.7950*
1,1,0.1100,-0.4950,0.7950*
1,1,0.1100,0.4950,0.7950*
1,1,0.1100,0.4950,-0.7950*
%
%ADD48ROUNDEDRECTD48*%
%ADD49R,3.5000X2.0000*%
%ADD50R,0.6000X1.5000*%
%ADD51R,1.1000X1.7000*%
G04:AMPARAMS|DCode=52|XSize=2.1mm|YSize=1.8mm|CornerRadius=0.09mm|HoleSize=0mm|Usage=FLASHONLY|Rotation=0.000|XOffset=0mm|YOffset=0mm|HoleType=Round|Shape=RoundedRectangle|*
%AMROUNDEDRECTD52*
21,1,2.1000,1.6200,0,0,0.0*
21,1,1.9200,1.8000,0,0,0.0*
1,1,0.1800,0.9600,-0.8100*
1,1,0.1800,-0.9600,-0.8100*
1,1,0.1800,-0.9600,0.8100*
1,1,0.1800,0.9600,0.8100*
%
%ADD52ROUNDEDRECTD52*%
%ADD53R,1.4500X0.4500*%
%ADD54R,0.8500X0.8500*%
%ADD55R,0.7000X1.8000*%
%ADD56R,1.4000X1.5000*%
%ADD57R,1.4000X1.2000*%
%ADD58R,0.7620X1.5000*%
G04:AMPARAMS|DCode=59|XSize=0.9mm|YSize=0.8mm|CornerRadius=0.08mm|HoleSize=0mm|Usage=FLASHONLY|Rotation=270.000|XOffset=0mm|YOffset=0mm|HoleType=Round|Shape=RoundedRectangle|*
%AMROUNDEDRECTD59*
21,1,0.9000,0.6400,0,0,270.0*
21,1,0.7400,0.8000,0,0,270.0*
1,1,0.1600,-0.3200,-0.3700*
1,1,0.1600,-0.3200,0.3700*
1,1,0.1600,0.3200,0.3700*
1,1,0.1600,0.3200,-0.3700*
%
%ADD59ROUNDEDRECTD59*%
%ADD60R,0.4500X1.4500*%
G04:AMPARAMS|DCode=61|XSize=1.2mm|YSize=0.3mm|CornerRadius=0.075mm|HoleSize=0mm|Usage=FLASHONLY|Rotation=180.000|XOffset=0mm|YOffset=0mm|HoleType=Round|Shape=RoundedRectangle|*
%AMROUNDEDRECTD61*
21,1,1.2000,0.1500,0,0,180.0*
21,1,1.0500,0.3000,0,0,180.0*
1,1,0.1500,-0.5250,0.0750*
1,1,0.1500,0.5250,0.0750*
1,1,0.1500,0.5250,-0.0750*
1,1,0.1500,-0.5250,-0.0750*
%
%ADD61ROUNDEDRECTD61*%
G04:AMPARAMS|DCode=62|XSize=1.2mm|YSize=0.3mm|CornerRadius=0.075mm|HoleSize=0mm|Usage=FLASHONLY|Rotation=90.000|XOffset=0mm|YOffset=0mm|HoleType=Round|Shape=RoundedRectangle|*
%AMROUNDEDRECTD62*
21,1,1.2000,0.1500,0,0,90.0*
21,1,1.0500,0.3000,0,0,90.0*
1,1,0.1500,0.0750,0.5250*
1,1,0.1500,0.0750,-0.5250*
1,1,0.1500,-0.0750,-0.5250*
1,1,0.1500,-0.0750,0.5250*
%
%ADD62ROUNDEDRECTD62*%
G04:AMPARAMS|DCode=63|XSize=0.9mm|YSize=0.65mm|CornerRadius=0.0325mm|HoleSize=0mm|Usage=FLASHONLY|Rotation=90.000|XOffset=0mm|YOffset=0mm|HoleType=Round|Shape=RoundedRectangle|*
%AMROUNDEDRECTD63*
21,1,0.9000,0.5850,0,0,90.0*
21,1,0.8350,0.6500,0,0,90.0*
1,1,0.0650,0.2925,0.4175*
1,1,0.0650,0.2925,-0.4175*
1,1,0.0650,-0.2925,-0.4175*
1,1,0.0650,-0.2925,0.4175*
%
%ADD63ROUNDEDRECTD63*%
%ADD64C,1.0000*%
G36*
X434366Y724244D02*
X434443Y724236D01*
X434519Y724223D01*
X434594Y724206D01*
X434668Y724185D01*
X434742Y724160D01*
X434813Y724131D01*
X434883Y724098D01*
X434951Y724061D01*
X435016Y724021D01*
X435080Y723977D01*
X435141Y723930D01*
X435199Y723879D01*
X435254Y723825D01*
X435306Y723768D01*
X435355Y723709D01*
X435401Y723647D01*
X435443Y723582D01*
X435482Y723515D01*
X435517Y723446D01*
X435548Y723376D01*
X435575Y723304D01*
X435598Y723230D01*
X435617Y723155D01*
X435632Y723079D01*
X435642Y723003D01*
X435649Y722926D01*
X435651Y722849D01*
Y709649D01*
X435649Y709572D01*
X435642Y709495D01*
X435632Y709419D01*
X435617Y709343D01*
X435598Y709268D01*
X435575Y709194D01*
X435548Y709122D01*
X435517Y709052D01*
X435482Y708983D01*
X435443Y708916D01*
X435401Y708851D01*
X435355Y708789D01*
X435306Y708729D01*
X435254Y708673D01*
X435199Y708619D01*
X435141Y708568D01*
X435080Y708521D01*
X435016Y708477D01*
X434951Y708436D01*
X434883Y708400D01*
X434813Y708367D01*
X434742Y708338D01*
X434668Y708313D01*
X434594Y708292D01*
X434519Y708275D01*
X434443Y708262D01*
X434366Y708254D01*
X434289Y708249D01*
X434212D01*
X434135Y708254D01*
X434058Y708262D01*
X433982Y708275D01*
X433907Y708292D01*
X433833Y708313D01*
X433760Y708338D01*
X433688Y708367D01*
X433618Y708400D01*
X433550Y708436D01*
X433485Y708477D01*
X433422Y708521D01*
X433361Y708568D01*
X433302Y708619D01*
X433247Y708673D01*
X433195Y708729D01*
X433146Y708789D01*
X433100Y708851D01*
X433058Y708916D01*
X433019Y708983D01*
X432984Y709052D01*
X432953Y709122D01*
X432926Y709194D01*
X432903Y709268D01*
X432884Y709343D01*
X432870Y709419D01*
X432859Y709495D01*
X432853Y709572D01*
X432850Y709649D01*
Y722849D01*
X432853Y722926D01*
X432859Y723003D01*
X432870Y723079D01*
X432884Y723155D01*
X432903Y723230D01*
X432926Y723304D01*
X432953Y723376D01*
X432984Y723446D01*
X433019Y723515D01*
X433058Y723582D01*
X433100Y723647D01*
X433146Y723709D01*
X433195Y723768D01*
X433247Y723825D01*
X433302Y723879D01*
X433361Y723930D01*
X433422Y723977D01*
X433485Y724021D01*
X433550Y724061D01*
X433618Y724098D01*
X433688Y724131D01*
X433760Y724160D01*
X433833Y724185D01*
X433907Y724206D01*
X433982Y724223D01*
X434058Y724236D01*
X434135Y724244D01*
X434212Y724248D01*
X434289D01*
X434366Y724244D01*
D02*
G37*
G36*
X429365D02*
X429442Y724236D01*
X429518Y724223D01*
X429593Y724206D01*
X429667Y724185D01*
X429740Y724160D01*
X429812Y724131D01*
X429882Y724098D01*
X429949Y724061D01*
X430015Y724021D01*
X430078Y723977D01*
X430139Y723930D01*
X430197Y723879D01*
X430253Y723825D01*
X430305Y723768D01*
X430354Y723709D01*
X430400Y723647D01*
X430442Y723582D01*
X430481Y723515D01*
X430516Y723446D01*
X430546Y723376D01*
X430573Y723304D01*
X430597Y723230D01*
X430616Y723155D01*
X430630Y723079D01*
X430641Y723003D01*
X430647Y722926D01*
X430649Y722849D01*
Y709649D01*
X430647Y709572D01*
X430641Y709495D01*
X430630Y709419D01*
X430616Y709343D01*
X430597Y709268D01*
X430573Y709194D01*
X430546Y709122D01*
X430516Y709052D01*
X430481Y708983D01*
X430442Y708916D01*
X430400Y708851D01*
X430354Y708789D01*
X430305Y708729D01*
X430253Y708673D01*
X430197Y708619D01*
X430139Y708568D01*
X430078Y708521D01*
X430015Y708477D01*
X429949Y708436D01*
X429882Y708400D01*
X429812Y708367D01*
X429740Y708338D01*
X429667Y708313D01*
X429593Y708292D01*
X429518Y708275D01*
X429442Y708262D01*
X429365Y708254D01*
X429288Y708249D01*
X429211D01*
X429134Y708254D01*
X429057Y708262D01*
X428981Y708275D01*
X428906Y708292D01*
X428831Y708313D01*
X428758Y708338D01*
X428687Y708367D01*
X428617Y708400D01*
X428549Y708436D01*
X428484Y708477D01*
X428420Y708521D01*
X428359Y708568D01*
X428301Y708619D01*
X428246Y708673D01*
X428193Y708729D01*
X428144Y708789D01*
X428099Y708851D01*
X428056Y708916D01*
X428018Y708983D01*
X427983Y709052D01*
X427952Y709122D01*
X427925Y709194D01*
X427902Y709268D01*
X427883Y709343D01*
X427868Y709419D01*
X427858Y709495D01*
X427851Y709572D01*
X427849Y709649D01*
Y722849D01*
X427851Y722926D01*
X427858Y723003D01*
X427868Y723079D01*
X427883Y723155D01*
X427902Y723230D01*
X427925Y723304D01*
X427952Y723376D01*
X427983Y723446D01*
X428018Y723515D01*
X428056Y723582D01*
X428099Y723647D01*
X428144Y723709D01*
X428193Y723768D01*
X428246Y723825D01*
X428301Y723879D01*
X428359Y723930D01*
X428420Y723977D01*
X428484Y724021D01*
X428549Y724061D01*
X428617Y724098D01*
X428687Y724131D01*
X428758Y724160D01*
X428831Y724185D01*
X428906Y724206D01*
X428981Y724223D01*
X429057Y724236D01*
X429134Y724244D01*
X429211Y724248D01*
X429288D01*
X429365Y724244D01*
D02*
G37*
G36*
X424366D02*
X424443Y724236D01*
X424519Y724223D01*
X424594Y724206D01*
X424668Y724185D01*
X424742Y724160D01*
X424813Y724131D01*
X424883Y724098D01*
X424951Y724061D01*
X425016Y724021D01*
X425080Y723977D01*
X425141Y723930D01*
X425199Y723879D01*
X425254Y723825D01*
X425307Y723768D01*
X425355Y723709D01*
X425401Y723647D01*
X425443Y723582D01*
X425482Y723515D01*
X425517Y723446D01*
X425548Y723376D01*
X425575Y723304D01*
X425598Y723230D01*
X425617Y723155D01*
X425632Y723079D01*
X425642Y723003D01*
X425649Y722926D01*
X425651Y722849D01*
Y709649D01*
X425649Y709572D01*
X425642Y709495D01*
X425632Y709419D01*
X425617Y709343D01*
X425598Y709268D01*
X425575Y709194D01*
X425548Y709122D01*
X425517Y709052D01*
X425482Y708983D01*
X425443Y708916D01*
X425401Y708851D01*
X425355Y708789D01*
X425307Y708729D01*
X425254Y708673D01*
X425199Y708619D01*
X425141Y708568D01*
X425080Y708521D01*
X425016Y708477D01*
X424951Y708436D01*
X424883Y708400D01*
X424813Y708367D01*
X424742Y708338D01*
X424668Y708313D01*
X424594Y708292D01*
X424519Y708275D01*
X424443Y708262D01*
X424366Y708254D01*
X424289Y708249D01*
X424212D01*
X424135Y708254D01*
X424058Y708262D01*
X423982Y708275D01*
X423907Y708292D01*
X423833Y708313D01*
X423760Y708338D01*
X423688Y708367D01*
X423618Y708400D01*
X423551Y708436D01*
X423485Y708477D01*
X423422Y708521D01*
X423361Y708568D01*
X423302Y708619D01*
X423247Y708673D01*
X423195Y708729D01*
X423146Y708789D01*
X423100Y708851D01*
X423058Y708916D01*
X423019Y708983D01*
X422984Y709052D01*
X422953Y709122D01*
X422926Y709194D01*
X422903Y709268D01*
X422884Y709343D01*
X422870Y709419D01*
X422859Y709495D01*
X422853Y709572D01*
X422850Y709649D01*
Y722849D01*
X422853Y722926D01*
X422859Y723003D01*
X422870Y723079D01*
X422884Y723155D01*
X422903Y723230D01*
X422926Y723304D01*
X422953Y723376D01*
X422984Y723446D01*
X423019Y723515D01*
X423058Y723582D01*
X423100Y723647D01*
X423146Y723709D01*
X423195Y723768D01*
X423247Y723825D01*
X423302Y723879D01*
X423361Y723930D01*
X423422Y723977D01*
X423485Y724021D01*
X423551Y724061D01*
X423618Y724098D01*
X423688Y724131D01*
X423760Y724160D01*
X423833Y724185D01*
X423907Y724206D01*
X423982Y724223D01*
X424058Y724236D01*
X424135Y724244D01*
X424212Y724248D01*
X424289D01*
X424366Y724244D01*
D02*
G37*
G36*
X419365D02*
X419442Y724236D01*
X419518Y724223D01*
X419593Y724206D01*
X419667Y724185D01*
X419740Y724160D01*
X419812Y724131D01*
X419882Y724098D01*
X419949Y724061D01*
X420015Y724021D01*
X420078Y723977D01*
X420139Y723930D01*
X420197Y723879D01*
X420253Y723825D01*
X420305Y723768D01*
X420354Y723709D01*
X420400Y723647D01*
X420442Y723582D01*
X420481Y723515D01*
X420516Y723446D01*
X420546Y723376D01*
X420573Y723304D01*
X420597Y723230D01*
X420616Y723155D01*
X420630Y723079D01*
X420641Y723003D01*
X420647Y722926D01*
X420649Y722849D01*
Y709649D01*
X420647Y709572D01*
X420641Y709495D01*
X420630Y709419D01*
X420616Y709343D01*
X420597Y709268D01*
X420573Y709194D01*
X420546Y709122D01*
X420516Y709052D01*
X420481Y708983D01*
X420442Y708916D01*
X420400Y708851D01*
X420354Y708789D01*
X420305Y708729D01*
X420253Y708673D01*
X420197Y708619D01*
X420139Y708568D01*
X420078Y708521D01*
X420015Y708477D01*
X419949Y708436D01*
X419882Y708400D01*
X419812Y708367D01*
X419740Y708338D01*
X419667Y708313D01*
X419593Y708292D01*
X419518Y708275D01*
X419442Y708262D01*
X419365Y708254D01*
X419288Y708249D01*
X419211D01*
X419134Y708254D01*
X419057Y708262D01*
X418981Y708275D01*
X418906Y708292D01*
X418831Y708313D01*
X418758Y708338D01*
X418687Y708367D01*
X418617Y708400D01*
X418549Y708436D01*
X418484Y708477D01*
X418420Y708521D01*
X418359Y708568D01*
X418301Y708619D01*
X418246Y708673D01*
X418193Y708729D01*
X418144Y708789D01*
X418099Y708851D01*
X418056Y708916D01*
X418018Y708983D01*
X417983Y709052D01*
X417952Y709122D01*
X417925Y709194D01*
X417902Y709268D01*
X417883Y709343D01*
X417868Y709419D01*
X417858Y709495D01*
X417851Y709572D01*
X417849Y709649D01*
Y722849D01*
X417851Y722926D01*
X417858Y723003D01*
X417868Y723079D01*
X417883Y723155D01*
X417902Y723230D01*
X417925Y723304D01*
X417952Y723376D01*
X417983Y723446D01*
X418018Y723515D01*
X418056Y723582D01*
X418099Y723647D01*
X418144Y723709D01*
X418193Y723768D01*
X418246Y723825D01*
X418301Y723879D01*
X418359Y723930D01*
X418420Y723977D01*
X418484Y724021D01*
X418549Y724061D01*
X418617Y724098D01*
X418687Y724131D01*
X418758Y724160D01*
X418831Y724185D01*
X418906Y724206D01*
X418981Y724223D01*
X419057Y724236D01*
X419134Y724244D01*
X419211Y724248D01*
X419288D01*
X419365Y724244D01*
D02*
G37*
G36*
X414366D02*
X414443Y724236D01*
X414519Y724223D01*
X414594Y724206D01*
X414668Y724185D01*
X414742Y724160D01*
X414813Y724131D01*
X414883Y724098D01*
X414951Y724061D01*
X415016Y724021D01*
X415080Y723977D01*
X415141Y723930D01*
X415199Y723879D01*
X415254Y723825D01*
X415307Y723768D01*
X415355Y723709D01*
X415401Y723647D01*
X415443Y723582D01*
X415482Y723515D01*
X415517Y723446D01*
X415548Y723376D01*
X415575Y723304D01*
X415598Y723230D01*
X415617Y723155D01*
X415632Y723079D01*
X415642Y723003D01*
X415649Y722926D01*
X415651Y722849D01*
Y709649D01*
X415649Y709572D01*
X415642Y709495D01*
X415632Y709419D01*
X415617Y709343D01*
X415598Y709268D01*
X415575Y709194D01*
X415548Y709122D01*
X415517Y709052D01*
X415482Y708983D01*
X415443Y708916D01*
X415401Y708851D01*
X415355Y708789D01*
X415307Y708729D01*
X415254Y708673D01*
X415199Y708619D01*
X415141Y708568D01*
X415080Y708521D01*
X415016Y708477D01*
X414951Y708436D01*
X414883Y708400D01*
X414813Y708367D01*
X414742Y708338D01*
X414668Y708313D01*
X414594Y708292D01*
X414519Y708275D01*
X414443Y708262D01*
X414366Y708254D01*
X414289Y708249D01*
X414212D01*
X414135Y708254D01*
X414058Y708262D01*
X413982Y708275D01*
X413907Y708292D01*
X413833Y708313D01*
X413760Y708338D01*
X413688Y708367D01*
X413618Y708400D01*
X413551Y708436D01*
X413485Y708477D01*
X413422Y708521D01*
X413361Y708568D01*
X413302Y708619D01*
X413247Y708673D01*
X413195Y708729D01*
X413146Y708789D01*
X413100Y708851D01*
X413058Y708916D01*
X413019Y708983D01*
X412984Y709052D01*
X412953Y709122D01*
X412926Y709194D01*
X412903Y709268D01*
X412884Y709343D01*
X412870Y709419D01*
X412859Y709495D01*
X412853Y709572D01*
X412851Y709649D01*
Y722849D01*
X412853Y722926D01*
X412859Y723003D01*
X412870Y723079D01*
X412884Y723155D01*
X412903Y723230D01*
X412926Y723304D01*
X412953Y723376D01*
X412984Y723446D01*
X413019Y723515D01*
X413058Y723582D01*
X413100Y723647D01*
X413146Y723709D01*
X413195Y723768D01*
X413247Y723825D01*
X413302Y723879D01*
X413361Y723930D01*
X413422Y723977D01*
X413485Y724021D01*
X413551Y724061D01*
X413618Y724098D01*
X413688Y724131D01*
X413760Y724160D01*
X413833Y724185D01*
X413907Y724206D01*
X413982Y724223D01*
X414058Y724236D01*
X414135Y724244D01*
X414212Y724248D01*
X414289D01*
X414366Y724244D01*
D02*
G37*
G36*
X409365D02*
X409442Y724236D01*
X409518Y724223D01*
X409593Y724206D01*
X409667Y724185D01*
X409740Y724160D01*
X409812Y724131D01*
X409882Y724098D01*
X409949Y724061D01*
X410015Y724021D01*
X410078Y723977D01*
X410139Y723930D01*
X410197Y723879D01*
X410253Y723825D01*
X410305Y723768D01*
X410354Y723709D01*
X410400Y723647D01*
X410442Y723582D01*
X410481Y723515D01*
X410516Y723446D01*
X410546Y723376D01*
X410573Y723304D01*
X410597Y723230D01*
X410616Y723155D01*
X410630Y723079D01*
X410641Y723003D01*
X410647Y722926D01*
X410649Y722849D01*
Y709649D01*
X410647Y709572D01*
X410641Y709495D01*
X410630Y709419D01*
X410616Y709343D01*
X410597Y709268D01*
X410573Y709194D01*
X410546Y709122D01*
X410516Y709052D01*
X410481Y708983D01*
X410442Y708916D01*
X410400Y708851D01*
X410354Y708789D01*
X410305Y708729D01*
X410253Y708673D01*
X410197Y708619D01*
X410139Y708568D01*
X410078Y708521D01*
X410015Y708477D01*
X409949Y708436D01*
X409882Y708400D01*
X409812Y708367D01*
X409740Y708338D01*
X409667Y708313D01*
X409593Y708292D01*
X409518Y708275D01*
X409442Y708262D01*
X409365Y708254D01*
X409288Y708249D01*
X409211D01*
X409134Y708254D01*
X409057Y708262D01*
X408981Y708275D01*
X408906Y708292D01*
X408831Y708313D01*
X408758Y708338D01*
X408687Y708367D01*
X408617Y708400D01*
X408549Y708436D01*
X408484Y708477D01*
X408420Y708521D01*
X408359Y708568D01*
X408301Y708619D01*
X408246Y708673D01*
X408194Y708729D01*
X408144Y708789D01*
X408099Y708851D01*
X408057Y708916D01*
X408018Y708983D01*
X407983Y709052D01*
X407952Y709122D01*
X407925Y709194D01*
X407902Y709268D01*
X407883Y709343D01*
X407868Y709419D01*
X407858Y709495D01*
X407851Y709572D01*
X407849Y709649D01*
Y722849D01*
X407851Y722926D01*
X407858Y723003D01*
X407868Y723079D01*
X407883Y723155D01*
X407902Y723230D01*
X407925Y723304D01*
X407952Y723376D01*
X407983Y723446D01*
X408018Y723515D01*
X408057Y723582D01*
X408099Y723647D01*
X408144Y723709D01*
X408194Y723768D01*
X408246Y723825D01*
X408301Y723879D01*
X408359Y723930D01*
X408420Y723977D01*
X408484Y724021D01*
X408549Y724061D01*
X408617Y724098D01*
X408687Y724131D01*
X408758Y724160D01*
X408831Y724185D01*
X408906Y724206D01*
X408981Y724223D01*
X409057Y724236D01*
X409134Y724244D01*
X409211Y724248D01*
X409288D01*
X409365Y724244D01*
D02*
G37*
G36*
X404366D02*
X404443Y724236D01*
X404519Y724223D01*
X404594Y724206D01*
X404669Y724185D01*
X404742Y724160D01*
X404813Y724131D01*
X404883Y724098D01*
X404951Y724061D01*
X405016Y724021D01*
X405080Y723977D01*
X405141Y723930D01*
X405199Y723879D01*
X405254Y723825D01*
X405307Y723768D01*
X405355Y723709D01*
X405401Y723647D01*
X405443Y723582D01*
X405482Y723515D01*
X405517Y723446D01*
X405548Y723376D01*
X405575Y723304D01*
X405598Y723230D01*
X405617Y723155D01*
X405632Y723079D01*
X405642Y723003D01*
X405649Y722926D01*
X405651Y722849D01*
Y709649D01*
X405649Y709572D01*
X405642Y709495D01*
X405632Y709419D01*
X405617Y709343D01*
X405598Y709268D01*
X405575Y709194D01*
X405548Y709122D01*
X405517Y709052D01*
X405482Y708983D01*
X405443Y708916D01*
X405401Y708851D01*
X405355Y708789D01*
X405307Y708729D01*
X405254Y708673D01*
X405199Y708619D01*
X405141Y708568D01*
X405080Y708521D01*
X405016Y708477D01*
X404951Y708436D01*
X404883Y708400D01*
X404813Y708367D01*
X404742Y708338D01*
X404669Y708313D01*
X404594Y708292D01*
X404519Y708275D01*
X404443Y708262D01*
X404366Y708254D01*
X404289Y708249D01*
X404212D01*
X404135Y708254D01*
X404058Y708262D01*
X403982Y708275D01*
X403907Y708292D01*
X403833Y708313D01*
X403760Y708338D01*
X403688Y708367D01*
X403618Y708400D01*
X403551Y708436D01*
X403485Y708477D01*
X403422Y708521D01*
X403361Y708568D01*
X403302Y708619D01*
X403247Y708673D01*
X403195Y708729D01*
X403146Y708789D01*
X403100Y708851D01*
X403058Y708916D01*
X403019Y708983D01*
X402984Y709052D01*
X402953Y709122D01*
X402926Y709194D01*
X402903Y709268D01*
X402884Y709343D01*
X402870Y709419D01*
X402859Y709495D01*
X402853Y709572D01*
X402851Y709649D01*
Y722849D01*
X402853Y722926D01*
X402859Y723003D01*
X402870Y723079D01*
X402884Y723155D01*
X402903Y723230D01*
X402926Y723304D01*
X402953Y723376D01*
X402984Y723446D01*
X403019Y723515D01*
X403058Y723582D01*
X403100Y723647D01*
X403146Y723709D01*
X403195Y723768D01*
X403247Y723825D01*
X403302Y723879D01*
X403361Y723930D01*
X403422Y723977D01*
X403485Y724021D01*
X403551Y724061D01*
X403618Y724098D01*
X403688Y724131D01*
X403760Y724160D01*
X403833Y724185D01*
X403907Y724206D01*
X403982Y724223D01*
X404058Y724236D01*
X404135Y724244D01*
X404212Y724248D01*
X404289D01*
X404366Y724244D01*
D02*
G37*
G36*
X399365D02*
X399442Y724236D01*
X399518Y724223D01*
X399593Y724206D01*
X399667Y724185D01*
X399740Y724160D01*
X399812Y724131D01*
X399882Y724098D01*
X399949Y724061D01*
X400015Y724021D01*
X400078Y723977D01*
X400139Y723930D01*
X400197Y723879D01*
X400253Y723825D01*
X400305Y723768D01*
X400354Y723709D01*
X400400Y723647D01*
X400442Y723582D01*
X400481Y723515D01*
X400516Y723446D01*
X400546Y723376D01*
X400574Y723304D01*
X400597Y723230D01*
X400616Y723155D01*
X400630Y723079D01*
X400641Y723003D01*
X400647Y722926D01*
X400649Y722849D01*
Y709649D01*
X400647Y709572D01*
X400641Y709495D01*
X400630Y709419D01*
X400616Y709343D01*
X400597Y709268D01*
X400574Y709194D01*
X400546Y709122D01*
X400516Y709052D01*
X400481Y708983D01*
X400442Y708916D01*
X400400Y708851D01*
X400354Y708789D01*
X400305Y708729D01*
X400253Y708673D01*
X400197Y708619D01*
X400139Y708568D01*
X400078Y708521D01*
X400015Y708477D01*
X399949Y708436D01*
X399882Y708400D01*
X399812Y708367D01*
X399740Y708338D01*
X399667Y708313D01*
X399593Y708292D01*
X399518Y708275D01*
X399442Y708262D01*
X399365Y708254D01*
X399288Y708249D01*
X399211D01*
X399134Y708254D01*
X399057Y708262D01*
X398981Y708275D01*
X398906Y708292D01*
X398831Y708313D01*
X398758Y708338D01*
X398687Y708367D01*
X398617Y708400D01*
X398549Y708436D01*
X398484Y708477D01*
X398420Y708521D01*
X398359Y708568D01*
X398301Y708619D01*
X398246Y708673D01*
X398194Y708729D01*
X398144Y708789D01*
X398099Y708851D01*
X398057Y708916D01*
X398018Y708983D01*
X397983Y709052D01*
X397952Y709122D01*
X397925Y709194D01*
X397902Y709268D01*
X397883Y709343D01*
X397868Y709419D01*
X397858Y709495D01*
X397851Y709572D01*
X397849Y709649D01*
Y722849D01*
X397851Y722926D01*
X397858Y723003D01*
X397868Y723079D01*
X397883Y723155D01*
X397902Y723230D01*
X397925Y723304D01*
X397952Y723376D01*
X397983Y723446D01*
X398018Y723515D01*
X398057Y723582D01*
X398099Y723647D01*
X398144Y723709D01*
X398194Y723768D01*
X398246Y723825D01*
X398301Y723879D01*
X398359Y723930D01*
X398420Y723977D01*
X398484Y724021D01*
X398549Y724061D01*
X398617Y724098D01*
X398687Y724131D01*
X398758Y724160D01*
X398831Y724185D01*
X398906Y724206D01*
X398981Y724223D01*
X399057Y724236D01*
X399134Y724244D01*
X399211Y724248D01*
X399288D01*
X399365Y724244D01*
D02*
G37*
G36*
X394366D02*
X394443Y724236D01*
X394519Y724223D01*
X394594Y724206D01*
X394669Y724185D01*
X394742Y724160D01*
X394813Y724131D01*
X394883Y724098D01*
X394951Y724061D01*
X395017Y724021D01*
X395080Y723977D01*
X395141Y723930D01*
X395199Y723879D01*
X395254Y723825D01*
X395307Y723768D01*
X395355Y723709D01*
X395401Y723647D01*
X395443Y723582D01*
X395482Y723515D01*
X395517Y723446D01*
X395548Y723376D01*
X395575Y723304D01*
X395598Y723230D01*
X395617Y723155D01*
X395632Y723079D01*
X395642Y723003D01*
X395649Y722926D01*
X395651Y722849D01*
Y709649D01*
X395649Y709572D01*
X395642Y709495D01*
X395632Y709419D01*
X395617Y709343D01*
X395598Y709268D01*
X395575Y709194D01*
X395548Y709122D01*
X395517Y709052D01*
X395482Y708983D01*
X395443Y708916D01*
X395401Y708851D01*
X395355Y708789D01*
X395307Y708729D01*
X395254Y708673D01*
X395199Y708619D01*
X395141Y708568D01*
X395080Y708521D01*
X395017Y708477D01*
X394951Y708436D01*
X394883Y708400D01*
X394813Y708367D01*
X394742Y708338D01*
X394669Y708313D01*
X394594Y708292D01*
X394519Y708275D01*
X394443Y708262D01*
X394366Y708254D01*
X394289Y708249D01*
X394212D01*
X394135Y708254D01*
X394058Y708262D01*
X393982Y708275D01*
X393907Y708292D01*
X393833Y708313D01*
X393760Y708338D01*
X393688Y708367D01*
X393618Y708400D01*
X393551Y708436D01*
X393485Y708477D01*
X393422Y708521D01*
X393361Y708568D01*
X393302Y708619D01*
X393247Y708673D01*
X393195Y708729D01*
X393146Y708789D01*
X393100Y708851D01*
X393058Y708916D01*
X393019Y708983D01*
X392985Y709052D01*
X392953Y709122D01*
X392926Y709194D01*
X392903Y709268D01*
X392884Y709343D01*
X392870Y709419D01*
X392859Y709495D01*
X392853Y709572D01*
X392851Y709649D01*
Y722849D01*
X392853Y722926D01*
X392859Y723003D01*
X392870Y723079D01*
X392884Y723155D01*
X392903Y723230D01*
X392926Y723304D01*
X392953Y723376D01*
X392985Y723446D01*
X393019Y723515D01*
X393058Y723582D01*
X393100Y723647D01*
X393146Y723709D01*
X393195Y723768D01*
X393247Y723825D01*
X393302Y723879D01*
X393361Y723930D01*
X393422Y723977D01*
X393485Y724021D01*
X393551Y724061D01*
X393618Y724098D01*
X393688Y724131D01*
X393760Y724160D01*
X393833Y724185D01*
X393907Y724206D01*
X393982Y724223D01*
X394058Y724236D01*
X394135Y724244D01*
X394212Y724248D01*
X394289D01*
X394366Y724244D01*
D02*
G37*
G36*
X389365D02*
X389442Y724236D01*
X389518Y724223D01*
X389593Y724206D01*
X389667Y724185D01*
X389740Y724160D01*
X389812Y724131D01*
X389882Y724098D01*
X389949Y724061D01*
X390015Y724021D01*
X390078Y723977D01*
X390139Y723930D01*
X390198Y723879D01*
X390253Y723825D01*
X390305Y723768D01*
X390354Y723709D01*
X390400Y723647D01*
X390442Y723582D01*
X390481Y723515D01*
X390516Y723446D01*
X390547Y723376D01*
X390574Y723304D01*
X390597Y723230D01*
X390616Y723155D01*
X390630Y723079D01*
X390641Y723003D01*
X390647Y722926D01*
X390649Y722849D01*
Y709649D01*
X390647Y709572D01*
X390641Y709495D01*
X390630Y709419D01*
X390616Y709343D01*
X390597Y709268D01*
X390574Y709194D01*
X390547Y709122D01*
X390516Y709052D01*
X390481Y708983D01*
X390442Y708916D01*
X390400Y708851D01*
X390354Y708789D01*
X390305Y708729D01*
X390253Y708673D01*
X390198Y708619D01*
X390139Y708568D01*
X390078Y708521D01*
X390015Y708477D01*
X389949Y708436D01*
X389882Y708400D01*
X389812Y708367D01*
X389740Y708338D01*
X389667Y708313D01*
X389593Y708292D01*
X389518Y708275D01*
X389442Y708262D01*
X389365Y708254D01*
X389288Y708249D01*
X389211D01*
X389134Y708254D01*
X389057Y708262D01*
X388981Y708275D01*
X388906Y708292D01*
X388832Y708313D01*
X388758Y708338D01*
X388687Y708367D01*
X388617Y708400D01*
X388549Y708436D01*
X388484Y708477D01*
X388420Y708521D01*
X388359Y708568D01*
X388301Y708619D01*
X388246Y708673D01*
X388194Y708729D01*
X388144Y708789D01*
X388099Y708851D01*
X388057Y708916D01*
X388018Y708983D01*
X387983Y709052D01*
X387952Y709122D01*
X387925Y709194D01*
X387902Y709268D01*
X387883Y709343D01*
X387868Y709419D01*
X387858Y709495D01*
X387851Y709572D01*
X387849Y709649D01*
Y722849D01*
X387851Y722926D01*
X387858Y723003D01*
X387868Y723079D01*
X387883Y723155D01*
X387902Y723230D01*
X387925Y723304D01*
X387952Y723376D01*
X387983Y723446D01*
X388018Y723515D01*
X388057Y723582D01*
X388099Y723647D01*
X388144Y723709D01*
X388194Y723768D01*
X388246Y723825D01*
X388301Y723879D01*
X388359Y723930D01*
X388420Y723977D01*
X388484Y724021D01*
X388549Y724061D01*
X388617Y724098D01*
X388687Y724131D01*
X388758Y724160D01*
X388832Y724185D01*
X388906Y724206D01*
X388981Y724223D01*
X389057Y724236D01*
X389134Y724244D01*
X389211Y724248D01*
X389288D01*
X389365Y724244D01*
D02*
G37*
G36*
X384366D02*
X384443Y724236D01*
X384519Y724223D01*
X384594Y724206D01*
X384669Y724185D01*
X384742Y724160D01*
X384813Y724131D01*
X384883Y724098D01*
X384951Y724061D01*
X385017Y724021D01*
X385080Y723977D01*
X385141Y723930D01*
X385199Y723879D01*
X385254Y723825D01*
X385307Y723768D01*
X385356Y723709D01*
X385401Y723647D01*
X385443Y723582D01*
X385482Y723515D01*
X385517Y723446D01*
X385548Y723376D01*
X385575Y723304D01*
X385598Y723230D01*
X385617Y723155D01*
X385632Y723079D01*
X385642Y723003D01*
X385649Y722926D01*
X385651Y722849D01*
Y709649D01*
X385649Y709572D01*
X385642Y709495D01*
X385632Y709419D01*
X385617Y709343D01*
X385598Y709268D01*
X385575Y709194D01*
X385548Y709122D01*
X385517Y709052D01*
X385482Y708983D01*
X385443Y708916D01*
X385401Y708851D01*
X385356Y708789D01*
X385307Y708729D01*
X385254Y708673D01*
X385199Y708619D01*
X385141Y708568D01*
X385080Y708521D01*
X385017Y708477D01*
X384951Y708436D01*
X384883Y708400D01*
X384813Y708367D01*
X384742Y708338D01*
X384669Y708313D01*
X384594Y708292D01*
X384519Y708275D01*
X384443Y708262D01*
X384366Y708254D01*
X384289Y708249D01*
X384212D01*
X384135Y708254D01*
X384058Y708262D01*
X383982Y708275D01*
X383907Y708292D01*
X383833Y708313D01*
X383760Y708338D01*
X383688Y708367D01*
X383619Y708400D01*
X383551Y708436D01*
X383485Y708477D01*
X383422Y708521D01*
X383361Y708568D01*
X383302Y708619D01*
X383247Y708673D01*
X383195Y708729D01*
X383146Y708789D01*
X383100Y708851D01*
X383058Y708916D01*
X383019Y708983D01*
X382985Y709052D01*
X382953Y709122D01*
X382927Y709194D01*
X382904Y709268D01*
X382884Y709343D01*
X382870Y709419D01*
X382859Y709495D01*
X382853Y709572D01*
X382851Y709649D01*
Y722849D01*
X382853Y722926D01*
X382859Y723003D01*
X382870Y723079D01*
X382884Y723155D01*
X382904Y723230D01*
X382927Y723304D01*
X382953Y723376D01*
X382985Y723446D01*
X383019Y723515D01*
X383058Y723582D01*
X383100Y723647D01*
X383146Y723709D01*
X383195Y723768D01*
X383247Y723825D01*
X383302Y723879D01*
X383361Y723930D01*
X383422Y723977D01*
X383485Y724021D01*
X383551Y724061D01*
X383619Y724098D01*
X383688Y724131D01*
X383760Y724160D01*
X383833Y724185D01*
X383907Y724206D01*
X383982Y724223D01*
X384058Y724236D01*
X384135Y724244D01*
X384212Y724248D01*
X384289D01*
X384366Y724244D01*
D02*
G37*
G36*
X379365D02*
X379442Y724236D01*
X379518Y724223D01*
X379593Y724206D01*
X379667Y724185D01*
X379740Y724160D01*
X379812Y724131D01*
X379882Y724098D01*
X379949Y724061D01*
X380015Y724021D01*
X380079Y723977D01*
X380139Y723930D01*
X380198Y723879D01*
X380253Y723825D01*
X380305Y723768D01*
X380354Y723709D01*
X380400Y723647D01*
X380442Y723582D01*
X380481Y723515D01*
X380516Y723446D01*
X380547Y723376D01*
X380574Y723304D01*
X380597Y723230D01*
X380616Y723155D01*
X380630Y723079D01*
X380641Y723003D01*
X380647Y722926D01*
X380649Y722849D01*
Y709649D01*
X380647Y709572D01*
X380641Y709495D01*
X380630Y709419D01*
X380616Y709343D01*
X380597Y709268D01*
X380574Y709194D01*
X380547Y709122D01*
X380516Y709052D01*
X380481Y708983D01*
X380442Y708916D01*
X380400Y708851D01*
X380354Y708789D01*
X380305Y708729D01*
X380253Y708673D01*
X380198Y708619D01*
X380139Y708568D01*
X380079Y708521D01*
X380015Y708477D01*
X379949Y708436D01*
X379882Y708400D01*
X379812Y708367D01*
X379740Y708338D01*
X379667Y708313D01*
X379593Y708292D01*
X379518Y708275D01*
X379442Y708262D01*
X379365Y708254D01*
X379288Y708249D01*
X379211D01*
X379134Y708254D01*
X379057Y708262D01*
X378981Y708275D01*
X378906Y708292D01*
X378832Y708313D01*
X378758Y708338D01*
X378687Y708367D01*
X378617Y708400D01*
X378549Y708436D01*
X378484Y708477D01*
X378420Y708521D01*
X378359Y708568D01*
X378301Y708619D01*
X378246Y708673D01*
X378194Y708729D01*
X378144Y708789D01*
X378099Y708851D01*
X378057Y708916D01*
X378018Y708983D01*
X377983Y709052D01*
X377952Y709122D01*
X377925Y709194D01*
X377902Y709268D01*
X377883Y709343D01*
X377868Y709419D01*
X377858Y709495D01*
X377851Y709572D01*
X377849Y709649D01*
Y722849D01*
X377851Y722926D01*
X377858Y723003D01*
X377868Y723079D01*
X377883Y723155D01*
X377902Y723230D01*
X377925Y723304D01*
X377952Y723376D01*
X377983Y723446D01*
X378018Y723515D01*
X378057Y723582D01*
X378099Y723647D01*
X378144Y723709D01*
X378194Y723768D01*
X378246Y723825D01*
X378301Y723879D01*
X378359Y723930D01*
X378420Y723977D01*
X378484Y724021D01*
X378549Y724061D01*
X378617Y724098D01*
X378687Y724131D01*
X378758Y724160D01*
X378832Y724185D01*
X378906Y724206D01*
X378981Y724223D01*
X379057Y724236D01*
X379134Y724244D01*
X379211Y724248D01*
X379288D01*
X379365Y724244D01*
D02*
G37*
G36*
X455426Y703149D02*
X455503Y703142D01*
X455579Y703132D01*
X455655Y703117D01*
X455730Y703098D01*
X455803Y703075D01*
X455876Y703048D01*
X455946Y703017D01*
X456015Y702982D01*
X456082Y702943D01*
X456147Y702901D01*
X456209Y702856D01*
X456268Y702806D01*
X456325Y702754D01*
X456379Y702699D01*
X456430Y702641D01*
X456477Y702580D01*
X456521Y702516D01*
X456561Y702451D01*
X456598Y702383D01*
X456631Y702313D01*
X456660Y702242D01*
X456685Y702168D01*
X456706Y702094D01*
X456723Y702019D01*
X456736Y701943D01*
X456744Y701866D01*
X456748Y701789D01*
Y701712D01*
X456744Y701635D01*
X456736Y701558D01*
X456723Y701482D01*
X456706Y701407D01*
X456685Y701333D01*
X456660Y701260D01*
X456631Y701188D01*
X456598Y701118D01*
X456561Y701051D01*
X456521Y700985D01*
X456477Y700921D01*
X456430Y700861D01*
X456379Y700802D01*
X456325Y700747D01*
X456268Y700695D01*
X456209Y700646D01*
X456147Y700600D01*
X456082Y700558D01*
X456015Y700519D01*
X455946Y700484D01*
X455876Y700453D01*
X455803Y700426D01*
X455730Y700403D01*
X455655Y700384D01*
X455579Y700370D01*
X455503Y700359D01*
X455426Y700353D01*
X455349Y700350D01*
X442149D01*
X442072Y700353D01*
X441995Y700359D01*
X441919Y700370D01*
X441843Y700384D01*
X441768Y700403D01*
X441694Y700426D01*
X441622Y700453D01*
X441552Y700484D01*
X441483Y700519D01*
X441416Y700558D01*
X441351Y700600D01*
X441289Y700646D01*
X441230Y700695D01*
X441173Y700747D01*
X441119Y700802D01*
X441068Y700861D01*
X441021Y700921D01*
X440977Y700985D01*
X440936Y701051D01*
X440900Y701118D01*
X440867Y701188D01*
X440838Y701260D01*
X440813Y701333D01*
X440792Y701407D01*
X440775Y701482D01*
X440762Y701558D01*
X440754Y701635D01*
X440749Y701712D01*
Y701789D01*
X440754Y701866D01*
X440762Y701943D01*
X440775Y702019D01*
X440792Y702094D01*
X440813Y702168D01*
X440838Y702242D01*
X440867Y702313D01*
X440900Y702383D01*
X440936Y702451D01*
X440977Y702516D01*
X441021Y702580D01*
X441068Y702641D01*
X441119Y702699D01*
X441173Y702754D01*
X441230Y702806D01*
X441289Y702856D01*
X441351Y702901D01*
X441416Y702943D01*
X441483Y702982D01*
X441552Y703017D01*
X441622Y703048D01*
X441694Y703075D01*
X441768Y703098D01*
X441843Y703117D01*
X441919Y703132D01*
X441995Y703142D01*
X442072Y703149D01*
X442149Y703151D01*
X455349D01*
X455426Y703149D01*
D02*
G37*
G36*
X371428D02*
X371505Y703142D01*
X371581Y703132D01*
X371657Y703117D01*
X371732Y703098D01*
X371806Y703075D01*
X371878Y703048D01*
X371948Y703017D01*
X372017Y702982D01*
X372084Y702943D01*
X372149Y702901D01*
X372211Y702856D01*
X372271Y702806D01*
X372327Y702754D01*
X372381Y702699D01*
X372432Y702641D01*
X372479Y702580D01*
X372523Y702516D01*
X372564Y702451D01*
X372600Y702383D01*
X372633Y702313D01*
X372662Y702242D01*
X372687Y702168D01*
X372708Y702094D01*
X372725Y702019D01*
X372738Y701943D01*
X372746Y701866D01*
X372751Y701789D01*
Y701712D01*
X372746Y701635D01*
X372738Y701558D01*
X372725Y701482D01*
X372708Y701407D01*
X372687Y701333D01*
X372662Y701260D01*
X372633Y701188D01*
X372600Y701118D01*
X372564Y701051D01*
X372523Y700985D01*
X372479Y700921D01*
X372432Y700861D01*
X372381Y700802D01*
X372327Y700747D01*
X372271Y700695D01*
X372211Y700646D01*
X372149Y700600D01*
X372084Y700558D01*
X372017Y700519D01*
X371948Y700484D01*
X371878Y700453D01*
X371806Y700426D01*
X371732Y700403D01*
X371657Y700384D01*
X371581Y700370D01*
X371505Y700359D01*
X371428Y700353D01*
X371351Y700350D01*
X358151D01*
X358074Y700353D01*
X357997Y700359D01*
X357921Y700370D01*
X357845Y700384D01*
X357770Y700403D01*
X357696Y700426D01*
X357624Y700453D01*
X357554Y700484D01*
X357485Y700519D01*
X357418Y700558D01*
X357353Y700600D01*
X357291Y700646D01*
X357232Y700695D01*
X357175Y700747D01*
X357121Y700802D01*
X357070Y700861D01*
X357023Y700921D01*
X356979Y700985D01*
X356939Y701051D01*
X356902Y701118D01*
X356869Y701188D01*
X356840Y701260D01*
X356815Y701333D01*
X356794Y701407D01*
X356777Y701482D01*
X356764Y701558D01*
X356756Y701635D01*
X356752Y701712D01*
Y701789D01*
X356756Y701866D01*
X356764Y701943D01*
X356777Y702019D01*
X356794Y702094D01*
X356815Y702168D01*
X356840Y702242D01*
X356869Y702313D01*
X356902Y702383D01*
X356939Y702451D01*
X356979Y702516D01*
X357023Y702580D01*
X357070Y702641D01*
X357121Y702699D01*
X357175Y702754D01*
X357232Y702806D01*
X357291Y702856D01*
X357353Y702901D01*
X357418Y702943D01*
X357485Y702982D01*
X357554Y703017D01*
X357624Y703048D01*
X357696Y703075D01*
X357770Y703098D01*
X357845Y703117D01*
X357921Y703132D01*
X357997Y703142D01*
X358074Y703149D01*
X358151Y703151D01*
X371351D01*
X371428Y703149D01*
D02*
G37*
G36*
X455426Y698147D02*
X455503Y698141D01*
X455579Y698130D01*
X455655Y698116D01*
X455730Y698096D01*
X455803Y698073D01*
X455876Y698046D01*
X455946Y698016D01*
X456015Y697981D01*
X456082Y697942D01*
X456147Y697900D01*
X456209Y697854D01*
X456268Y697805D01*
X456325Y697753D01*
X456379Y697698D01*
X456430Y697639D01*
X456477Y697578D01*
X456521Y697515D01*
X456561Y697449D01*
X456598Y697382D01*
X456631Y697312D01*
X456660Y697240D01*
X456685Y697167D01*
X456706Y697093D01*
X456723Y697018D01*
X456736Y696942D01*
X456744Y696865D01*
X456748Y696788D01*
Y696711D01*
X456744Y696634D01*
X456736Y696557D01*
X456723Y696481D01*
X456706Y696406D01*
X456685Y696331D01*
X456660Y696258D01*
X456631Y696187D01*
X456598Y696117D01*
X456561Y696049D01*
X456521Y695984D01*
X456477Y695920D01*
X456430Y695859D01*
X456379Y695801D01*
X456325Y695746D01*
X456268Y695694D01*
X456209Y695644D01*
X456147Y695599D01*
X456082Y695556D01*
X456015Y695518D01*
X455946Y695483D01*
X455876Y695452D01*
X455803Y695425D01*
X455730Y695402D01*
X455655Y695383D01*
X455579Y695368D01*
X455503Y695358D01*
X455426Y695351D01*
X455349Y695349D01*
X442149D01*
X442072Y695351D01*
X441995Y695358D01*
X441919Y695368D01*
X441843Y695383D01*
X441768Y695402D01*
X441694Y695425D01*
X441622Y695452D01*
X441552Y695483D01*
X441483Y695518D01*
X441416Y695556D01*
X441351Y695599D01*
X441289Y695644D01*
X441230Y695694D01*
X441173Y695746D01*
X441119Y695801D01*
X441068Y695859D01*
X441021Y695920D01*
X440977Y695984D01*
X440936Y696049D01*
X440900Y696117D01*
X440867Y696187D01*
X440838Y696258D01*
X440813Y696331D01*
X440792Y696406D01*
X440775Y696481D01*
X440762Y696557D01*
X440754Y696634D01*
X440749Y696711D01*
Y696788D01*
X440754Y696865D01*
X440762Y696942D01*
X440775Y697018D01*
X440792Y697093D01*
X440813Y697167D01*
X440838Y697240D01*
X440867Y697312D01*
X440900Y697382D01*
X440936Y697449D01*
X440977Y697515D01*
X441021Y697578D01*
X441068Y697639D01*
X441119Y697698D01*
X441173Y697753D01*
X441230Y697805D01*
X441289Y697854D01*
X441351Y697900D01*
X441416Y697942D01*
X441483Y697981D01*
X441552Y698016D01*
X441622Y698046D01*
X441694Y698073D01*
X441768Y698096D01*
X441843Y698116D01*
X441919Y698130D01*
X441995Y698141D01*
X442072Y698147D01*
X442149Y698149D01*
X455349D01*
X455426Y698147D01*
D02*
G37*
G36*
X371428D02*
X371505Y698141D01*
X371581Y698130D01*
X371657Y698116D01*
X371732Y698096D01*
X371806Y698073D01*
X371878Y698046D01*
X371948Y698016D01*
X372017Y697981D01*
X372084Y697942D01*
X372149Y697900D01*
X372211Y697854D01*
X372271Y697805D01*
X372327Y697753D01*
X372381Y697698D01*
X372432Y697639D01*
X372479Y697578D01*
X372523Y697515D01*
X372564Y697449D01*
X372600Y697382D01*
X372633Y697312D01*
X372662Y697240D01*
X372687Y697167D01*
X372708Y697093D01*
X372725Y697018D01*
X372738Y696942D01*
X372746Y696865D01*
X372751Y696788D01*
Y696711D01*
X372746Y696634D01*
X372738Y696557D01*
X372725Y696481D01*
X372708Y696406D01*
X372687Y696331D01*
X372662Y696258D01*
X372633Y696187D01*
X372600Y696117D01*
X372564Y696049D01*
X372523Y695984D01*
X372479Y695920D01*
X372432Y695859D01*
X372381Y695801D01*
X372327Y695746D01*
X372271Y695694D01*
X372211Y695644D01*
X372149Y695599D01*
X372084Y695556D01*
X372017Y695518D01*
X371948Y695483D01*
X371878Y695452D01*
X371806Y695425D01*
X371732Y695402D01*
X371657Y695383D01*
X371581Y695368D01*
X371505Y695358D01*
X371428Y695351D01*
X371351Y695349D01*
X358151D01*
X358074Y695351D01*
X357997Y695358D01*
X357921Y695368D01*
X357845Y695383D01*
X357770Y695402D01*
X357696Y695425D01*
X357624Y695452D01*
X357554Y695483D01*
X357485Y695518D01*
X357418Y695556D01*
X357353Y695599D01*
X357291Y695644D01*
X357232Y695694D01*
X357175Y695746D01*
X357121Y695801D01*
X357070Y695859D01*
X357023Y695920D01*
X356979Y695984D01*
X356939Y696049D01*
X356902Y696117D01*
X356869Y696187D01*
X356840Y696258D01*
X356815Y696331D01*
X356794Y696406D01*
X356777Y696481D01*
X356764Y696557D01*
X356756Y696634D01*
X356752Y696711D01*
Y696788D01*
X356756Y696865D01*
X356764Y696942D01*
X356777Y697018D01*
X356794Y697093D01*
X356815Y697167D01*
X356840Y697240D01*
X356869Y697312D01*
X356902Y697382D01*
X356939Y697449D01*
X356979Y697515D01*
X357023Y697578D01*
X357070Y697639D01*
X357121Y697698D01*
X357175Y697753D01*
X357232Y697805D01*
X357291Y697854D01*
X357353Y697900D01*
X357418Y697942D01*
X357485Y697981D01*
X357554Y698016D01*
X357624Y698046D01*
X357696Y698073D01*
X357770Y698096D01*
X357845Y698116D01*
X357921Y698130D01*
X357997Y698141D01*
X358074Y698147D01*
X358151Y698149D01*
X371351D01*
X371428Y698147D01*
D02*
G37*
G36*
X455426Y693149D02*
X455503Y693142D01*
X455579Y693132D01*
X455655Y693117D01*
X455730Y693098D01*
X455803Y693075D01*
X455876Y693048D01*
X455946Y693017D01*
X456015Y692982D01*
X456082Y692943D01*
X456147Y692901D01*
X456209Y692856D01*
X456268Y692806D01*
X456325Y692754D01*
X456379Y692699D01*
X456430Y692641D01*
X456477Y692580D01*
X456521Y692516D01*
X456561Y692451D01*
X456598Y692383D01*
X456631Y692313D01*
X456660Y692242D01*
X456685Y692168D01*
X456706Y692094D01*
X456723Y692019D01*
X456736Y691943D01*
X456744Y691866D01*
X456748Y691789D01*
Y691712D01*
X456744Y691635D01*
X456736Y691558D01*
X456723Y691482D01*
X456706Y691407D01*
X456685Y691333D01*
X456660Y691260D01*
X456631Y691188D01*
X456598Y691118D01*
X456561Y691051D01*
X456521Y690985D01*
X456477Y690922D01*
X456430Y690861D01*
X456379Y690802D01*
X456325Y690747D01*
X456268Y690695D01*
X456209Y690646D01*
X456147Y690600D01*
X456082Y690558D01*
X456015Y690519D01*
X455946Y690484D01*
X455876Y690453D01*
X455803Y690426D01*
X455730Y690403D01*
X455655Y690384D01*
X455579Y690370D01*
X455503Y690359D01*
X455426Y690353D01*
X455349Y690351D01*
X442149D01*
X442072Y690353D01*
X441995Y690359D01*
X441919Y690370D01*
X441843Y690384D01*
X441768Y690403D01*
X441694Y690426D01*
X441622Y690453D01*
X441552Y690484D01*
X441483Y690519D01*
X441416Y690558D01*
X441351Y690600D01*
X441289Y690646D01*
X441230Y690695D01*
X441173Y690747D01*
X441119Y690802D01*
X441068Y690861D01*
X441021Y690922D01*
X440977Y690985D01*
X440936Y691051D01*
X440900Y691118D01*
X440867Y691188D01*
X440838Y691260D01*
X440813Y691333D01*
X440792Y691407D01*
X440775Y691482D01*
X440762Y691558D01*
X440754Y691635D01*
X440749Y691712D01*
Y691789D01*
X440754Y691866D01*
X440762Y691943D01*
X440775Y692019D01*
X440792Y692094D01*
X440813Y692168D01*
X440838Y692242D01*
X440867Y692313D01*
X440900Y692383D01*
X440936Y692451D01*
X440977Y692516D01*
X441021Y692580D01*
X441068Y692641D01*
X441119Y692699D01*
X441173Y692754D01*
X441230Y692806D01*
X441289Y692856D01*
X441351Y692901D01*
X441416Y692943D01*
X441483Y692982D01*
X441552Y693017D01*
X441622Y693048D01*
X441694Y693075D01*
X441768Y693098D01*
X441843Y693117D01*
X441919Y693132D01*
X441995Y693142D01*
X442072Y693149D01*
X442149Y693151D01*
X455349D01*
X455426Y693149D01*
D02*
G37*
G36*
X371428D02*
X371505Y693142D01*
X371581Y693132D01*
X371657Y693117D01*
X371732Y693098D01*
X371806Y693075D01*
X371878Y693048D01*
X371948Y693017D01*
X372017Y692982D01*
X372084Y692943D01*
X372149Y692901D01*
X372211Y692856D01*
X372271Y692806D01*
X372327Y692754D01*
X372381Y692699D01*
X372432Y692641D01*
X372479Y692580D01*
X372523Y692516D01*
X372564Y692451D01*
X372600Y692383D01*
X372633Y692313D01*
X372662Y692242D01*
X372687Y692168D01*
X372708Y692094D01*
X372725Y692019D01*
X372738Y691943D01*
X372746Y691866D01*
X372751Y691789D01*
Y691712D01*
X372746Y691635D01*
X372738Y691558D01*
X372725Y691482D01*
X372708Y691407D01*
X372687Y691333D01*
X372662Y691260D01*
X372633Y691188D01*
X372600Y691118D01*
X372564Y691051D01*
X372523Y690985D01*
X372479Y690922D01*
X372432Y690861D01*
X372381Y690802D01*
X372327Y690747D01*
X372271Y690695D01*
X372211Y690646D01*
X372149Y690600D01*
X372084Y690558D01*
X372017Y690519D01*
X371948Y690484D01*
X371878Y690453D01*
X371806Y690426D01*
X371732Y690403D01*
X371657Y690384D01*
X371581Y690370D01*
X371505Y690359D01*
X371428Y690353D01*
X371351Y690351D01*
X358151D01*
X358074Y690353D01*
X357997Y690359D01*
X357921Y690370D01*
X357845Y690384D01*
X357770Y690403D01*
X357696Y690426D01*
X357624Y690453D01*
X357554Y690484D01*
X357485Y690519D01*
X357418Y690558D01*
X357353Y690600D01*
X357291Y690646D01*
X357232Y690695D01*
X357175Y690747D01*
X357121Y690802D01*
X357070Y690861D01*
X357023Y690922D01*
X356979Y690985D01*
X356939Y691051D01*
X356902Y691118D01*
X356869Y691188D01*
X356840Y691260D01*
X356815Y691333D01*
X356794Y691407D01*
X356777Y691482D01*
X356764Y691558D01*
X356756Y691635D01*
X356752Y691712D01*
Y691789D01*
X356756Y691866D01*
X356764Y691943D01*
X356777Y692019D01*
X356794Y692094D01*
X356815Y692168D01*
X356840Y692242D01*
X356869Y692313D01*
X356902Y692383D01*
X356939Y692451D01*
X356979Y692516D01*
X357023Y692580D01*
X357070Y692641D01*
X357121Y692699D01*
X357175Y692754D01*
X357232Y692806D01*
X357291Y692856D01*
X357353Y692901D01*
X357418Y692943D01*
X357485Y692982D01*
X357554Y693017D01*
X357624Y693048D01*
X357696Y693075D01*
X357770Y693098D01*
X357845Y693117D01*
X357921Y693132D01*
X357997Y693142D01*
X358074Y693149D01*
X358151Y693151D01*
X371351D01*
X371428Y693149D01*
D02*
G37*
G36*
X455426Y688147D02*
X455503Y688141D01*
X455579Y688130D01*
X455655Y688116D01*
X455730Y688097D01*
X455803Y688074D01*
X455876Y688046D01*
X455946Y688016D01*
X456015Y687981D01*
X456082Y687942D01*
X456147Y687900D01*
X456209Y687854D01*
X456268Y687805D01*
X456325Y687753D01*
X456379Y687698D01*
X456430Y687639D01*
X456477Y687578D01*
X456521Y687515D01*
X456561Y687449D01*
X456598Y687382D01*
X456631Y687312D01*
X456660Y687240D01*
X456685Y687167D01*
X456706Y687093D01*
X456723Y687018D01*
X456736Y686942D01*
X456744Y686865D01*
X456748Y686788D01*
Y686711D01*
X456744Y686634D01*
X456736Y686557D01*
X456723Y686481D01*
X456706Y686406D01*
X456685Y686331D01*
X456660Y686258D01*
X456631Y686187D01*
X456598Y686117D01*
X456561Y686049D01*
X456521Y685984D01*
X456477Y685920D01*
X456430Y685859D01*
X456379Y685801D01*
X456325Y685746D01*
X456268Y685694D01*
X456209Y685645D01*
X456147Y685599D01*
X456082Y685557D01*
X456015Y685518D01*
X455946Y685483D01*
X455876Y685452D01*
X455803Y685425D01*
X455730Y685402D01*
X455655Y685383D01*
X455579Y685368D01*
X455503Y685358D01*
X455426Y685351D01*
X455349Y685349D01*
X442149D01*
X442072Y685351D01*
X441995Y685358D01*
X441919Y685368D01*
X441843Y685383D01*
X441768Y685402D01*
X441694Y685425D01*
X441622Y685452D01*
X441552Y685483D01*
X441483Y685518D01*
X441416Y685557D01*
X441351Y685599D01*
X441289Y685645D01*
X441230Y685694D01*
X441173Y685746D01*
X441119Y685801D01*
X441068Y685859D01*
X441021Y685920D01*
X440977Y685984D01*
X440936Y686049D01*
X440900Y686117D01*
X440867Y686187D01*
X440838Y686258D01*
X440813Y686331D01*
X440792Y686406D01*
X440775Y686481D01*
X440762Y686557D01*
X440754Y686634D01*
X440749Y686711D01*
Y686788D01*
X440754Y686865D01*
X440762Y686942D01*
X440775Y687018D01*
X440792Y687093D01*
X440813Y687167D01*
X440838Y687240D01*
X440867Y687312D01*
X440900Y687382D01*
X440936Y687449D01*
X440977Y687515D01*
X441021Y687578D01*
X441068Y687639D01*
X441119Y687698D01*
X441173Y687753D01*
X441230Y687805D01*
X441289Y687854D01*
X441351Y687900D01*
X441416Y687942D01*
X441483Y687981D01*
X441552Y688016D01*
X441622Y688046D01*
X441694Y688074D01*
X441768Y688097D01*
X441843Y688116D01*
X441919Y688130D01*
X441995Y688141D01*
X442072Y688147D01*
X442149Y688149D01*
X455349D01*
X455426Y688147D01*
D02*
G37*
G36*
X371428D02*
X371505Y688141D01*
X371581Y688130D01*
X371657Y688116D01*
X371732Y688097D01*
X371806Y688074D01*
X371878Y688046D01*
X371948Y688016D01*
X372017Y687981D01*
X372084Y687942D01*
X372149Y687900D01*
X372211Y687854D01*
X372271Y687805D01*
X372327Y687753D01*
X372381Y687698D01*
X372432Y687639D01*
X372479Y687578D01*
X372523Y687515D01*
X372564Y687449D01*
X372600Y687382D01*
X372633Y687312D01*
X372662Y687240D01*
X372687Y687167D01*
X372708Y687093D01*
X372725Y687018D01*
X372738Y686942D01*
X372746Y686865D01*
X372751Y686788D01*
Y686711D01*
X372746Y686634D01*
X372738Y686557D01*
X372725Y686481D01*
X372708Y686406D01*
X372687Y686331D01*
X372662Y686258D01*
X372633Y686187D01*
X372600Y686117D01*
X372564Y686049D01*
X372523Y685984D01*
X372479Y685920D01*
X372432Y685859D01*
X372381Y685801D01*
X372327Y685746D01*
X372271Y685694D01*
X372211Y685645D01*
X372149Y685599D01*
X372084Y685557D01*
X372017Y685518D01*
X371948Y685483D01*
X371878Y685452D01*
X371806Y685425D01*
X371732Y685402D01*
X371657Y685383D01*
X371581Y685368D01*
X371505Y685358D01*
X371428Y685351D01*
X371351Y685349D01*
X358151D01*
X358074Y685351D01*
X357997Y685358D01*
X357921Y685368D01*
X357845Y685383D01*
X357770Y685402D01*
X357696Y685425D01*
X357624Y685452D01*
X357554Y685483D01*
X357485Y685518D01*
X357418Y685557D01*
X357353Y685599D01*
X357291Y685645D01*
X357232Y685694D01*
X357175Y685746D01*
X357121Y685801D01*
X357070Y685859D01*
X357023Y685920D01*
X356979Y685984D01*
X356939Y686049D01*
X356902Y686117D01*
X356869Y686187D01*
X356840Y686258D01*
X356815Y686331D01*
X356794Y686406D01*
X356777Y686481D01*
X356764Y686557D01*
X356756Y686634D01*
X356752Y686711D01*
Y686788D01*
X356756Y686865D01*
X356764Y686942D01*
X356777Y687018D01*
X356794Y687093D01*
X356815Y687167D01*
X356840Y687240D01*
X356869Y687312D01*
X356902Y687382D01*
X356939Y687449D01*
X356979Y687515D01*
X357023Y687578D01*
X357070Y687639D01*
X357121Y687698D01*
X357175Y687753D01*
X357232Y687805D01*
X357291Y687854D01*
X357353Y687900D01*
X357418Y687942D01*
X357485Y687981D01*
X357554Y688016D01*
X357624Y688046D01*
X357696Y688074D01*
X357770Y688097D01*
X357845Y688116D01*
X357921Y688130D01*
X357997Y688141D01*
X358074Y688147D01*
X358151Y688149D01*
X371351D01*
X371428Y688147D01*
D02*
G37*
G36*
X455426Y683149D02*
X455503Y683142D01*
X455579Y683132D01*
X455655Y683117D01*
X455730Y683098D01*
X455803Y683075D01*
X455876Y683048D01*
X455946Y683017D01*
X456015Y682982D01*
X456082Y682943D01*
X456147Y682901D01*
X456209Y682856D01*
X456268Y682806D01*
X456325Y682754D01*
X456379Y682699D01*
X456430Y682641D01*
X456477Y682580D01*
X456521Y682516D01*
X456561Y682451D01*
X456598Y682383D01*
X456631Y682313D01*
X456660Y682242D01*
X456685Y682169D01*
X456706Y682094D01*
X456723Y682019D01*
X456736Y681943D01*
X456744Y681866D01*
X456748Y681789D01*
Y681712D01*
X456744Y681635D01*
X456736Y681558D01*
X456723Y681482D01*
X456706Y681407D01*
X456685Y681333D01*
X456660Y681260D01*
X456631Y681188D01*
X456598Y681118D01*
X456561Y681051D01*
X456521Y680985D01*
X456477Y680922D01*
X456430Y680861D01*
X456379Y680802D01*
X456325Y680747D01*
X456268Y680695D01*
X456209Y680646D01*
X456147Y680600D01*
X456082Y680558D01*
X456015Y680519D01*
X455946Y680484D01*
X455876Y680453D01*
X455803Y680426D01*
X455730Y680403D01*
X455655Y680384D01*
X455579Y680370D01*
X455503Y680359D01*
X455426Y680353D01*
X455349Y680351D01*
X442149D01*
X442072Y680353D01*
X441995Y680359D01*
X441919Y680370D01*
X441843Y680384D01*
X441768Y680403D01*
X441694Y680426D01*
X441622Y680453D01*
X441552Y680484D01*
X441483Y680519D01*
X441416Y680558D01*
X441351Y680600D01*
X441289Y680646D01*
X441230Y680695D01*
X441173Y680747D01*
X441119Y680802D01*
X441068Y680861D01*
X441021Y680922D01*
X440977Y680985D01*
X440936Y681051D01*
X440900Y681118D01*
X440867Y681188D01*
X440838Y681260D01*
X440813Y681333D01*
X440792Y681407D01*
X440775Y681482D01*
X440762Y681558D01*
X440754Y681635D01*
X440749Y681712D01*
Y681789D01*
X440754Y681866D01*
X440762Y681943D01*
X440775Y682019D01*
X440792Y682094D01*
X440813Y682169D01*
X440838Y682242D01*
X440867Y682313D01*
X440900Y682383D01*
X440936Y682451D01*
X440977Y682516D01*
X441021Y682580D01*
X441068Y682641D01*
X441119Y682699D01*
X441173Y682754D01*
X441230Y682806D01*
X441289Y682856D01*
X441351Y682901D01*
X441416Y682943D01*
X441483Y682982D01*
X441552Y683017D01*
X441622Y683048D01*
X441694Y683075D01*
X441768Y683098D01*
X441843Y683117D01*
X441919Y683132D01*
X441995Y683142D01*
X442072Y683149D01*
X442149Y683151D01*
X455349D01*
X455426Y683149D01*
D02*
G37*
G36*
X371428D02*
X371505Y683142D01*
X371581Y683132D01*
X371657Y683117D01*
X371732Y683098D01*
X371806Y683075D01*
X371878Y683048D01*
X371948Y683017D01*
X372017Y682982D01*
X372084Y682943D01*
X372149Y682901D01*
X372211Y682856D01*
X372271Y682806D01*
X372327Y682754D01*
X372381Y682699D01*
X372432Y682641D01*
X372479Y682580D01*
X372523Y682516D01*
X372564Y682451D01*
X372600Y682383D01*
X372633Y682313D01*
X372662Y682242D01*
X372687Y682169D01*
X372708Y682094D01*
X372725Y682019D01*
X372738Y681943D01*
X372746Y681866D01*
X372751Y681789D01*
Y681712D01*
X372746Y681635D01*
X372738Y681558D01*
X372725Y681482D01*
X372708Y681407D01*
X372687Y681333D01*
X372662Y681260D01*
X372633Y681188D01*
X372600Y681118D01*
X372564Y681051D01*
X372523Y680985D01*
X372479Y680922D01*
X372432Y680861D01*
X372381Y680802D01*
X372327Y680747D01*
X372271Y680695D01*
X372211Y680646D01*
X372149Y680600D01*
X372084Y680558D01*
X372017Y680519D01*
X371948Y680484D01*
X371878Y680453D01*
X371806Y680426D01*
X371732Y680403D01*
X371657Y680384D01*
X371581Y680370D01*
X371505Y680359D01*
X371428Y680353D01*
X371351Y680351D01*
X358151D01*
X358074Y680353D01*
X357997Y680359D01*
X357921Y680370D01*
X357845Y680384D01*
X357770Y680403D01*
X357696Y680426D01*
X357624Y680453D01*
X357554Y680484D01*
X357485Y680519D01*
X357418Y680558D01*
X357353Y680600D01*
X357291Y680646D01*
X357232Y680695D01*
X357175Y680747D01*
X357121Y680802D01*
X357070Y680861D01*
X357023Y680922D01*
X356979Y680985D01*
X356939Y681051D01*
X356902Y681118D01*
X356869Y681188D01*
X356840Y681260D01*
X356815Y681333D01*
X356794Y681407D01*
X356777Y681482D01*
X356764Y681558D01*
X356756Y681635D01*
X356752Y681712D01*
Y681789D01*
X356756Y681866D01*
X356764Y681943D01*
X356777Y682019D01*
X356794Y682094D01*
X356815Y682169D01*
X356840Y682242D01*
X356869Y682313D01*
X356902Y682383D01*
X356939Y682451D01*
X356979Y682516D01*
X357023Y682580D01*
X357070Y682641D01*
X357121Y682699D01*
X357175Y682754D01*
X357232Y682806D01*
X357291Y682856D01*
X357353Y682901D01*
X357418Y682943D01*
X357485Y682982D01*
X357554Y683017D01*
X357624Y683048D01*
X357696Y683075D01*
X357770Y683098D01*
X357845Y683117D01*
X357921Y683132D01*
X357997Y683142D01*
X358074Y683149D01*
X358151Y683151D01*
X371351D01*
X371428Y683149D01*
D02*
G37*
G36*
X455426Y678147D02*
X455503Y678141D01*
X455579Y678130D01*
X455655Y678116D01*
X455730Y678097D01*
X455803Y678074D01*
X455876Y678046D01*
X455946Y678016D01*
X456015Y677981D01*
X456082Y677942D01*
X456147Y677900D01*
X456209Y677854D01*
X456268Y677805D01*
X456325Y677753D01*
X456379Y677698D01*
X456430Y677639D01*
X456477Y677578D01*
X456521Y677515D01*
X456561Y677449D01*
X456598Y677382D01*
X456631Y677312D01*
X456660Y677240D01*
X456685Y677167D01*
X456706Y677093D01*
X456723Y677018D01*
X456736Y676942D01*
X456744Y676865D01*
X456748Y676788D01*
Y676711D01*
X456744Y676634D01*
X456736Y676557D01*
X456723Y676481D01*
X456706Y676406D01*
X456685Y676331D01*
X456660Y676258D01*
X456631Y676187D01*
X456598Y676117D01*
X456561Y676049D01*
X456521Y675984D01*
X456477Y675920D01*
X456430Y675859D01*
X456379Y675801D01*
X456325Y675746D01*
X456268Y675694D01*
X456209Y675645D01*
X456147Y675599D01*
X456082Y675557D01*
X456015Y675518D01*
X455946Y675483D01*
X455876Y675452D01*
X455803Y675425D01*
X455730Y675402D01*
X455655Y675383D01*
X455579Y675368D01*
X455503Y675358D01*
X455426Y675351D01*
X455349Y675349D01*
X442149D01*
X442072Y675351D01*
X441995Y675358D01*
X441919Y675368D01*
X441843Y675383D01*
X441768Y675402D01*
X441694Y675425D01*
X441622Y675452D01*
X441552Y675483D01*
X441483Y675518D01*
X441416Y675557D01*
X441351Y675599D01*
X441289Y675645D01*
X441230Y675694D01*
X441173Y675746D01*
X441119Y675801D01*
X441068Y675859D01*
X441021Y675920D01*
X440977Y675984D01*
X440936Y676049D01*
X440900Y676117D01*
X440867Y676187D01*
X440838Y676258D01*
X440813Y676331D01*
X440792Y676406D01*
X440775Y676481D01*
X440762Y676557D01*
X440754Y676634D01*
X440749Y676711D01*
Y676788D01*
X440754Y676865D01*
X440762Y676942D01*
X440775Y677018D01*
X440792Y677093D01*
X440813Y677167D01*
X440838Y677240D01*
X440867Y677312D01*
X440900Y677382D01*
X440936Y677449D01*
X440977Y677515D01*
X441021Y677578D01*
X441068Y677639D01*
X441119Y677698D01*
X441173Y677753D01*
X441230Y677805D01*
X441289Y677854D01*
X441351Y677900D01*
X441416Y677942D01*
X441483Y677981D01*
X441552Y678016D01*
X441622Y678046D01*
X441694Y678074D01*
X441768Y678097D01*
X441843Y678116D01*
X441919Y678130D01*
X441995Y678141D01*
X442072Y678147D01*
X442149Y678149D01*
X455349D01*
X455426Y678147D01*
D02*
G37*
G36*
X371428D02*
X371505Y678141D01*
X371581Y678130D01*
X371657Y678116D01*
X371732Y678097D01*
X371806Y678074D01*
X371878Y678046D01*
X371948Y678016D01*
X372017Y677981D01*
X372084Y677942D01*
X372149Y677900D01*
X372211Y677854D01*
X372271Y677805D01*
X372327Y677753D01*
X372381Y677698D01*
X372432Y677639D01*
X372479Y677578D01*
X372523Y677515D01*
X372564Y677449D01*
X372600Y677382D01*
X372633Y677312D01*
X372662Y677240D01*
X372687Y677167D01*
X372708Y677093D01*
X372725Y677018D01*
X372738Y676942D01*
X372746Y676865D01*
X372751Y676788D01*
Y676711D01*
X372746Y676634D01*
X372738Y676557D01*
X372725Y676481D01*
X372708Y676406D01*
X372687Y676331D01*
X372662Y676258D01*
X372633Y676187D01*
X372600Y676117D01*
X372564Y676049D01*
X372523Y675984D01*
X372479Y675920D01*
X372432Y675859D01*
X372381Y675801D01*
X372327Y675746D01*
X372271Y675694D01*
X372211Y675645D01*
X372149Y675599D01*
X372084Y675557D01*
X372017Y675518D01*
X371948Y675483D01*
X371878Y675452D01*
X371806Y675425D01*
X371732Y675402D01*
X371657Y675383D01*
X371581Y675368D01*
X371505Y675358D01*
X371428Y675351D01*
X371351Y675349D01*
X358151D01*
X358074Y675351D01*
X357997Y675358D01*
X357921Y675368D01*
X357845Y675383D01*
X357770Y675402D01*
X357696Y675425D01*
X357624Y675452D01*
X357554Y675483D01*
X357485Y675518D01*
X357418Y675557D01*
X357353Y675599D01*
X357291Y675645D01*
X357232Y675694D01*
X357175Y675746D01*
X357121Y675801D01*
X357070Y675859D01*
X357023Y675920D01*
X356979Y675984D01*
X356939Y676049D01*
X356902Y676117D01*
X356869Y676187D01*
X356840Y676258D01*
X356815Y676331D01*
X356794Y676406D01*
X356777Y676481D01*
X356764Y676557D01*
X356756Y676634D01*
X356752Y676711D01*
Y676788D01*
X356756Y676865D01*
X356764Y676942D01*
X356777Y677018D01*
X356794Y677093D01*
X356815Y677167D01*
X356840Y677240D01*
X356869Y677312D01*
X356902Y677382D01*
X356939Y677449D01*
X356979Y677515D01*
X357023Y677578D01*
X357070Y677639D01*
X357121Y677698D01*
X357175Y677753D01*
X357232Y677805D01*
X357291Y677854D01*
X357353Y677900D01*
X357418Y677942D01*
X357485Y677981D01*
X357554Y678016D01*
X357624Y678046D01*
X357696Y678074D01*
X357770Y678097D01*
X357845Y678116D01*
X357921Y678130D01*
X357997Y678141D01*
X358074Y678147D01*
X358151Y678149D01*
X371351D01*
X371428Y678147D01*
D02*
G37*
G36*
X455426Y673149D02*
X455503Y673142D01*
X455579Y673132D01*
X455655Y673117D01*
X455730Y673098D01*
X455803Y673075D01*
X455876Y673048D01*
X455946Y673017D01*
X456015Y672982D01*
X456082Y672943D01*
X456147Y672901D01*
X456209Y672856D01*
X456268Y672806D01*
X456325Y672754D01*
X456379Y672699D01*
X456430Y672641D01*
X456477Y672580D01*
X456521Y672516D01*
X456561Y672451D01*
X456598Y672383D01*
X456631Y672313D01*
X456660Y672242D01*
X456685Y672169D01*
X456706Y672094D01*
X456723Y672019D01*
X456736Y671943D01*
X456744Y671866D01*
X456748Y671789D01*
Y671712D01*
X456744Y671635D01*
X456736Y671558D01*
X456723Y671482D01*
X456706Y671407D01*
X456685Y671333D01*
X456660Y671260D01*
X456631Y671188D01*
X456598Y671118D01*
X456561Y671051D01*
X456521Y670985D01*
X456477Y670922D01*
X456430Y670861D01*
X456379Y670803D01*
X456325Y670747D01*
X456268Y670695D01*
X456209Y670646D01*
X456147Y670600D01*
X456082Y670558D01*
X456015Y670519D01*
X455946Y670484D01*
X455876Y670453D01*
X455803Y670426D01*
X455730Y670403D01*
X455655Y670384D01*
X455579Y670370D01*
X455503Y670359D01*
X455426Y670353D01*
X455349Y670351D01*
X442149D01*
X442072Y670353D01*
X441995Y670359D01*
X441919Y670370D01*
X441843Y670384D01*
X441768Y670403D01*
X441694Y670426D01*
X441622Y670453D01*
X441552Y670484D01*
X441483Y670519D01*
X441416Y670558D01*
X441351Y670600D01*
X441289Y670646D01*
X441230Y670695D01*
X441173Y670747D01*
X441119Y670803D01*
X441068Y670861D01*
X441021Y670922D01*
X440977Y670985D01*
X440936Y671051D01*
X440900Y671118D01*
X440867Y671188D01*
X440838Y671260D01*
X440813Y671333D01*
X440792Y671407D01*
X440775Y671482D01*
X440762Y671558D01*
X440754Y671635D01*
X440749Y671712D01*
Y671789D01*
X440754Y671866D01*
X440762Y671943D01*
X440775Y672019D01*
X440792Y672094D01*
X440813Y672169D01*
X440838Y672242D01*
X440867Y672313D01*
X440900Y672383D01*
X440936Y672451D01*
X440977Y672516D01*
X441021Y672580D01*
X441068Y672641D01*
X441119Y672699D01*
X441173Y672754D01*
X441230Y672806D01*
X441289Y672856D01*
X441351Y672901D01*
X441416Y672943D01*
X441483Y672982D01*
X441552Y673017D01*
X441622Y673048D01*
X441694Y673075D01*
X441768Y673098D01*
X441843Y673117D01*
X441919Y673132D01*
X441995Y673142D01*
X442072Y673149D01*
X442149Y673151D01*
X455349D01*
X455426Y673149D01*
D02*
G37*
G36*
X371428D02*
X371505Y673142D01*
X371581Y673132D01*
X371657Y673117D01*
X371732Y673098D01*
X371806Y673075D01*
X371878Y673048D01*
X371948Y673017D01*
X372017Y672982D01*
X372084Y672943D01*
X372149Y672901D01*
X372211Y672856D01*
X372271Y672806D01*
X372327Y672754D01*
X372381Y672699D01*
X372432Y672641D01*
X372479Y672580D01*
X372523Y672516D01*
X372564Y672451D01*
X372600Y672383D01*
X372633Y672313D01*
X372662Y672242D01*
X372687Y672169D01*
X372708Y672094D01*
X372725Y672019D01*
X372738Y671943D01*
X372746Y671866D01*
X372751Y671789D01*
Y671712D01*
X372746Y671635D01*
X372738Y671558D01*
X372725Y671482D01*
X372708Y671407D01*
X372687Y671333D01*
X372662Y671260D01*
X372633Y671188D01*
X372600Y671118D01*
X372564Y671051D01*
X372523Y670985D01*
X372479Y670922D01*
X372432Y670861D01*
X372381Y670803D01*
X372327Y670747D01*
X372271Y670695D01*
X372211Y670646D01*
X372149Y670600D01*
X372084Y670558D01*
X372017Y670519D01*
X371948Y670484D01*
X371878Y670453D01*
X371806Y670426D01*
X371732Y670403D01*
X371657Y670384D01*
X371581Y670370D01*
X371505Y670359D01*
X371428Y670353D01*
X371351Y670351D01*
X358151D01*
X358074Y670353D01*
X357997Y670359D01*
X357921Y670370D01*
X357845Y670384D01*
X357770Y670403D01*
X357696Y670426D01*
X357624Y670453D01*
X357554Y670484D01*
X357485Y670519D01*
X357418Y670558D01*
X357353Y670600D01*
X357291Y670646D01*
X357232Y670695D01*
X357175Y670747D01*
X357121Y670803D01*
X357070Y670861D01*
X357023Y670922D01*
X356979Y670985D01*
X356939Y671051D01*
X356902Y671118D01*
X356869Y671188D01*
X356840Y671260D01*
X356815Y671333D01*
X356794Y671407D01*
X356777Y671482D01*
X356764Y671558D01*
X356756Y671635D01*
X356752Y671712D01*
Y671789D01*
X356756Y671866D01*
X356764Y671943D01*
X356777Y672019D01*
X356794Y672094D01*
X356815Y672169D01*
X356840Y672242D01*
X356869Y672313D01*
X356902Y672383D01*
X356939Y672451D01*
X356979Y672516D01*
X357023Y672580D01*
X357070Y672641D01*
X357121Y672699D01*
X357175Y672754D01*
X357232Y672806D01*
X357291Y672856D01*
X357353Y672901D01*
X357418Y672943D01*
X357485Y672982D01*
X357554Y673017D01*
X357624Y673048D01*
X357696Y673075D01*
X357770Y673098D01*
X357845Y673117D01*
X357921Y673132D01*
X357997Y673142D01*
X358074Y673149D01*
X358151Y673151D01*
X371351D01*
X371428Y673149D01*
D02*
G37*
G36*
X455426Y668147D02*
X455503Y668141D01*
X455579Y668130D01*
X455655Y668116D01*
X455730Y668097D01*
X455803Y668074D01*
X455876Y668047D01*
X455946Y668016D01*
X456015Y667981D01*
X456082Y667942D01*
X456147Y667900D01*
X456209Y667854D01*
X456268Y667805D01*
X456325Y667753D01*
X456379Y667698D01*
X456430Y667639D01*
X456477Y667578D01*
X456521Y667515D01*
X456561Y667449D01*
X456598Y667382D01*
X456631Y667312D01*
X456660Y667240D01*
X456685Y667167D01*
X456706Y667093D01*
X456723Y667018D01*
X456736Y666942D01*
X456744Y666865D01*
X456748Y666788D01*
Y666711D01*
X456744Y666634D01*
X456736Y666557D01*
X456723Y666481D01*
X456706Y666406D01*
X456685Y666332D01*
X456660Y666258D01*
X456631Y666187D01*
X456598Y666117D01*
X456561Y666049D01*
X456521Y665984D01*
X456477Y665920D01*
X456430Y665859D01*
X456379Y665801D01*
X456325Y665746D01*
X456268Y665694D01*
X456209Y665645D01*
X456147Y665599D01*
X456082Y665557D01*
X456015Y665518D01*
X455946Y665483D01*
X455876Y665452D01*
X455803Y665425D01*
X455730Y665402D01*
X455655Y665383D01*
X455579Y665368D01*
X455503Y665358D01*
X455426Y665351D01*
X455349Y665349D01*
X442149D01*
X442072Y665351D01*
X441995Y665358D01*
X441919Y665368D01*
X441843Y665383D01*
X441768Y665402D01*
X441694Y665425D01*
X441622Y665452D01*
X441552Y665483D01*
X441483Y665518D01*
X441416Y665557D01*
X441351Y665599D01*
X441289Y665645D01*
X441230Y665694D01*
X441173Y665746D01*
X441119Y665801D01*
X441068Y665859D01*
X441021Y665920D01*
X440977Y665984D01*
X440936Y666049D01*
X440900Y666117D01*
X440867Y666187D01*
X440838Y666258D01*
X440813Y666332D01*
X440792Y666406D01*
X440775Y666481D01*
X440762Y666557D01*
X440754Y666634D01*
X440749Y666711D01*
Y666788D01*
X440754Y666865D01*
X440762Y666942D01*
X440775Y667018D01*
X440792Y667093D01*
X440813Y667167D01*
X440838Y667240D01*
X440867Y667312D01*
X440900Y667382D01*
X440936Y667449D01*
X440977Y667515D01*
X441021Y667578D01*
X441068Y667639D01*
X441119Y667698D01*
X441173Y667753D01*
X441230Y667805D01*
X441289Y667854D01*
X441351Y667900D01*
X441416Y667942D01*
X441483Y667981D01*
X441552Y668016D01*
X441622Y668047D01*
X441694Y668074D01*
X441768Y668097D01*
X441843Y668116D01*
X441919Y668130D01*
X441995Y668141D01*
X442072Y668147D01*
X442149Y668149D01*
X455349D01*
X455426Y668147D01*
D02*
G37*
G36*
X371428D02*
X371505Y668141D01*
X371581Y668130D01*
X371657Y668116D01*
X371732Y668097D01*
X371806Y668074D01*
X371878Y668047D01*
X371948Y668016D01*
X372017Y667981D01*
X372084Y667942D01*
X372149Y667900D01*
X372211Y667854D01*
X372271Y667805D01*
X372327Y667753D01*
X372381Y667698D01*
X372432Y667639D01*
X372479Y667578D01*
X372523Y667515D01*
X372564Y667449D01*
X372600Y667382D01*
X372633Y667312D01*
X372662Y667240D01*
X372687Y667167D01*
X372708Y667093D01*
X372725Y667018D01*
X372738Y666942D01*
X372746Y666865D01*
X372751Y666788D01*
Y666711D01*
X372746Y666634D01*
X372738Y666557D01*
X372725Y666481D01*
X372708Y666406D01*
X372687Y666332D01*
X372662Y666258D01*
X372633Y666187D01*
X372600Y666117D01*
X372564Y666049D01*
X372523Y665984D01*
X372479Y665920D01*
X372432Y665859D01*
X372381Y665801D01*
X372327Y665746D01*
X372271Y665694D01*
X372211Y665645D01*
X372149Y665599D01*
X372084Y665557D01*
X372017Y665518D01*
X371948Y665483D01*
X371878Y665452D01*
X371806Y665425D01*
X371732Y665402D01*
X371657Y665383D01*
X371581Y665368D01*
X371505Y665358D01*
X371428Y665351D01*
X371351Y665349D01*
X358151D01*
X358074Y665351D01*
X357997Y665358D01*
X357921Y665368D01*
X357845Y665383D01*
X357770Y665402D01*
X357696Y665425D01*
X357624Y665452D01*
X357554Y665483D01*
X357485Y665518D01*
X357418Y665557D01*
X357353Y665599D01*
X357291Y665645D01*
X357232Y665694D01*
X357175Y665746D01*
X357121Y665801D01*
X357070Y665859D01*
X357023Y665920D01*
X356979Y665984D01*
X356939Y666049D01*
X356902Y666117D01*
X356869Y666187D01*
X356840Y666258D01*
X356815Y666332D01*
X356794Y666406D01*
X356777Y666481D01*
X356764Y666557D01*
X356756Y666634D01*
X356752Y666711D01*
Y666788D01*
X356756Y666865D01*
X356764Y666942D01*
X356777Y667018D01*
X356794Y667093D01*
X356815Y667167D01*
X356840Y667240D01*
X356869Y667312D01*
X356902Y667382D01*
X356939Y667449D01*
X356979Y667515D01*
X357023Y667578D01*
X357070Y667639D01*
X357121Y667698D01*
X357175Y667753D01*
X357232Y667805D01*
X357291Y667854D01*
X357353Y667900D01*
X357418Y667942D01*
X357485Y667981D01*
X357554Y668016D01*
X357624Y668047D01*
X357696Y668074D01*
X357770Y668097D01*
X357845Y668116D01*
X357921Y668130D01*
X357997Y668141D01*
X358074Y668147D01*
X358151Y668149D01*
X371351D01*
X371428Y668147D01*
D02*
G37*
G36*
X455426Y663149D02*
X455503Y663142D01*
X455579Y663132D01*
X455655Y663117D01*
X455730Y663098D01*
X455803Y663075D01*
X455876Y663048D01*
X455946Y663017D01*
X456015Y662982D01*
X456082Y662943D01*
X456147Y662901D01*
X456209Y662856D01*
X456268Y662806D01*
X456325Y662754D01*
X456379Y662699D01*
X456430Y662641D01*
X456477Y662580D01*
X456521Y662516D01*
X456561Y662451D01*
X456598Y662383D01*
X456631Y662313D01*
X456660Y662242D01*
X456685Y662169D01*
X456706Y662094D01*
X456723Y662019D01*
X456736Y661943D01*
X456744Y661866D01*
X456748Y661789D01*
Y661712D01*
X456744Y661635D01*
X456736Y661558D01*
X456723Y661482D01*
X456706Y661407D01*
X456685Y661333D01*
X456660Y661260D01*
X456631Y661188D01*
X456598Y661118D01*
X456561Y661051D01*
X456521Y660985D01*
X456477Y660922D01*
X456430Y660861D01*
X456379Y660803D01*
X456325Y660747D01*
X456268Y660695D01*
X456209Y660646D01*
X456147Y660600D01*
X456082Y660558D01*
X456015Y660519D01*
X455946Y660484D01*
X455876Y660453D01*
X455803Y660427D01*
X455730Y660404D01*
X455655Y660384D01*
X455579Y660370D01*
X455503Y660359D01*
X455426Y660353D01*
X455349Y660351D01*
X442149D01*
X442072Y660353D01*
X441995Y660359D01*
X441919Y660370D01*
X441843Y660384D01*
X441768Y660404D01*
X441694Y660427D01*
X441622Y660453D01*
X441552Y660484D01*
X441483Y660519D01*
X441416Y660558D01*
X441351Y660600D01*
X441289Y660646D01*
X441230Y660695D01*
X441173Y660747D01*
X441119Y660803D01*
X441068Y660861D01*
X441021Y660922D01*
X440977Y660985D01*
X440936Y661051D01*
X440900Y661118D01*
X440867Y661188D01*
X440838Y661260D01*
X440813Y661333D01*
X440792Y661407D01*
X440775Y661482D01*
X440762Y661558D01*
X440754Y661635D01*
X440749Y661712D01*
Y661789D01*
X440754Y661866D01*
X440762Y661943D01*
X440775Y662019D01*
X440792Y662094D01*
X440813Y662169D01*
X440838Y662242D01*
X440867Y662313D01*
X440900Y662383D01*
X440936Y662451D01*
X440977Y662516D01*
X441021Y662580D01*
X441068Y662641D01*
X441119Y662699D01*
X441173Y662754D01*
X441230Y662806D01*
X441289Y662856D01*
X441351Y662901D01*
X441416Y662943D01*
X441483Y662982D01*
X441552Y663017D01*
X441622Y663048D01*
X441694Y663075D01*
X441768Y663098D01*
X441843Y663117D01*
X441919Y663132D01*
X441995Y663142D01*
X442072Y663149D01*
X442149Y663151D01*
X455349D01*
X455426Y663149D01*
D02*
G37*
G36*
X371428D02*
X371505Y663142D01*
X371581Y663132D01*
X371657Y663117D01*
X371732Y663098D01*
X371806Y663075D01*
X371878Y663048D01*
X371948Y663017D01*
X372017Y662982D01*
X372084Y662943D01*
X372149Y662901D01*
X372211Y662856D01*
X372271Y662806D01*
X372327Y662754D01*
X372381Y662699D01*
X372432Y662641D01*
X372479Y662580D01*
X372523Y662516D01*
X372564Y662451D01*
X372600Y662383D01*
X372633Y662313D01*
X372662Y662242D01*
X372687Y662169D01*
X372708Y662094D01*
X372725Y662019D01*
X372738Y661943D01*
X372746Y661866D01*
X372751Y661789D01*
Y661712D01*
X372746Y661635D01*
X372738Y661558D01*
X372725Y661482D01*
X372708Y661407D01*
X372687Y661333D01*
X372662Y661260D01*
X372633Y661188D01*
X372600Y661118D01*
X372564Y661051D01*
X372523Y660985D01*
X372479Y660922D01*
X372432Y660861D01*
X372381Y660803D01*
X372327Y660747D01*
X372271Y660695D01*
X372211Y660646D01*
X372149Y660600D01*
X372084Y660558D01*
X372017Y660519D01*
X371948Y660484D01*
X371878Y660453D01*
X371806Y660427D01*
X371732Y660404D01*
X371657Y660384D01*
X371581Y660370D01*
X371505Y660359D01*
X371428Y660353D01*
X371351Y660351D01*
X358151D01*
X358074Y660353D01*
X357997Y660359D01*
X357921Y660370D01*
X357845Y660384D01*
X357770Y660404D01*
X357696Y660427D01*
X357624Y660453D01*
X357554Y660484D01*
X357485Y660519D01*
X357418Y660558D01*
X357353Y660600D01*
X357291Y660646D01*
X357232Y660695D01*
X357175Y660747D01*
X357121Y660803D01*
X357070Y660861D01*
X357023Y660922D01*
X356979Y660985D01*
X356939Y661051D01*
X356902Y661118D01*
X356869Y661188D01*
X356840Y661260D01*
X356815Y661333D01*
X356794Y661407D01*
X356777Y661482D01*
X356764Y661558D01*
X356756Y661635D01*
X356752Y661712D01*
Y661789D01*
X356756Y661866D01*
X356764Y661943D01*
X356777Y662019D01*
X356794Y662094D01*
X356815Y662169D01*
X356840Y662242D01*
X356869Y662313D01*
X356902Y662383D01*
X356939Y662451D01*
X356979Y662516D01*
X357023Y662580D01*
X357070Y662641D01*
X357121Y662699D01*
X357175Y662754D01*
X357232Y662806D01*
X357291Y662856D01*
X357353Y662901D01*
X357418Y662943D01*
X357485Y662982D01*
X357554Y663017D01*
X357624Y663048D01*
X357696Y663075D01*
X357770Y663098D01*
X357845Y663117D01*
X357921Y663132D01*
X357997Y663142D01*
X358074Y663149D01*
X358151Y663151D01*
X371351D01*
X371428Y663149D01*
D02*
G37*
G36*
X455426Y658147D02*
X455503Y658141D01*
X455579Y658130D01*
X455655Y658116D01*
X455730Y658097D01*
X455803Y658074D01*
X455876Y658047D01*
X455946Y658016D01*
X456015Y657981D01*
X456082Y657942D01*
X456147Y657900D01*
X456209Y657854D01*
X456268Y657805D01*
X456325Y657753D01*
X456379Y657698D01*
X456430Y657639D01*
X456477Y657579D01*
X456521Y657515D01*
X456561Y657449D01*
X456598Y657382D01*
X456631Y657312D01*
X456660Y657240D01*
X456685Y657167D01*
X456706Y657093D01*
X456723Y657018D01*
X456736Y656942D01*
X456744Y656865D01*
X456748Y656788D01*
Y656711D01*
X456744Y656634D01*
X456736Y656557D01*
X456723Y656481D01*
X456706Y656406D01*
X456685Y656332D01*
X456660Y656258D01*
X456631Y656187D01*
X456598Y656117D01*
X456561Y656049D01*
X456521Y655984D01*
X456477Y655920D01*
X456430Y655859D01*
X456379Y655801D01*
X456325Y655746D01*
X456268Y655694D01*
X456209Y655645D01*
X456147Y655599D01*
X456082Y655557D01*
X456015Y655518D01*
X455946Y655483D01*
X455876Y655452D01*
X455803Y655425D01*
X455730Y655402D01*
X455655Y655383D01*
X455579Y655368D01*
X455503Y655358D01*
X455426Y655351D01*
X455349Y655349D01*
X442149D01*
X442072Y655351D01*
X441995Y655358D01*
X441919Y655368D01*
X441843Y655383D01*
X441768Y655402D01*
X441694Y655425D01*
X441622Y655452D01*
X441552Y655483D01*
X441483Y655518D01*
X441416Y655557D01*
X441351Y655599D01*
X441289Y655645D01*
X441230Y655694D01*
X441173Y655746D01*
X441119Y655801D01*
X441068Y655859D01*
X441021Y655920D01*
X440977Y655984D01*
X440936Y656049D01*
X440900Y656117D01*
X440867Y656187D01*
X440838Y656258D01*
X440813Y656332D01*
X440792Y656406D01*
X440775Y656481D01*
X440762Y656557D01*
X440754Y656634D01*
X440749Y656711D01*
Y656788D01*
X440754Y656865D01*
X440762Y656942D01*
X440775Y657018D01*
X440792Y657093D01*
X440813Y657167D01*
X440838Y657240D01*
X440867Y657312D01*
X440900Y657382D01*
X440936Y657449D01*
X440977Y657515D01*
X441021Y657579D01*
X441068Y657639D01*
X441119Y657698D01*
X441173Y657753D01*
X441230Y657805D01*
X441289Y657854D01*
X441351Y657900D01*
X441416Y657942D01*
X441483Y657981D01*
X441552Y658016D01*
X441622Y658047D01*
X441694Y658074D01*
X441768Y658097D01*
X441843Y658116D01*
X441919Y658130D01*
X441995Y658141D01*
X442072Y658147D01*
X442149Y658149D01*
X455349D01*
X455426Y658147D01*
D02*
G37*
G36*
X371428D02*
X371505Y658141D01*
X371581Y658130D01*
X371657Y658116D01*
X371732Y658097D01*
X371806Y658074D01*
X371878Y658047D01*
X371948Y658016D01*
X372017Y657981D01*
X372084Y657942D01*
X372149Y657900D01*
X372211Y657854D01*
X372271Y657805D01*
X372327Y657753D01*
X372381Y657698D01*
X372432Y657639D01*
X372479Y657579D01*
X372523Y657515D01*
X372564Y657449D01*
X372600Y657382D01*
X372633Y657312D01*
X372662Y657240D01*
X372687Y657167D01*
X372708Y657093D01*
X372725Y657018D01*
X372738Y656942D01*
X372746Y656865D01*
X372751Y656788D01*
Y656711D01*
X372746Y656634D01*
X372738Y656557D01*
X372725Y656481D01*
X372708Y656406D01*
X372687Y656332D01*
X372662Y656258D01*
X372633Y656187D01*
X372600Y656117D01*
X372564Y656049D01*
X372523Y655984D01*
X372479Y655920D01*
X372432Y655859D01*
X372381Y655801D01*
X372327Y655746D01*
X372271Y655694D01*
X372211Y655645D01*
X372149Y655599D01*
X372084Y655557D01*
X372017Y655518D01*
X371948Y655483D01*
X371878Y655452D01*
X371806Y655425D01*
X371732Y655402D01*
X371657Y655383D01*
X371581Y655368D01*
X371505Y655358D01*
X371428Y655351D01*
X371351Y655349D01*
X358151D01*
X358074Y655351D01*
X357997Y655358D01*
X357921Y655368D01*
X357845Y655383D01*
X357770Y655402D01*
X357696Y655425D01*
X357624Y655452D01*
X357554Y655483D01*
X357485Y655518D01*
X357418Y655557D01*
X357353Y655599D01*
X357291Y655645D01*
X357232Y655694D01*
X357175Y655746D01*
X357121Y655801D01*
X357070Y655859D01*
X357023Y655920D01*
X356979Y655984D01*
X356939Y656049D01*
X356902Y656117D01*
X356869Y656187D01*
X356840Y656258D01*
X356815Y656332D01*
X356794Y656406D01*
X356777Y656481D01*
X356764Y656557D01*
X356756Y656634D01*
X356752Y656711D01*
Y656788D01*
X356756Y656865D01*
X356764Y656942D01*
X356777Y657018D01*
X356794Y657093D01*
X356815Y657167D01*
X356840Y657240D01*
X356869Y657312D01*
X356902Y657382D01*
X356939Y657449D01*
X356979Y657515D01*
X357023Y657579D01*
X357070Y657639D01*
X357121Y657698D01*
X357175Y657753D01*
X357232Y657805D01*
X357291Y657854D01*
X357353Y657900D01*
X357418Y657942D01*
X357485Y657981D01*
X357554Y658016D01*
X357624Y658047D01*
X357696Y658074D01*
X357770Y658097D01*
X357845Y658116D01*
X357921Y658130D01*
X357997Y658141D01*
X358074Y658147D01*
X358151Y658149D01*
X371351D01*
X371428Y658147D01*
D02*
G37*
G36*
X426750Y654250D02*
X386750D01*
Y694250D01*
X426750D01*
Y654250D01*
D02*
G37*
G36*
X455426Y653149D02*
X455503Y653142D01*
X455579Y653132D01*
X455655Y653117D01*
X455730Y653098D01*
X455803Y653075D01*
X455876Y653048D01*
X455946Y653017D01*
X456015Y652982D01*
X456082Y652943D01*
X456147Y652901D01*
X456209Y652856D01*
X456268Y652807D01*
X456325Y652754D01*
X456379Y652699D01*
X456430Y652641D01*
X456477Y652580D01*
X456521Y652516D01*
X456561Y652451D01*
X456598Y652383D01*
X456631Y652313D01*
X456660Y652242D01*
X456685Y652169D01*
X456706Y652094D01*
X456723Y652019D01*
X456736Y651943D01*
X456744Y651866D01*
X456748Y651789D01*
Y651712D01*
X456744Y651635D01*
X456736Y651558D01*
X456723Y651482D01*
X456706Y651407D01*
X456685Y651333D01*
X456660Y651260D01*
X456631Y651188D01*
X456598Y651118D01*
X456561Y651051D01*
X456521Y650985D01*
X456477Y650922D01*
X456430Y650861D01*
X456379Y650803D01*
X456325Y650747D01*
X456268Y650695D01*
X456209Y650646D01*
X456147Y650600D01*
X456082Y650558D01*
X456015Y650519D01*
X455946Y650484D01*
X455876Y650453D01*
X455803Y650427D01*
X455730Y650404D01*
X455655Y650384D01*
X455579Y650370D01*
X455503Y650359D01*
X455426Y650353D01*
X455349Y650351D01*
X442149D01*
X442072Y650353D01*
X441995Y650359D01*
X441919Y650370D01*
X441843Y650384D01*
X441768Y650404D01*
X441694Y650427D01*
X441622Y650453D01*
X441552Y650484D01*
X441483Y650519D01*
X441416Y650558D01*
X441351Y650600D01*
X441289Y650646D01*
X441230Y650695D01*
X441173Y650747D01*
X441119Y650803D01*
X441068Y650861D01*
X441021Y650922D01*
X440977Y650985D01*
X440936Y651051D01*
X440900Y651118D01*
X440867Y651188D01*
X440838Y651260D01*
X440813Y651333D01*
X440792Y651407D01*
X440775Y651482D01*
X440762Y651558D01*
X440754Y651635D01*
X440749Y651712D01*
Y651789D01*
X440754Y651866D01*
X440762Y651943D01*
X440775Y652019D01*
X440792Y652094D01*
X440813Y652169D01*
X440838Y652242D01*
X440867Y652313D01*
X440900Y652383D01*
X440936Y652451D01*
X440977Y652516D01*
X441021Y652580D01*
X441068Y652641D01*
X441119Y652699D01*
X441173Y652754D01*
X441230Y652807D01*
X441289Y652856D01*
X441351Y652901D01*
X441416Y652943D01*
X441483Y652982D01*
X441552Y653017D01*
X441622Y653048D01*
X441694Y653075D01*
X441768Y653098D01*
X441843Y653117D01*
X441919Y653132D01*
X441995Y653142D01*
X442072Y653149D01*
X442149Y653151D01*
X455349D01*
X455426Y653149D01*
D02*
G37*
G36*
X371428D02*
X371505Y653142D01*
X371581Y653132D01*
X371657Y653117D01*
X371732Y653098D01*
X371806Y653075D01*
X371878Y653048D01*
X371948Y653017D01*
X372017Y652982D01*
X372084Y652943D01*
X372149Y652901D01*
X372211Y652856D01*
X372271Y652807D01*
X372327Y652754D01*
X372381Y652699D01*
X372432Y652641D01*
X372479Y652580D01*
X372523Y652516D01*
X372564Y652451D01*
X372600Y652383D01*
X372633Y652313D01*
X372662Y652242D01*
X372687Y652169D01*
X372708Y652094D01*
X372725Y652019D01*
X372738Y651943D01*
X372746Y651866D01*
X372751Y651789D01*
Y651712D01*
X372746Y651635D01*
X372738Y651558D01*
X372725Y651482D01*
X372708Y651407D01*
X372687Y651333D01*
X372662Y651260D01*
X372633Y651188D01*
X372600Y651118D01*
X372564Y651051D01*
X372523Y650985D01*
X372479Y650922D01*
X372432Y650861D01*
X372381Y650803D01*
X372327Y650747D01*
X372271Y650695D01*
X372211Y650646D01*
X372149Y650600D01*
X372084Y650558D01*
X372017Y650519D01*
X371948Y650484D01*
X371878Y650453D01*
X371806Y650427D01*
X371732Y650404D01*
X371657Y650384D01*
X371581Y650370D01*
X371505Y650359D01*
X371428Y650353D01*
X371351Y650351D01*
X358151D01*
X358074Y650353D01*
X357997Y650359D01*
X357921Y650370D01*
X357845Y650384D01*
X357770Y650404D01*
X357696Y650427D01*
X357624Y650453D01*
X357554Y650484D01*
X357485Y650519D01*
X357418Y650558D01*
X357353Y650600D01*
X357291Y650646D01*
X357232Y650695D01*
X357175Y650747D01*
X357121Y650803D01*
X357070Y650861D01*
X357023Y650922D01*
X356979Y650985D01*
X356939Y651051D01*
X356902Y651118D01*
X356869Y651188D01*
X356840Y651260D01*
X356815Y651333D01*
X356794Y651407D01*
X356777Y651482D01*
X356764Y651558D01*
X356756Y651635D01*
X356752Y651712D01*
Y651789D01*
X356756Y651866D01*
X356764Y651943D01*
X356777Y652019D01*
X356794Y652094D01*
X356815Y652169D01*
X356840Y652242D01*
X356869Y652313D01*
X356902Y652383D01*
X356939Y652451D01*
X356979Y652516D01*
X357023Y652580D01*
X357070Y652641D01*
X357121Y652699D01*
X357175Y652754D01*
X357232Y652807D01*
X357291Y652856D01*
X357353Y652901D01*
X357418Y652943D01*
X357485Y652982D01*
X357554Y653017D01*
X357624Y653048D01*
X357696Y653075D01*
X357770Y653098D01*
X357845Y653117D01*
X357921Y653132D01*
X357997Y653142D01*
X358074Y653149D01*
X358151Y653151D01*
X371351D01*
X371428Y653149D01*
D02*
G37*
G36*
X455426Y648147D02*
X455503Y648141D01*
X455579Y648130D01*
X455655Y648116D01*
X455730Y648097D01*
X455803Y648074D01*
X455876Y648047D01*
X455946Y648016D01*
X456015Y647981D01*
X456082Y647942D01*
X456147Y647900D01*
X456209Y647854D01*
X456268Y647805D01*
X456325Y647753D01*
X456379Y647698D01*
X456430Y647639D01*
X456477Y647579D01*
X456521Y647515D01*
X456561Y647449D01*
X456598Y647382D01*
X456631Y647312D01*
X456660Y647240D01*
X456685Y647167D01*
X456706Y647093D01*
X456723Y647018D01*
X456736Y646942D01*
X456744Y646865D01*
X456748Y646788D01*
Y646711D01*
X456744Y646634D01*
X456736Y646557D01*
X456723Y646481D01*
X456706Y646406D01*
X456685Y646332D01*
X456660Y646258D01*
X456631Y646187D01*
X456598Y646117D01*
X456561Y646049D01*
X456521Y645984D01*
X456477Y645920D01*
X456430Y645859D01*
X456379Y645801D01*
X456325Y645746D01*
X456268Y645694D01*
X456209Y645645D01*
X456147Y645599D01*
X456082Y645557D01*
X456015Y645518D01*
X455946Y645483D01*
X455876Y645452D01*
X455803Y645425D01*
X455730Y645402D01*
X455655Y645383D01*
X455579Y645368D01*
X455503Y645358D01*
X455426Y645351D01*
X455349Y645349D01*
X442149D01*
X442072Y645351D01*
X441995Y645358D01*
X441919Y645368D01*
X441843Y645383D01*
X441768Y645402D01*
X441694Y645425D01*
X441622Y645452D01*
X441552Y645483D01*
X441483Y645518D01*
X441416Y645557D01*
X441351Y645599D01*
X441289Y645645D01*
X441230Y645694D01*
X441173Y645746D01*
X441119Y645801D01*
X441068Y645859D01*
X441021Y645920D01*
X440977Y645984D01*
X440936Y646049D01*
X440900Y646117D01*
X440867Y646187D01*
X440838Y646258D01*
X440813Y646332D01*
X440792Y646406D01*
X440775Y646481D01*
X440762Y646557D01*
X440754Y646634D01*
X440749Y646711D01*
Y646788D01*
X440754Y646865D01*
X440762Y646942D01*
X440775Y647018D01*
X440792Y647093D01*
X440813Y647167D01*
X440838Y647240D01*
X440867Y647312D01*
X440900Y647382D01*
X440936Y647449D01*
X440977Y647515D01*
X441021Y647579D01*
X441068Y647639D01*
X441119Y647698D01*
X441173Y647753D01*
X441230Y647805D01*
X441289Y647854D01*
X441351Y647900D01*
X441416Y647942D01*
X441483Y647981D01*
X441552Y648016D01*
X441622Y648047D01*
X441694Y648074D01*
X441768Y648097D01*
X441843Y648116D01*
X441919Y648130D01*
X441995Y648141D01*
X442072Y648147D01*
X442149Y648149D01*
X455349D01*
X455426Y648147D01*
D02*
G37*
G36*
X371428D02*
X371505Y648141D01*
X371581Y648130D01*
X371657Y648116D01*
X371732Y648097D01*
X371806Y648074D01*
X371878Y648047D01*
X371948Y648016D01*
X372017Y647981D01*
X372084Y647942D01*
X372149Y647900D01*
X372211Y647854D01*
X372271Y647805D01*
X372327Y647753D01*
X372381Y647698D01*
X372432Y647639D01*
X372479Y647579D01*
X372523Y647515D01*
X372564Y647449D01*
X372600Y647382D01*
X372633Y647312D01*
X372662Y647240D01*
X372687Y647167D01*
X372708Y647093D01*
X372725Y647018D01*
X372738Y646942D01*
X372746Y646865D01*
X372751Y646788D01*
Y646711D01*
X372746Y646634D01*
X372738Y646557D01*
X372725Y646481D01*
X372708Y646406D01*
X372687Y646332D01*
X372662Y646258D01*
X372633Y646187D01*
X372600Y646117D01*
X372564Y646049D01*
X372523Y645984D01*
X372479Y645920D01*
X372432Y645859D01*
X372381Y645801D01*
X372327Y645746D01*
X372271Y645694D01*
X372211Y645645D01*
X372149Y645599D01*
X372084Y645557D01*
X372017Y645518D01*
X371948Y645483D01*
X371878Y645452D01*
X371806Y645425D01*
X371732Y645402D01*
X371657Y645383D01*
X371581Y645368D01*
X371505Y645358D01*
X371428Y645351D01*
X371351Y645349D01*
X358151D01*
X358074Y645351D01*
X357997Y645358D01*
X357921Y645368D01*
X357845Y645383D01*
X357770Y645402D01*
X357696Y645425D01*
X357624Y645452D01*
X357554Y645483D01*
X357485Y645518D01*
X357418Y645557D01*
X357353Y645599D01*
X357291Y645645D01*
X357232Y645694D01*
X357175Y645746D01*
X357121Y645801D01*
X357070Y645859D01*
X357023Y645920D01*
X356979Y645984D01*
X356939Y646049D01*
X356902Y646117D01*
X356869Y646187D01*
X356840Y646258D01*
X356815Y646332D01*
X356794Y646406D01*
X356777Y646481D01*
X356764Y646557D01*
X356756Y646634D01*
X356752Y646711D01*
Y646788D01*
X356756Y646865D01*
X356764Y646942D01*
X356777Y647018D01*
X356794Y647093D01*
X356815Y647167D01*
X356840Y647240D01*
X356869Y647312D01*
X356902Y647382D01*
X356939Y647449D01*
X356979Y647515D01*
X357023Y647579D01*
X357070Y647639D01*
X357121Y647698D01*
X357175Y647753D01*
X357232Y647805D01*
X357291Y647854D01*
X357353Y647900D01*
X357418Y647942D01*
X357485Y647981D01*
X357554Y648016D01*
X357624Y648047D01*
X357696Y648074D01*
X357770Y648097D01*
X357845Y648116D01*
X357921Y648130D01*
X357997Y648141D01*
X358074Y648147D01*
X358151Y648149D01*
X371351D01*
X371428Y648147D01*
D02*
G37*
G36*
X434366Y640246D02*
X434443Y640238D01*
X434519Y640225D01*
X434594Y640208D01*
X434668Y640187D01*
X434742Y640162D01*
X434813Y640133D01*
X434883Y640100D01*
X434951Y640064D01*
X435016Y640023D01*
X435080Y639979D01*
X435141Y639932D01*
X435199Y639881D01*
X435254Y639827D01*
X435306Y639771D01*
X435355Y639711D01*
X435401Y639649D01*
X435443Y639584D01*
X435482Y639517D01*
X435517Y639449D01*
X435548Y639378D01*
X435575Y639306D01*
X435598Y639232D01*
X435617Y639157D01*
X435632Y639081D01*
X435642Y639005D01*
X435649Y638928D01*
X435651Y638851D01*
Y625651D01*
X435649Y625574D01*
X435642Y625497D01*
X435632Y625421D01*
X435617Y625345D01*
X435598Y625270D01*
X435575Y625196D01*
X435548Y625124D01*
X435517Y625054D01*
X435482Y624985D01*
X435443Y624918D01*
X435401Y624853D01*
X435355Y624791D01*
X435306Y624732D01*
X435254Y624675D01*
X435199Y624621D01*
X435141Y624570D01*
X435080Y624523D01*
X435016Y624479D01*
X434951Y624439D01*
X434883Y624402D01*
X434813Y624369D01*
X434742Y624340D01*
X434668Y624315D01*
X434594Y624294D01*
X434519Y624277D01*
X434443Y624264D01*
X434366Y624256D01*
X434289Y624252D01*
X434212D01*
X434135Y624256D01*
X434058Y624264D01*
X433982Y624277D01*
X433907Y624294D01*
X433833Y624315D01*
X433760Y624340D01*
X433688Y624369D01*
X433618Y624402D01*
X433550Y624439D01*
X433485Y624479D01*
X433422Y624523D01*
X433361Y624570D01*
X433302Y624621D01*
X433247Y624675D01*
X433195Y624732D01*
X433146Y624791D01*
X433100Y624853D01*
X433058Y624918D01*
X433019Y624985D01*
X432984Y625054D01*
X432953Y625124D01*
X432926Y625196D01*
X432903Y625270D01*
X432884Y625345D01*
X432870Y625421D01*
X432859Y625497D01*
X432853Y625574D01*
X432850Y625651D01*
Y638851D01*
X432853Y638928D01*
X432859Y639005D01*
X432870Y639081D01*
X432884Y639157D01*
X432903Y639232D01*
X432926Y639306D01*
X432953Y639378D01*
X432984Y639449D01*
X433019Y639517D01*
X433058Y639584D01*
X433100Y639649D01*
X433146Y639711D01*
X433195Y639771D01*
X433247Y639827D01*
X433302Y639881D01*
X433361Y639932D01*
X433422Y639979D01*
X433485Y640023D01*
X433550Y640064D01*
X433618Y640100D01*
X433688Y640133D01*
X433760Y640162D01*
X433833Y640187D01*
X433907Y640208D01*
X433982Y640225D01*
X434058Y640238D01*
X434135Y640246D01*
X434212Y640251D01*
X434289D01*
X434366Y640246D01*
D02*
G37*
G36*
X429365D02*
X429442Y640238D01*
X429518Y640225D01*
X429593Y640208D01*
X429667Y640187D01*
X429740Y640162D01*
X429812Y640133D01*
X429882Y640100D01*
X429949Y640064D01*
X430015Y640023D01*
X430078Y639979D01*
X430139Y639932D01*
X430197Y639881D01*
X430253Y639827D01*
X430305Y639771D01*
X430354Y639711D01*
X430400Y639649D01*
X430442Y639584D01*
X430481Y639517D01*
X430516Y639449D01*
X430546Y639378D01*
X430573Y639306D01*
X430597Y639232D01*
X430616Y639157D01*
X430630Y639081D01*
X430641Y639005D01*
X430647Y638928D01*
X430649Y638851D01*
Y625651D01*
X430647Y625574D01*
X430641Y625497D01*
X430630Y625421D01*
X430616Y625345D01*
X430597Y625270D01*
X430573Y625196D01*
X430546Y625124D01*
X430516Y625054D01*
X430481Y624985D01*
X430442Y624918D01*
X430400Y624853D01*
X430354Y624791D01*
X430305Y624732D01*
X430253Y624675D01*
X430197Y624621D01*
X430139Y624570D01*
X430078Y624523D01*
X430015Y624479D01*
X429949Y624439D01*
X429882Y624402D01*
X429812Y624369D01*
X429740Y624340D01*
X429667Y624315D01*
X429593Y624294D01*
X429518Y624277D01*
X429442Y624264D01*
X429365Y624256D01*
X429288Y624252D01*
X429211D01*
X429134Y624256D01*
X429057Y624264D01*
X428981Y624277D01*
X428906Y624294D01*
X428831Y624315D01*
X428758Y624340D01*
X428687Y624369D01*
X428617Y624402D01*
X428549Y624439D01*
X428484Y624479D01*
X428420Y624523D01*
X428359Y624570D01*
X428301Y624621D01*
X428246Y624675D01*
X428193Y624732D01*
X428144Y624791D01*
X428099Y624853D01*
X428056Y624918D01*
X428018Y624985D01*
X427983Y625054D01*
X427952Y625124D01*
X427925Y625196D01*
X427902Y625270D01*
X427883Y625345D01*
X427868Y625421D01*
X427858Y625497D01*
X427851Y625574D01*
X427849Y625651D01*
Y638851D01*
X427851Y638928D01*
X427858Y639005D01*
X427868Y639081D01*
X427883Y639157D01*
X427902Y639232D01*
X427925Y639306D01*
X427952Y639378D01*
X427983Y639449D01*
X428018Y639517D01*
X428056Y639584D01*
X428099Y639649D01*
X428144Y639711D01*
X428193Y639771D01*
X428246Y639827D01*
X428301Y639881D01*
X428359Y639932D01*
X428420Y639979D01*
X428484Y640023D01*
X428549Y640064D01*
X428617Y640100D01*
X428687Y640133D01*
X428758Y640162D01*
X428831Y640187D01*
X428906Y640208D01*
X428981Y640225D01*
X429057Y640238D01*
X429134Y640246D01*
X429211Y640251D01*
X429288D01*
X429365Y640246D01*
D02*
G37*
G36*
X424366D02*
X424443Y640238D01*
X424519Y640225D01*
X424594Y640208D01*
X424668Y640187D01*
X424742Y640162D01*
X424813Y640133D01*
X424883Y640100D01*
X424951Y640064D01*
X425016Y640023D01*
X425080Y639979D01*
X425141Y639932D01*
X425199Y639881D01*
X425254Y639827D01*
X425307Y639771D01*
X425355Y639711D01*
X425401Y639649D01*
X425443Y639584D01*
X425482Y639517D01*
X425517Y639449D01*
X425548Y639378D01*
X425575Y639306D01*
X425598Y639232D01*
X425617Y639157D01*
X425632Y639081D01*
X425642Y639005D01*
X425649Y638928D01*
X425651Y638851D01*
Y625651D01*
X425649Y625574D01*
X425642Y625497D01*
X425632Y625421D01*
X425617Y625345D01*
X425598Y625270D01*
X425575Y625196D01*
X425548Y625124D01*
X425517Y625054D01*
X425482Y624985D01*
X425443Y624918D01*
X425401Y624853D01*
X425355Y624791D01*
X425307Y624732D01*
X425254Y624675D01*
X425199Y624621D01*
X425141Y624570D01*
X425080Y624523D01*
X425016Y624479D01*
X424951Y624439D01*
X424883Y624402D01*
X424813Y624369D01*
X424742Y624340D01*
X424668Y624315D01*
X424594Y624294D01*
X424519Y624277D01*
X424443Y624264D01*
X424366Y624256D01*
X424289Y624252D01*
X424212D01*
X424135Y624256D01*
X424058Y624264D01*
X423982Y624277D01*
X423907Y624294D01*
X423833Y624315D01*
X423760Y624340D01*
X423688Y624369D01*
X423618Y624402D01*
X423551Y624439D01*
X423485Y624479D01*
X423422Y624523D01*
X423361Y624570D01*
X423302Y624621D01*
X423247Y624675D01*
X423195Y624732D01*
X423146Y624791D01*
X423100Y624853D01*
X423058Y624918D01*
X423019Y624985D01*
X422984Y625054D01*
X422953Y625124D01*
X422926Y625196D01*
X422903Y625270D01*
X422884Y625345D01*
X422870Y625421D01*
X422859Y625497D01*
X422853Y625574D01*
X422850Y625651D01*
Y638851D01*
X422853Y638928D01*
X422859Y639005D01*
X422870Y639081D01*
X422884Y639157D01*
X422903Y639232D01*
X422926Y639306D01*
X422953Y639378D01*
X422984Y639449D01*
X423019Y639517D01*
X423058Y639584D01*
X423100Y639649D01*
X423146Y639711D01*
X423195Y639771D01*
X423247Y639827D01*
X423302Y639881D01*
X423361Y639932D01*
X423422Y639979D01*
X423485Y640023D01*
X423551Y640064D01*
X423618Y640100D01*
X423688Y640133D01*
X423760Y640162D01*
X423833Y640187D01*
X423907Y640208D01*
X423982Y640225D01*
X424058Y640238D01*
X424135Y640246D01*
X424212Y640251D01*
X424289D01*
X424366Y640246D01*
D02*
G37*
G36*
X419365D02*
X419442Y640238D01*
X419518Y640225D01*
X419593Y640208D01*
X419667Y640187D01*
X419740Y640162D01*
X419812Y640133D01*
X419882Y640100D01*
X419949Y640064D01*
X420015Y640023D01*
X420078Y639979D01*
X420139Y639932D01*
X420197Y639881D01*
X420253Y639827D01*
X420305Y639771D01*
X420354Y639711D01*
X420400Y639649D01*
X420442Y639584D01*
X420481Y639517D01*
X420516Y639449D01*
X420546Y639378D01*
X420573Y639306D01*
X420597Y639232D01*
X420616Y639157D01*
X420630Y639081D01*
X420641Y639005D01*
X420647Y638928D01*
X420649Y638851D01*
Y625651D01*
X420647Y625574D01*
X420641Y625497D01*
X420630Y625421D01*
X420616Y625345D01*
X420597Y625270D01*
X420573Y625196D01*
X420546Y625124D01*
X420516Y625054D01*
X420481Y624985D01*
X420442Y624918D01*
X420400Y624853D01*
X420354Y624791D01*
X420305Y624732D01*
X420253Y624675D01*
X420197Y624621D01*
X420139Y624570D01*
X420078Y624523D01*
X420015Y624479D01*
X419949Y624439D01*
X419882Y624402D01*
X419812Y624369D01*
X419740Y624340D01*
X419667Y624315D01*
X419593Y624294D01*
X419518Y624277D01*
X419442Y624264D01*
X419365Y624256D01*
X419288Y624252D01*
X419211D01*
X419134Y624256D01*
X419057Y624264D01*
X418981Y624277D01*
X418906Y624294D01*
X418831Y624315D01*
X418758Y624340D01*
X418687Y624369D01*
X418617Y624402D01*
X418549Y624439D01*
X418484Y624479D01*
X418420Y624523D01*
X418359Y624570D01*
X418301Y624621D01*
X418246Y624675D01*
X418193Y624732D01*
X418144Y624791D01*
X418099Y624853D01*
X418056Y624918D01*
X418018Y624985D01*
X417983Y625054D01*
X417952Y625124D01*
X417925Y625196D01*
X417902Y625270D01*
X417883Y625345D01*
X417868Y625421D01*
X417858Y625497D01*
X417851Y625574D01*
X417849Y625651D01*
Y638851D01*
X417851Y638928D01*
X417858Y639005D01*
X417868Y639081D01*
X417883Y639157D01*
X417902Y639232D01*
X417925Y639306D01*
X417952Y639378D01*
X417983Y639449D01*
X418018Y639517D01*
X418056Y639584D01*
X418099Y639649D01*
X418144Y639711D01*
X418193Y639771D01*
X418246Y639827D01*
X418301Y639881D01*
X418359Y639932D01*
X418420Y639979D01*
X418484Y640023D01*
X418549Y640064D01*
X418617Y640100D01*
X418687Y640133D01*
X418758Y640162D01*
X418831Y640187D01*
X418906Y640208D01*
X418981Y640225D01*
X419057Y640238D01*
X419134Y640246D01*
X419211Y640251D01*
X419288D01*
X419365Y640246D01*
D02*
G37*
G36*
X414366D02*
X414443Y640238D01*
X414519Y640225D01*
X414594Y640208D01*
X414668Y640187D01*
X414742Y640162D01*
X414813Y640133D01*
X414883Y640100D01*
X414951Y640064D01*
X415016Y640023D01*
X415080Y639979D01*
X415141Y639932D01*
X415199Y639881D01*
X415254Y639827D01*
X415307Y639771D01*
X415355Y639711D01*
X415401Y639649D01*
X415443Y639584D01*
X415482Y639517D01*
X415517Y639449D01*
X415548Y639378D01*
X415575Y639306D01*
X415598Y639232D01*
X415617Y639157D01*
X415632Y639081D01*
X415642Y639005D01*
X415649Y638928D01*
X415651Y638851D01*
Y625651D01*
X415649Y625574D01*
X415642Y625497D01*
X415632Y625421D01*
X415617Y625345D01*
X415598Y625270D01*
X415575Y625196D01*
X415548Y625124D01*
X415517Y625054D01*
X415482Y624985D01*
X415443Y624918D01*
X415401Y624853D01*
X415355Y624791D01*
X415307Y624732D01*
X415254Y624675D01*
X415199Y624621D01*
X415141Y624570D01*
X415080Y624523D01*
X415016Y624479D01*
X414951Y624439D01*
X414883Y624402D01*
X414813Y624369D01*
X414742Y624340D01*
X414668Y624315D01*
X414594Y624294D01*
X414519Y624277D01*
X414443Y624264D01*
X414366Y624256D01*
X414289Y624252D01*
X414212D01*
X414135Y624256D01*
X414058Y624264D01*
X413982Y624277D01*
X413907Y624294D01*
X413833Y624315D01*
X413760Y624340D01*
X413688Y624369D01*
X413618Y624402D01*
X413551Y624439D01*
X413485Y624479D01*
X413422Y624523D01*
X413361Y624570D01*
X413302Y624621D01*
X413247Y624675D01*
X413195Y624732D01*
X413146Y624791D01*
X413100Y624853D01*
X413058Y624918D01*
X413019Y624985D01*
X412984Y625054D01*
X412953Y625124D01*
X412926Y625196D01*
X412903Y625270D01*
X412884Y625345D01*
X412870Y625421D01*
X412859Y625497D01*
X412853Y625574D01*
X412851Y625651D01*
Y638851D01*
X412853Y638928D01*
X412859Y639005D01*
X412870Y639081D01*
X412884Y639157D01*
X412903Y639232D01*
X412926Y639306D01*
X412953Y639378D01*
X412984Y639449D01*
X413019Y639517D01*
X413058Y639584D01*
X413100Y639649D01*
X413146Y639711D01*
X413195Y639771D01*
X413247Y639827D01*
X413302Y639881D01*
X413361Y639932D01*
X413422Y639979D01*
X413485Y640023D01*
X413551Y640064D01*
X413618Y640100D01*
X413688Y640133D01*
X413760Y640162D01*
X413833Y640187D01*
X413907Y640208D01*
X413982Y640225D01*
X414058Y640238D01*
X414135Y640246D01*
X414212Y640251D01*
X414289D01*
X414366Y640246D01*
D02*
G37*
G36*
X409365D02*
X409442Y640238D01*
X409518Y640225D01*
X409593Y640208D01*
X409667Y640187D01*
X409740Y640162D01*
X409812Y640133D01*
X409882Y640100D01*
X409949Y640064D01*
X410015Y640023D01*
X410078Y639979D01*
X410139Y639932D01*
X410197Y639881D01*
X410253Y639827D01*
X410305Y639771D01*
X410354Y639711D01*
X410400Y639649D01*
X410442Y639584D01*
X410481Y639517D01*
X410516Y639449D01*
X410546Y639378D01*
X410573Y639306D01*
X410597Y639232D01*
X410616Y639157D01*
X410630Y639081D01*
X410641Y639005D01*
X410647Y638928D01*
X410649Y638851D01*
Y625651D01*
X410647Y625574D01*
X410641Y625497D01*
X410630Y625421D01*
X410616Y625345D01*
X410597Y625270D01*
X410573Y625196D01*
X410546Y625124D01*
X410516Y625054D01*
X410481Y624985D01*
X410442Y624918D01*
X410400Y624853D01*
X410354Y624791D01*
X410305Y624732D01*
X410253Y624675D01*
X410197Y624621D01*
X410139Y624570D01*
X410078Y624523D01*
X410015Y624479D01*
X409949Y624439D01*
X409882Y624402D01*
X409812Y624369D01*
X409740Y624340D01*
X409667Y624315D01*
X409593Y624294D01*
X409518Y624277D01*
X409442Y624264D01*
X409365Y624256D01*
X409288Y624252D01*
X409211D01*
X409134Y624256D01*
X409057Y624264D01*
X408981Y624277D01*
X408906Y624294D01*
X408831Y624315D01*
X408758Y624340D01*
X408687Y624369D01*
X408617Y624402D01*
X408549Y624439D01*
X408484Y624479D01*
X408420Y624523D01*
X408359Y624570D01*
X408301Y624621D01*
X408246Y624675D01*
X408194Y624732D01*
X408144Y624791D01*
X408099Y624853D01*
X408057Y624918D01*
X408018Y624985D01*
X407983Y625054D01*
X407952Y625124D01*
X407925Y625196D01*
X407902Y625270D01*
X407883Y625345D01*
X407868Y625421D01*
X407858Y625497D01*
X407851Y625574D01*
X407849Y625651D01*
Y638851D01*
X407851Y638928D01*
X407858Y639005D01*
X407868Y639081D01*
X407883Y639157D01*
X407902Y639232D01*
X407925Y639306D01*
X407952Y639378D01*
X407983Y639449D01*
X408018Y639517D01*
X408057Y639584D01*
X408099Y639649D01*
X408144Y639711D01*
X408194Y639771D01*
X408246Y639827D01*
X408301Y639881D01*
X408359Y639932D01*
X408420Y639979D01*
X408484Y640023D01*
X408549Y640064D01*
X408617Y640100D01*
X408687Y640133D01*
X408758Y640162D01*
X408831Y640187D01*
X408906Y640208D01*
X408981Y640225D01*
X409057Y640238D01*
X409134Y640246D01*
X409211Y640251D01*
X409288D01*
X409365Y640246D01*
D02*
G37*
G36*
X404366D02*
X404443Y640238D01*
X404519Y640225D01*
X404594Y640208D01*
X404669Y640187D01*
X404742Y640162D01*
X404813Y640133D01*
X404883Y640100D01*
X404951Y640064D01*
X405016Y640023D01*
X405080Y639979D01*
X405141Y639932D01*
X405199Y639881D01*
X405254Y639827D01*
X405307Y639771D01*
X405355Y639711D01*
X405401Y639649D01*
X405443Y639584D01*
X405482Y639517D01*
X405517Y639449D01*
X405548Y639378D01*
X405575Y639306D01*
X405598Y639232D01*
X405617Y639157D01*
X405632Y639081D01*
X405642Y639005D01*
X405649Y638928D01*
X405651Y638851D01*
Y625651D01*
X405649Y625574D01*
X405642Y625497D01*
X405632Y625421D01*
X405617Y625345D01*
X405598Y625270D01*
X405575Y625196D01*
X405548Y625124D01*
X405517Y625054D01*
X405482Y624985D01*
X405443Y624918D01*
X405401Y624853D01*
X405355Y624791D01*
X405307Y624732D01*
X405254Y624675D01*
X405199Y624621D01*
X405141Y624570D01*
X405080Y624523D01*
X405016Y624479D01*
X404951Y624439D01*
X404883Y624402D01*
X404813Y624369D01*
X404742Y624340D01*
X404669Y624315D01*
X404594Y624294D01*
X404519Y624277D01*
X404443Y624264D01*
X404366Y624256D01*
X404289Y624252D01*
X404212D01*
X404135Y624256D01*
X404058Y624264D01*
X403982Y624277D01*
X403907Y624294D01*
X403833Y624315D01*
X403760Y624340D01*
X403688Y624369D01*
X403618Y624402D01*
X403551Y624439D01*
X403485Y624479D01*
X403422Y624523D01*
X403361Y624570D01*
X403302Y624621D01*
X403247Y624675D01*
X403195Y624732D01*
X403146Y624791D01*
X403100Y624853D01*
X403058Y624918D01*
X403019Y624985D01*
X402984Y625054D01*
X402953Y625124D01*
X402926Y625196D01*
X402903Y625270D01*
X402884Y625345D01*
X402870Y625421D01*
X402859Y625497D01*
X402853Y625574D01*
X402851Y625651D01*
Y638851D01*
X402853Y638928D01*
X402859Y639005D01*
X402870Y639081D01*
X402884Y639157D01*
X402903Y639232D01*
X402926Y639306D01*
X402953Y639378D01*
X402984Y639449D01*
X403019Y639517D01*
X403058Y639584D01*
X403100Y639649D01*
X403146Y639711D01*
X403195Y639771D01*
X403247Y639827D01*
X403302Y639881D01*
X403361Y639932D01*
X403422Y639979D01*
X403485Y640023D01*
X403551Y640064D01*
X403618Y640100D01*
X403688Y640133D01*
X403760Y640162D01*
X403833Y640187D01*
X403907Y640208D01*
X403982Y640225D01*
X404058Y640238D01*
X404135Y640246D01*
X404212Y640251D01*
X404289D01*
X404366Y640246D01*
D02*
G37*
G36*
X399365D02*
X399442Y640238D01*
X399518Y640225D01*
X399593Y640208D01*
X399667Y640187D01*
X399740Y640162D01*
X399812Y640133D01*
X399882Y640100D01*
X399949Y640064D01*
X400015Y640023D01*
X400078Y639979D01*
X400139Y639932D01*
X400197Y639881D01*
X400253Y639827D01*
X400305Y639771D01*
X400354Y639711D01*
X400400Y639649D01*
X400442Y639584D01*
X400481Y639517D01*
X400516Y639449D01*
X400546Y639378D01*
X400574Y639306D01*
X400597Y639232D01*
X400616Y639157D01*
X400630Y639081D01*
X400641Y639005D01*
X400647Y638928D01*
X400649Y638851D01*
Y625651D01*
X400647Y625574D01*
X400641Y625497D01*
X400630Y625421D01*
X400616Y625345D01*
X400597Y625270D01*
X400574Y625196D01*
X400546Y625124D01*
X400516Y625054D01*
X400481Y624985D01*
X400442Y624918D01*
X400400Y624853D01*
X400354Y624791D01*
X400305Y624732D01*
X400253Y624675D01*
X400197Y624621D01*
X400139Y624570D01*
X400078Y624523D01*
X400015Y624479D01*
X399949Y624439D01*
X399882Y624402D01*
X399812Y624369D01*
X399740Y624340D01*
X399667Y624315D01*
X399593Y624294D01*
X399518Y624277D01*
X399442Y624264D01*
X399365Y624256D01*
X399288Y624252D01*
X399211D01*
X399134Y624256D01*
X399057Y624264D01*
X398981Y624277D01*
X398906Y624294D01*
X398831Y624315D01*
X398758Y624340D01*
X398687Y624369D01*
X398617Y624402D01*
X398549Y624439D01*
X398484Y624479D01*
X398420Y624523D01*
X398359Y624570D01*
X398301Y624621D01*
X398246Y624675D01*
X398194Y624732D01*
X398144Y624791D01*
X398099Y624853D01*
X398057Y624918D01*
X398018Y624985D01*
X397983Y625054D01*
X397952Y625124D01*
X397925Y625196D01*
X397902Y625270D01*
X397883Y625345D01*
X397868Y625421D01*
X397858Y625497D01*
X397851Y625574D01*
X397849Y625651D01*
Y638851D01*
X397851Y638928D01*
X397858Y639005D01*
X397868Y639081D01*
X397883Y639157D01*
X397902Y639232D01*
X397925Y639306D01*
X397952Y639378D01*
X397983Y639449D01*
X398018Y639517D01*
X398057Y639584D01*
X398099Y639649D01*
X398144Y639711D01*
X398194Y639771D01*
X398246Y639827D01*
X398301Y639881D01*
X398359Y639932D01*
X398420Y639979D01*
X398484Y640023D01*
X398549Y640064D01*
X398617Y640100D01*
X398687Y640133D01*
X398758Y640162D01*
X398831Y640187D01*
X398906Y640208D01*
X398981Y640225D01*
X399057Y640238D01*
X399134Y640246D01*
X399211Y640251D01*
X399288D01*
X399365Y640246D01*
D02*
G37*
G36*
X394366D02*
X394443Y640238D01*
X394519Y640225D01*
X394594Y640208D01*
X394669Y640187D01*
X394742Y640162D01*
X394813Y640133D01*
X394883Y640100D01*
X394951Y640064D01*
X395017Y640023D01*
X395080Y639979D01*
X395141Y639932D01*
X395199Y639881D01*
X395254Y639827D01*
X395307Y639771D01*
X395355Y639711D01*
X395401Y639649D01*
X395443Y639584D01*
X395482Y639517D01*
X395517Y639449D01*
X395548Y639378D01*
X395575Y639306D01*
X395598Y639232D01*
X395617Y639157D01*
X395632Y639081D01*
X395642Y639005D01*
X395649Y638928D01*
X395651Y638851D01*
Y625651D01*
X395649Y625574D01*
X395642Y625497D01*
X395632Y625421D01*
X395617Y625345D01*
X395598Y625270D01*
X395575Y625196D01*
X395548Y625124D01*
X395517Y625054D01*
X395482Y624985D01*
X395443Y624918D01*
X395401Y624853D01*
X395355Y624791D01*
X395307Y624732D01*
X395254Y624675D01*
X395199Y624621D01*
X395141Y624570D01*
X395080Y624523D01*
X395017Y624479D01*
X394951Y624439D01*
X394883Y624402D01*
X394813Y624369D01*
X394742Y624340D01*
X394669Y624315D01*
X394594Y624294D01*
X394519Y624277D01*
X394443Y624264D01*
X394366Y624256D01*
X394289Y624252D01*
X394212D01*
X394135Y624256D01*
X394058Y624264D01*
X393982Y624277D01*
X393907Y624294D01*
X393833Y624315D01*
X393760Y624340D01*
X393688Y624369D01*
X393618Y624402D01*
X393551Y624439D01*
X393485Y624479D01*
X393422Y624523D01*
X393361Y624570D01*
X393302Y624621D01*
X393247Y624675D01*
X393195Y624732D01*
X393146Y624791D01*
X393100Y624853D01*
X393058Y624918D01*
X393019Y624985D01*
X392985Y625054D01*
X392953Y625124D01*
X392926Y625196D01*
X392903Y625270D01*
X392884Y625345D01*
X392870Y625421D01*
X392859Y625497D01*
X392853Y625574D01*
X392851Y625651D01*
Y638851D01*
X392853Y638928D01*
X392859Y639005D01*
X392870Y639081D01*
X392884Y639157D01*
X392903Y639232D01*
X392926Y639306D01*
X392953Y639378D01*
X392985Y639449D01*
X393019Y639517D01*
X393058Y639584D01*
X393100Y639649D01*
X393146Y639711D01*
X393195Y639771D01*
X393247Y639827D01*
X393302Y639881D01*
X393361Y639932D01*
X393422Y639979D01*
X393485Y640023D01*
X393551Y640064D01*
X393618Y640100D01*
X393688Y640133D01*
X393760Y640162D01*
X393833Y640187D01*
X393907Y640208D01*
X393982Y640225D01*
X394058Y640238D01*
X394135Y640246D01*
X394212Y640251D01*
X394289D01*
X394366Y640246D01*
D02*
G37*
G36*
X389365D02*
X389442Y640238D01*
X389518Y640225D01*
X389593Y640208D01*
X389667Y640187D01*
X389740Y640162D01*
X389812Y640133D01*
X389882Y640100D01*
X389949Y640064D01*
X390015Y640023D01*
X390078Y639979D01*
X390139Y639932D01*
X390198Y639881D01*
X390253Y639827D01*
X390305Y639771D01*
X390354Y639711D01*
X390400Y639649D01*
X390442Y639584D01*
X390481Y639517D01*
X390516Y639449D01*
X390547Y639378D01*
X390574Y639306D01*
X390597Y639232D01*
X390616Y639157D01*
X390630Y639081D01*
X390641Y639005D01*
X390647Y638928D01*
X390649Y638851D01*
Y625651D01*
X390647Y625574D01*
X390641Y625497D01*
X390630Y625421D01*
X390616Y625345D01*
X390597Y625270D01*
X390574Y625196D01*
X390547Y625124D01*
X390516Y625054D01*
X390481Y624985D01*
X390442Y624918D01*
X390400Y624853D01*
X390354Y624791D01*
X390305Y624732D01*
X390253Y624675D01*
X390198Y624621D01*
X390139Y624570D01*
X390078Y624523D01*
X390015Y624479D01*
X389949Y624439D01*
X389882Y624402D01*
X389812Y624369D01*
X389740Y624340D01*
X389667Y624315D01*
X389593Y624294D01*
X389518Y624277D01*
X389442Y624264D01*
X389365Y624256D01*
X389288Y624252D01*
X389211D01*
X389134Y624256D01*
X389057Y624264D01*
X388981Y624277D01*
X388906Y624294D01*
X388832Y624315D01*
X388758Y624340D01*
X388687Y624369D01*
X388617Y624402D01*
X388549Y624439D01*
X388484Y624479D01*
X388420Y624523D01*
X388359Y624570D01*
X388301Y624621D01*
X388246Y624675D01*
X388194Y624732D01*
X388144Y624791D01*
X388099Y624853D01*
X388057Y624918D01*
X388018Y624985D01*
X387983Y625054D01*
X387952Y625124D01*
X387925Y625196D01*
X387902Y625270D01*
X387883Y625345D01*
X387868Y625421D01*
X387858Y625497D01*
X387851Y625574D01*
X387849Y625651D01*
Y638851D01*
X387851Y638928D01*
X387858Y639005D01*
X387868Y639081D01*
X387883Y639157D01*
X387902Y639232D01*
X387925Y639306D01*
X387952Y639378D01*
X387983Y639449D01*
X388018Y639517D01*
X388057Y639584D01*
X388099Y639649D01*
X388144Y639711D01*
X388194Y639771D01*
X388246Y639827D01*
X388301Y639881D01*
X388359Y639932D01*
X388420Y639979D01*
X388484Y640023D01*
X388549Y640064D01*
X388617Y640100D01*
X388687Y640133D01*
X388758Y640162D01*
X388832Y640187D01*
X388906Y640208D01*
X388981Y640225D01*
X389057Y640238D01*
X389134Y640246D01*
X389211Y640251D01*
X389288D01*
X389365Y640246D01*
D02*
G37*
G36*
X384366D02*
X384443Y640238D01*
X384519Y640225D01*
X384594Y640208D01*
X384669Y640187D01*
X384742Y640162D01*
X384813Y640133D01*
X384883Y640100D01*
X384951Y640064D01*
X385017Y640023D01*
X385080Y639979D01*
X385141Y639932D01*
X385199Y639881D01*
X385254Y639827D01*
X385307Y639771D01*
X385356Y639711D01*
X385401Y639649D01*
X385443Y639584D01*
X385482Y639517D01*
X385517Y639449D01*
X385548Y639378D01*
X385575Y639306D01*
X385598Y639232D01*
X385617Y639157D01*
X385632Y639081D01*
X385642Y639005D01*
X385649Y638928D01*
X385651Y638851D01*
Y625651D01*
X385649Y625574D01*
X385642Y625497D01*
X385632Y625421D01*
X385617Y625345D01*
X385598Y625270D01*
X385575Y625196D01*
X385548Y625124D01*
X385517Y625054D01*
X385482Y624985D01*
X385443Y624918D01*
X385401Y624853D01*
X385356Y624791D01*
X385307Y624732D01*
X385254Y624675D01*
X385199Y624621D01*
X385141Y624570D01*
X385080Y624523D01*
X385017Y624479D01*
X384951Y624439D01*
X384883Y624402D01*
X384813Y624369D01*
X384742Y624340D01*
X384669Y624315D01*
X384594Y624294D01*
X384519Y624277D01*
X384443Y624264D01*
X384366Y624256D01*
X384289Y624252D01*
X384212D01*
X384135Y624256D01*
X384058Y624264D01*
X383982Y624277D01*
X383907Y624294D01*
X383833Y624315D01*
X383760Y624340D01*
X383688Y624369D01*
X383619Y624402D01*
X383551Y624439D01*
X383485Y624479D01*
X383422Y624523D01*
X383361Y624570D01*
X383302Y624621D01*
X383247Y624675D01*
X383195Y624732D01*
X383146Y624791D01*
X383100Y624853D01*
X383058Y624918D01*
X383019Y624985D01*
X382985Y625054D01*
X382953Y625124D01*
X382927Y625196D01*
X382904Y625270D01*
X382884Y625345D01*
X382870Y625421D01*
X382859Y625497D01*
X382853Y625574D01*
X382851Y625651D01*
Y638851D01*
X382853Y638928D01*
X382859Y639005D01*
X382870Y639081D01*
X382884Y639157D01*
X382904Y639232D01*
X382927Y639306D01*
X382953Y639378D01*
X382985Y639449D01*
X383019Y639517D01*
X383058Y639584D01*
X383100Y639649D01*
X383146Y639711D01*
X383195Y639771D01*
X383247Y639827D01*
X383302Y639881D01*
X383361Y639932D01*
X383422Y639979D01*
X383485Y640023D01*
X383551Y640064D01*
X383619Y640100D01*
X383688Y640133D01*
X383760Y640162D01*
X383833Y640187D01*
X383907Y640208D01*
X383982Y640225D01*
X384058Y640238D01*
X384135Y640246D01*
X384212Y640251D01*
X384289D01*
X384366Y640246D01*
D02*
G37*
G36*
X379365D02*
X379442Y640238D01*
X379518Y640225D01*
X379593Y640208D01*
X379667Y640187D01*
X379740Y640162D01*
X379812Y640133D01*
X379882Y640100D01*
X379949Y640064D01*
X380015Y640023D01*
X380079Y639979D01*
X380139Y639932D01*
X380198Y639881D01*
X380253Y639827D01*
X380305Y639771D01*
X380354Y639711D01*
X380400Y639649D01*
X380442Y639584D01*
X380481Y639517D01*
X380516Y639449D01*
X380547Y639378D01*
X380574Y639306D01*
X380597Y639232D01*
X380616Y639157D01*
X380630Y639081D01*
X380641Y639005D01*
X380647Y638928D01*
X380649Y638851D01*
Y625651D01*
X380647Y625574D01*
X380641Y625497D01*
X380630Y625421D01*
X380616Y625345D01*
X380597Y625270D01*
X380574Y625196D01*
X380547Y625124D01*
X380516Y625054D01*
X380481Y624985D01*
X380442Y624918D01*
X380400Y624853D01*
X380354Y624791D01*
X380305Y624732D01*
X380253Y624675D01*
X380198Y624621D01*
X380139Y624570D01*
X380079Y624523D01*
X380015Y624479D01*
X379949Y624439D01*
X379882Y624402D01*
X379812Y624369D01*
X379740Y624340D01*
X379667Y624315D01*
X379593Y624294D01*
X379518Y624277D01*
X379442Y624264D01*
X379365Y624256D01*
X379288Y624252D01*
X379211D01*
X379134Y624256D01*
X379057Y624264D01*
X378981Y624277D01*
X378906Y624294D01*
X378832Y624315D01*
X378758Y624340D01*
X378687Y624369D01*
X378617Y624402D01*
X378549Y624439D01*
X378484Y624479D01*
X378420Y624523D01*
X378359Y624570D01*
X378301Y624621D01*
X378246Y624675D01*
X378194Y624732D01*
X378144Y624791D01*
X378099Y624853D01*
X378057Y624918D01*
X378018Y624985D01*
X377983Y625054D01*
X377952Y625124D01*
X377925Y625196D01*
X377902Y625270D01*
X377883Y625345D01*
X377868Y625421D01*
X377858Y625497D01*
X377851Y625574D01*
X377849Y625651D01*
Y638851D01*
X377851Y638928D01*
X377858Y639005D01*
X377868Y639081D01*
X377883Y639157D01*
X377902Y639232D01*
X377925Y639306D01*
X377952Y639378D01*
X377983Y639449D01*
X378018Y639517D01*
X378057Y639584D01*
X378099Y639649D01*
X378144Y639711D01*
X378194Y639771D01*
X378246Y639827D01*
X378301Y639881D01*
X378359Y639932D01*
X378420Y639979D01*
X378484Y640023D01*
X378549Y640064D01*
X378617Y640100D01*
X378687Y640133D01*
X378758Y640162D01*
X378832Y640187D01*
X378906Y640208D01*
X378981Y640225D01*
X379057Y640238D01*
X379134Y640246D01*
X379211Y640251D01*
X379288D01*
X379365Y640246D01*
D02*
G37*
D24*
X835000Y250500D02*
D03*
Y219500D02*
D03*
X870000Y250500D02*
D03*
Y219500D02*
D03*
X905000Y250500D02*
D03*
Y219500D02*
D03*
X940000Y250500D02*
D03*
Y219500D02*
D03*
X975000Y250500D02*
D03*
Y219500D02*
D03*
X1010000Y250500D02*
D03*
Y219500D02*
D03*
D25*
X481500Y892500D02*
D03*
Y908000D02*
D03*
X837750Y621500D02*
D03*
Y637000D02*
D03*
X711000Y558500D02*
D03*
Y574000D02*
D03*
X621000Y536000D02*
D03*
Y551500D02*
D03*
X414501Y581501D02*
D03*
Y597001D02*
D03*
X494501Y722751D02*
D03*
Y707251D02*
D03*
X333251Y710251D02*
D03*
Y725751D02*
D03*
X334251Y622001D02*
D03*
Y637501D02*
D03*
X400251Y581501D02*
D03*
Y597001D02*
D03*
X334251Y664501D02*
D03*
Y649001D02*
D03*
X512251Y662251D02*
D03*
Y677751D02*
D03*
X951000Y402000D02*
D03*
Y417500D02*
D03*
X569500Y179000D02*
D03*
Y163500D02*
D03*
X601000Y178750D02*
D03*
Y163250D02*
D03*
X681500Y400750D02*
D03*
Y385250D02*
D03*
X632500Y178750D02*
D03*
Y163250D02*
D03*
X684591Y275000D02*
D03*
Y290500D02*
D03*
X713432Y275000D02*
D03*
Y290500D02*
D03*
X742023Y275000D02*
D03*
Y290500D02*
D03*
X770614Y275000D02*
D03*
Y290500D02*
D03*
X801954Y275250D02*
D03*
Y290750D02*
D03*
X655750Y275000D02*
D03*
Y290500D02*
D03*
X621250Y634750D02*
D03*
Y650250D02*
D03*
X443250Y503000D02*
D03*
Y518500D02*
D03*
X428000Y503000D02*
D03*
Y518500D02*
D03*
X311125Y469000D02*
D03*
Y484500D02*
D03*
X326250Y469000D02*
D03*
Y484500D02*
D03*
X296750Y469000D02*
D03*
Y484500D02*
D03*
X210750Y375250D02*
D03*
Y359750D02*
D03*
X941000Y560500D02*
D03*
Y545000D02*
D03*
X800250Y486000D02*
D03*
Y501500D02*
D03*
X736500Y500000D02*
D03*
Y484500D02*
D03*
X883250Y584750D02*
D03*
Y600250D02*
D03*
X837750Y592250D02*
D03*
Y607750D02*
D03*
X852750Y592250D02*
D03*
Y607750D02*
D03*
X868250Y600250D02*
D03*
Y584750D02*
D03*
D26*
X718500Y836000D02*
D03*
X734000D02*
D03*
X743750Y530000D02*
D03*
X728250D02*
D03*
X735750Y656750D02*
D03*
X751250D02*
D03*
X478208Y729751D02*
D03*
X462708D02*
D03*
X506750Y971250D02*
D03*
X522250D02*
D03*
X347250Y957500D02*
D03*
X331750D02*
D03*
X556000Y786000D02*
D03*
X540500D02*
D03*
X497749Y609501D02*
D03*
X482249D02*
D03*
X347000Y921750D02*
D03*
X331500D02*
D03*
X500500Y785500D02*
D03*
X485000D02*
D03*
X347000Y886250D02*
D03*
X331500D02*
D03*
X102000Y622250D02*
D03*
X117500D02*
D03*
X396251Y747251D02*
D03*
X411751D02*
D03*
X102250Y730250D02*
D03*
X117750D02*
D03*
X520000Y367000D02*
D03*
X535500D02*
D03*
X583000Y474250D02*
D03*
X598500D02*
D03*
X561750Y364750D02*
D03*
X577250D02*
D03*
X710500Y364500D02*
D03*
X695000D02*
D03*
X88500Y317000D02*
D03*
X73000D02*
D03*
X267500Y320250D02*
D03*
X283000D02*
D03*
X226750Y228500D02*
D03*
X242250D02*
D03*
D27*
X868500Y611500D02*
D03*
Y627000D02*
D03*
X462958Y759251D02*
D03*
Y743751D02*
D03*
X477458Y759251D02*
D03*
Y743751D02*
D03*
X414501Y570251D02*
D03*
Y554751D02*
D03*
X319001Y710251D02*
D03*
Y725751D02*
D03*
X320251Y622001D02*
D03*
Y606501D02*
D03*
X399751Y570251D02*
D03*
Y554751D02*
D03*
X645250Y399750D02*
D03*
Y384250D02*
D03*
X632000Y209000D02*
D03*
Y193500D02*
D03*
X647750Y179000D02*
D03*
Y163500D02*
D03*
X699000Y316250D02*
D03*
Y300750D02*
D03*
X727250Y316250D02*
D03*
Y300750D02*
D03*
X755750Y316250D02*
D03*
Y300750D02*
D03*
X784500Y316250D02*
D03*
Y300750D02*
D03*
X815750Y316500D02*
D03*
Y301000D02*
D03*
X669546Y316250D02*
D03*
Y300750D02*
D03*
X880250Y665250D02*
D03*
Y649750D02*
D03*
X545000Y267250D02*
D03*
Y282750D02*
D03*
X540250Y391500D02*
D03*
Y407000D02*
D03*
X569000Y208750D02*
D03*
Y193250D02*
D03*
X584750Y179000D02*
D03*
Y163500D02*
D03*
X600500Y209000D02*
D03*
Y193500D02*
D03*
X616250Y179000D02*
D03*
Y163500D02*
D03*
X117000Y421750D02*
D03*
Y437250D02*
D03*
X112750Y368750D02*
D03*
Y353250D02*
D03*
X64750Y361750D02*
D03*
Y377250D02*
D03*
X72750Y407000D02*
D03*
Y422500D02*
D03*
X677750Y767750D02*
D03*
Y752250D02*
D03*
X698386Y290500D02*
D03*
Y275000D02*
D03*
X727227Y290500D02*
D03*
Y275000D02*
D03*
X755818Y290500D02*
D03*
Y275000D02*
D03*
X784409Y290500D02*
D03*
Y275000D02*
D03*
X815750Y290750D02*
D03*
Y275250D02*
D03*
X669546Y290500D02*
D03*
Y275000D02*
D03*
X245250Y215750D02*
D03*
Y200250D02*
D03*
X224000Y216000D02*
D03*
Y200500D02*
D03*
D28*
X965000Y644000D02*
D03*
X949500D02*
D03*
X965000Y593000D02*
D03*
X949500D02*
D03*
X992500Y593250D02*
D03*
X977000D02*
D03*
X993000Y644000D02*
D03*
X977500D02*
D03*
X604750Y610250D02*
D03*
X620250D02*
D03*
X949500Y608750D02*
D03*
X965000D02*
D03*
X506250Y956250D02*
D03*
X521750D02*
D03*
X399750Y957750D02*
D03*
X384250D02*
D03*
X347000Y971750D02*
D03*
X331500D02*
D03*
X556000Y801000D02*
D03*
X540500D02*
D03*
X399750Y922250D02*
D03*
X384250D02*
D03*
X250250Y802500D02*
D03*
X234750D02*
D03*
X210250Y730000D02*
D03*
X225750D02*
D03*
X347000Y935750D02*
D03*
X331500D02*
D03*
X500500Y800500D02*
D03*
X485000D02*
D03*
X166750Y802500D02*
D03*
X151250D02*
D03*
X163500Y730000D02*
D03*
X179000D02*
D03*
X399750Y886500D02*
D03*
X384250D02*
D03*
X347000Y900750D02*
D03*
X331500D02*
D03*
X524251Y707501D02*
D03*
X508751D02*
D03*
X524251Y723251D02*
D03*
X508751D02*
D03*
X252500Y694250D02*
D03*
X237000D02*
D03*
X210250Y621500D02*
D03*
X225750D02*
D03*
X497749Y593751D02*
D03*
X482249D02*
D03*
X382751Y747251D02*
D03*
X367251D02*
D03*
X167000Y695000D02*
D03*
X151500D02*
D03*
X163500Y621500D02*
D03*
X179000D02*
D03*
X367001Y762251D02*
D03*
X382501D02*
D03*
X604000Y708000D02*
D03*
X619500D02*
D03*
X564250Y918750D02*
D03*
X579750D02*
D03*
X620250D02*
D03*
X604750D02*
D03*
X937250Y381250D02*
D03*
X921750D02*
D03*
X894000D02*
D03*
X909500D02*
D03*
X409500Y380000D02*
D03*
X425000D02*
D03*
Y394250D02*
D03*
X409500D02*
D03*
X423000Y279500D02*
D03*
X407500D02*
D03*
X892500Y650000D02*
D03*
X908000D02*
D03*
X964750Y629500D02*
D03*
X949250D02*
D03*
X470000Y380000D02*
D03*
X485500D02*
D03*
X485750Y394250D02*
D03*
X470250D02*
D03*
X583000Y439250D02*
D03*
X598500D02*
D03*
X89000Y421750D02*
D03*
X104500D02*
D03*
X112500Y339000D02*
D03*
X97000D02*
D03*
X165500Y414250D02*
D03*
X150000D02*
D03*
Y428000D02*
D03*
X165500D02*
D03*
X73000Y442500D02*
D03*
X88500D02*
D03*
X682500Y852750D02*
D03*
X667000D02*
D03*
X703000Y767250D02*
D03*
X718500D02*
D03*
X791000Y520250D02*
D03*
X775500D02*
D03*
X469250Y279500D02*
D03*
X484750D02*
D03*
D29*
X336750Y172000D02*
D03*
Y156500D02*
D03*
X356500Y156250D02*
D03*
Y171750D02*
D03*
X545000Y151750D02*
D03*
Y167250D02*
D03*
X336000Y270500D02*
D03*
Y255000D02*
D03*
X317500D02*
D03*
Y270500D02*
D03*
X193500Y823750D02*
D03*
Y839250D02*
D03*
X175750Y823750D02*
D03*
Y839250D02*
D03*
X126250D02*
D03*
Y823750D02*
D03*
X243500Y839250D02*
D03*
Y823750D02*
D03*
D30*
X242750Y497000D02*
D03*
X222750D02*
D03*
X242750Y479750D02*
D03*
X222750D02*
D03*
X147250Y249000D02*
D03*
X167250D02*
D03*
X39750Y275000D02*
D03*
X19750D02*
D03*
X175500Y357500D02*
D03*
X155500D02*
D03*
X248000Y247250D02*
D03*
X228000D02*
D03*
X262000Y216000D02*
D03*
X282000D02*
D03*
X406000Y324750D02*
D03*
X426000D02*
D03*
X467500D02*
D03*
X487500D02*
D03*
X940250Y524500D02*
D03*
X920250Y524500D02*
D03*
X674750Y917250D02*
D03*
X654750D02*
D03*
X674500Y896750D02*
D03*
X654500D02*
D03*
D31*
X266000Y448000D02*
D03*
X217000Y448000D02*
D03*
X94563Y482750D02*
D03*
X143562D02*
D03*
X133000Y216250D02*
D03*
X182000D02*
D03*
X200500Y325000D02*
D03*
X151500Y325000D02*
D03*
X270000Y171000D02*
D03*
X221000D02*
D03*
D32*
X409750Y489750D02*
D03*
D33*
X346750Y466750D02*
D03*
Y489750D02*
D03*
Y512750D02*
D03*
D34*
X604300Y535750D02*
D03*
X591600D02*
D03*
X578900Y535750D02*
D03*
X566200Y535750D02*
D03*
X566200Y589750D02*
D03*
X578900D02*
D03*
X591600D02*
D03*
X604300D02*
D03*
X604050Y634500D02*
D03*
X591350D02*
D03*
X578650Y634500D02*
D03*
X565950Y634500D02*
D03*
X565950Y688500D02*
D03*
X578650D02*
D03*
X591350D02*
D03*
X604050Y688500D02*
D03*
D35*
X564000Y820750D02*
D03*
X530500D02*
D03*
X508750D02*
D03*
X475250D02*
D03*
X492750Y299500D02*
D03*
X459250D02*
D03*
X398000D02*
D03*
X431500D02*
D03*
X844250Y687500D02*
D03*
X877750D02*
D03*
X496750Y937000D02*
D03*
X530250Y937000D02*
D03*
X608750Y456000D02*
D03*
X575250Y456000D02*
D03*
D36*
X491750Y670250D02*
D03*
Y690250D02*
D03*
X491751Y651751D02*
D03*
Y631751D02*
D03*
X512501Y629251D02*
D03*
Y649251D02*
D03*
X333501Y677251D02*
D03*
Y697251D02*
D03*
X227750Y821708D02*
D03*
Y841708D02*
D03*
X210208D02*
D03*
Y821708D02*
D03*
X159750Y841708D02*
D03*
Y821708D02*
D03*
X249500Y321000D02*
D03*
Y301000D02*
D03*
X584500Y214000D02*
D03*
Y194000D02*
D03*
X615750Y214000D02*
D03*
Y194000D02*
D03*
X674000Y220000D02*
D03*
Y240000D02*
D03*
X700000Y220000D02*
D03*
Y240000D02*
D03*
X725000Y220000D02*
D03*
Y240000D02*
D03*
X750000Y220000D02*
D03*
Y240000D02*
D03*
X775000Y220000D02*
D03*
Y240000D02*
D03*
X800000Y220000D02*
D03*
Y240000D02*
D03*
X711250Y544250D02*
D03*
Y524250D02*
D03*
X366750Y906500D02*
D03*
Y886500D02*
D03*
X366500Y942000D02*
D03*
Y922000D02*
D03*
X366250Y977500D02*
D03*
Y957500D02*
D03*
X142000Y821708D02*
D03*
X142000Y841707D02*
D03*
X647250Y194000D02*
D03*
Y214000D02*
D03*
D37*
X465001Y594251D02*
D03*
Y562251D02*
D03*
X439751Y594001D02*
D03*
Y562001D02*
D03*
X376751Y594001D02*
D03*
Y562001D02*
D03*
X351501Y594001D02*
D03*
Y562001D02*
D03*
D38*
X278312Y832500D02*
D03*
Y768500D02*
D03*
X278250Y584500D02*
D03*
Y648500D02*
D03*
D39*
X183062Y747700D02*
D03*
Y760400D02*
D03*
X183062Y773100D02*
D03*
X183062Y785800D02*
D03*
X237062D02*
D03*
Y773100D02*
D03*
Y760400D02*
D03*
Y747700D02*
D03*
X97250Y747700D02*
D03*
Y760400D02*
D03*
Y773100D02*
D03*
Y785800D02*
D03*
X151250D02*
D03*
Y773100D02*
D03*
Y760400D02*
D03*
Y747700D02*
D03*
X97250Y641700D02*
D03*
Y654400D02*
D03*
Y667100D02*
D03*
Y679800D02*
D03*
X151250Y679800D02*
D03*
Y667100D02*
D03*
Y654400D02*
D03*
Y641700D02*
D03*
X183062Y641450D02*
D03*
Y654150D02*
D03*
Y666850D02*
D03*
Y679550D02*
D03*
X237062D02*
D03*
Y666850D02*
D03*
Y654150D02*
D03*
Y641450D02*
D03*
D40*
X182750Y170750D02*
D03*
X133750D02*
D03*
D41*
X22750Y213000D02*
D03*
X23250Y244000D02*
D03*
D42*
X72500Y179500D02*
D03*
D43*
X49500Y244000D02*
D03*
X95500D02*
D03*
D44*
X90000Y277500D02*
D03*
X80500D02*
D03*
X71000D02*
D03*
Y301500D02*
D03*
X80500D02*
D03*
X90000D02*
D03*
X184750Y374750D02*
D03*
X175250Y374750D02*
D03*
X165750Y374750D02*
D03*
X165750Y398750D02*
D03*
X175250D02*
D03*
X184750D02*
D03*
D45*
X33250Y375500D02*
D03*
X33250Y326500D02*
D03*
D46*
X99000Y352250D02*
D03*
Y371250D02*
D03*
X78000Y361750D02*
D03*
X865500Y648500D02*
D03*
Y667500D02*
D03*
X844500Y658000D02*
D03*
X718500Y820250D02*
D03*
Y801250D02*
D03*
X739500Y810750D02*
D03*
X433500Y948250D02*
D03*
Y967250D02*
D03*
X412500Y957750D02*
D03*
X433500Y912500D02*
D03*
Y931500D02*
D03*
X412500Y922000D02*
D03*
X433500Y877000D02*
D03*
Y896000D02*
D03*
X412500Y886500D02*
D03*
D47*
X107750Y408500D02*
D03*
X88750D02*
D03*
X98250Y387500D02*
D03*
X630250Y233000D02*
D03*
X649250D02*
D03*
X639750Y254000D02*
D03*
X597375Y233000D02*
D03*
X616375D02*
D03*
X606875Y254000D02*
D03*
X564500Y233000D02*
D03*
X583500D02*
D03*
X574000Y254000D02*
D03*
X317250Y303750D02*
D03*
X336250D02*
D03*
X326750Y324750D02*
D03*
X356500Y229000D02*
D03*
X337500D02*
D03*
X347000Y208000D02*
D03*
X477000Y243250D02*
D03*
X467500Y264250D02*
D03*
X486500D02*
D03*
X415000Y243250D02*
D03*
X405500Y264250D02*
D03*
X424500Y264250D02*
D03*
X477750Y344750D02*
D03*
X468250Y365750D02*
D03*
X487250D02*
D03*
X662250Y768000D02*
D03*
X643250D02*
D03*
X652750Y747000D02*
D03*
X426000Y365750D02*
D03*
X407000D02*
D03*
X416500Y344750D02*
D03*
D48*
X144750Y288250D02*
D03*
X175750D02*
D03*
X467000Y220000D02*
D03*
X498000D02*
D03*
X422500Y220250D02*
D03*
X391500D02*
D03*
D49*
X260250Y360250D02*
D03*
Y411250D02*
D03*
D50*
X268900Y237750D02*
D03*
X281600D02*
D03*
Y301250D02*
D03*
X268900D02*
D03*
X545000Y248500D02*
D03*
X532300D02*
D03*
Y185000D02*
D03*
X545000D02*
D03*
D51*
X342250Y286500D02*
D03*
X311250Y287000D02*
D03*
X331500Y190500D02*
D03*
X362500Y190000D02*
D03*
X422750Y194750D02*
D03*
X391750Y195250D02*
D03*
X497750Y194750D02*
D03*
X466750Y195250D02*
D03*
D52*
X384750Y164750D02*
D03*
X428750D02*
D03*
X505500Y165750D02*
D03*
X461500D02*
D03*
D53*
X620750Y382000D02*
D03*
Y388500D02*
D03*
Y395000D02*
D03*
Y401500D02*
D03*
Y408000D02*
D03*
Y414500D02*
D03*
Y421000D02*
D03*
X561750Y421000D02*
D03*
Y414500D02*
D03*
Y408000D02*
D03*
Y401500D02*
D03*
Y395000D02*
D03*
Y388500D02*
D03*
Y382000D02*
D03*
X769500Y380250D02*
D03*
X769500Y386750D02*
D03*
X769500Y393250D02*
D03*
X769500Y399750D02*
D03*
Y406250D02*
D03*
Y412750D02*
D03*
Y419250D02*
D03*
X710500D02*
D03*
Y412750D02*
D03*
Y406250D02*
D03*
Y399750D02*
D03*
Y393250D02*
D03*
Y386750D02*
D03*
Y380250D02*
D03*
D54*
X520250Y382250D02*
D03*
Y415750D02*
D03*
X663500Y409250D02*
D03*
X663500Y375750D02*
D03*
X674000Y195750D02*
D03*
Y162250D02*
D03*
X700000Y195750D02*
D03*
Y162250D02*
D03*
X725000Y195750D02*
D03*
Y162250D02*
D03*
X750000Y195750D02*
D03*
Y162250D02*
D03*
X775000Y195750D02*
D03*
Y162250D02*
D03*
X800000Y195750D02*
D03*
Y162250D02*
D03*
D55*
X934450Y349718D02*
D03*
X921750D02*
D03*
X909050D02*
D03*
X896350D02*
D03*
X883650D02*
D03*
X870950D02*
D03*
X858250D02*
D03*
X845550D02*
D03*
X934450Y290282D02*
D03*
X921750D02*
D03*
X909050D02*
D03*
X896350D02*
D03*
X883650D02*
D03*
X870950D02*
D03*
X858250D02*
D03*
X845550D02*
D03*
X845500Y402250D02*
D03*
X858200D02*
D03*
X870900D02*
D03*
X883600D02*
D03*
X896300D02*
D03*
X909000D02*
D03*
X921700D02*
D03*
X934400D02*
D03*
X845500Y461686D02*
D03*
X858200D02*
D03*
X870900D02*
D03*
X883600D02*
D03*
X896300D02*
D03*
X909000D02*
D03*
X921700D02*
D03*
X934400D02*
D03*
D56*
X835000Y162500D02*
D03*
Y197500D02*
D03*
X870000Y162500D02*
D03*
Y197500D02*
D03*
X905000Y162500D02*
D03*
Y197500D02*
D03*
X940000Y162500D02*
D03*
Y197500D02*
D03*
X975000Y162500D02*
D03*
Y197500D02*
D03*
X1010000Y162500D02*
D03*
Y197500D02*
D03*
D57*
X758000Y501500D02*
D03*
Y484500D02*
D03*
X780000D02*
D03*
Y501500D02*
D03*
D58*
X1022550Y367850D02*
D03*
Y291650D02*
D03*
X984450D02*
D03*
Y367850D02*
D03*
X997150D02*
D03*
Y291650D02*
D03*
X1009850D02*
D03*
Y367850D02*
D03*
D59*
X993000Y629500D02*
D03*
X977000D02*
D03*
X993250Y608750D02*
D03*
X977250D02*
D03*
D60*
X958250Y560500D02*
D03*
X964750D02*
D03*
X971250D02*
D03*
X977750D02*
D03*
X984250D02*
D03*
X990750D02*
D03*
X997250D02*
D03*
X997250Y501500D02*
D03*
X990750D02*
D03*
X984250D02*
D03*
X977750D02*
D03*
X971250D02*
D03*
X964750D02*
D03*
X958250D02*
D03*
X498250Y849250D02*
D03*
X504750D02*
D03*
X511250D02*
D03*
X517750D02*
D03*
X524250D02*
D03*
X530750D02*
D03*
X537250D02*
D03*
Y908250D02*
D03*
X530750D02*
D03*
X524250D02*
D03*
X517750D02*
D03*
X511250Y908250D02*
D03*
X504750Y908250D02*
D03*
X498250Y908250D02*
D03*
D61*
X731500Y564750D02*
D03*
Y569750D02*
D03*
Y574750D02*
D03*
Y579750D02*
D03*
Y584750D02*
D03*
Y589750D02*
D03*
Y594750D02*
D03*
Y599750D02*
D03*
Y604750D02*
D03*
Y609750D02*
D03*
Y614750D02*
D03*
Y619750D02*
D03*
X816500D02*
D03*
Y614750D02*
D03*
Y609750D02*
D03*
Y604750D02*
D03*
Y599750D02*
D03*
Y594750D02*
D03*
Y589750D02*
D03*
Y584750D02*
D03*
Y579750D02*
D03*
Y574750D02*
D03*
Y569750D02*
D03*
Y564750D02*
D03*
D62*
X746500Y634750D02*
D03*
X751500D02*
D03*
X756500D02*
D03*
X761500D02*
D03*
X766500D02*
D03*
X771500D02*
D03*
X776500D02*
D03*
X781500D02*
D03*
X786500D02*
D03*
X791500D02*
D03*
X796500D02*
D03*
X801500D02*
D03*
X746500Y549750D02*
D03*
X751500D02*
D03*
X756500D02*
D03*
X761500D02*
D03*
X766500D02*
D03*
X771500D02*
D03*
X776500D02*
D03*
X781500D02*
D03*
X786500D02*
D03*
X791500D02*
D03*
X796500D02*
D03*
X801500D02*
D03*
D63*
X159250Y856250D02*
D03*
X143750D02*
D03*
X210750Y856250D02*
D03*
X226250D02*
D03*
D64*
X1035250Y103500D02*
D03*
X1030000Y890000D02*
D03*
X20000Y110000D02*
D03*
M02*
