G04*
G04 #@! TF.GenerationSoftware,Altium Limited,Altium Designer,25.1.2 (22)*
G04*
G04 Layer_Color=16711935*
%FSLAX44Y44*%
%MOMM*%
G71*
G04*
G04 #@! TF.SameCoordinates,3BD23415-9EF0-431C-9871-610E16DD9A5B*
G04*
G04*
G04 #@! TF.FilePolarity,Negative*
G04*
G01*
G75*
%ADD109C,2.0000*%
%ADD110R,2.0000X2.0000*%
%ADD111R,2.0000X2.0000*%
%ADD112C,3.0000*%
%ADD113C,2.7000*%
%ADD114C,2.4000*%
%ADD115C,0.2000*%
%ADD116C,1.9000*%
%ADD117R,1.9000X1.9000*%
D109*
X460000Y90000D02*
D03*
X490000D02*
D03*
X460000Y120000D02*
D03*
X490000D02*
D03*
X430000Y90000D02*
D03*
Y120000D02*
D03*
X400000Y90000D02*
D03*
Y120000D02*
D03*
X315000Y120000D02*
D03*
X285000D02*
D03*
X315000Y90000D02*
D03*
X285000D02*
D03*
X170000Y90000D02*
D03*
X200000D02*
D03*
X170000Y120000D02*
D03*
X200000D02*
D03*
X140000Y90000D02*
D03*
Y120000D02*
D03*
X270000Y910000D02*
D03*
Y880000D02*
D03*
X180000Y910000D02*
D03*
X150000D02*
D03*
X180000Y880000D02*
D03*
X150000D02*
D03*
X210000Y910000D02*
D03*
Y880000D02*
D03*
X240000Y910000D02*
D03*
Y880000D02*
D03*
X142563Y558750D02*
D03*
X23000Y417500D02*
D03*
X635000Y90000D02*
D03*
X665000D02*
D03*
X635000Y120000D02*
D03*
X665000D02*
D03*
X605000Y90000D02*
D03*
Y120000D02*
D03*
X575000Y90000D02*
D03*
Y120000D02*
D03*
X810000Y120000D02*
D03*
Y90000D02*
D03*
X840000Y120000D02*
D03*
Y90000D02*
D03*
X900000Y120000D02*
D03*
X870000D02*
D03*
X900000Y90000D02*
D03*
X870000D02*
D03*
X780000Y120000D02*
D03*
Y90000D02*
D03*
X750000Y120000D02*
D03*
Y90000D02*
D03*
X580000Y975000D02*
D03*
X630000D02*
D03*
X605000D02*
D03*
D110*
X92563Y558750D02*
D03*
X655000Y975000D02*
D03*
D111*
X23000Y442500D02*
D03*
D112*
X809200Y955000D02*
D03*
X860000D02*
D03*
X910800D02*
D03*
D113*
X799250Y877113D02*
D03*
X919250Y875387D02*
D03*
X859250Y733387D02*
D03*
D114*
X799250Y755113D02*
D03*
X919250Y753387D02*
D03*
D115*
X1000000Y50000D02*
D03*
Y950000D02*
D03*
X50000D02*
D03*
Y50000D02*
D03*
D116*
X690150Y797800D02*
D03*
X664750Y797800D02*
D03*
X639350D02*
D03*
Y823200D02*
D03*
X664750D02*
D03*
D117*
X690150Y823200D02*
D03*
M02*
