G04*
G04 #@! TF.GenerationSoftware,Altium Limited,Altium Designer,25.1.2 (22)*
G04*
G04 Layer_Color=8388736*
%FSLAX44Y44*%
%MOMM*%
G71*
G04*
G04 #@! TF.SameCoordinates,3BD23415-9EF0-431C-9871-610E16DD9A5B*
G04*
G04*
G04 #@! TF.FilePolarity,Negative*
G04*
G01*
G75*
G04:AMPARAMS|DCode=65|XSize=1.9mm|YSize=1.3mm|CornerRadius=0.155mm|HoleSize=0mm|Usage=FLASHONLY|Rotation=180.000|XOffset=0mm|YOffset=0mm|HoleType=Round|Shape=RoundedRectangle|*
%AMROUNDEDRECTD65*
21,1,1.9000,0.9900,0,0,180.0*
21,1,1.5900,1.3000,0,0,180.0*
1,1,0.3100,-0.7950,0.4950*
1,1,0.3100,0.7950,0.4950*
1,1,0.3100,0.7950,-0.4950*
1,1,0.3100,-0.7950,-0.4950*
%
%ADD65ROUNDEDRECTD65*%
%ADD66R,1.2000X0.8500*%
%ADD67R,0.8500X1.2000*%
%ADD68R,1.1000X0.8500*%
%ADD69R,0.8500X1.1000*%
G04:AMPARAMS|DCode=70|XSize=1.1mm|YSize=0.85mm|CornerRadius=0.1325mm|HoleSize=0mm|Usage=FLASHONLY|Rotation=180.000|XOffset=0mm|YOffset=0mm|HoleType=Round|Shape=RoundedRectangle|*
%AMROUNDEDRECTD70*
21,1,1.1000,0.5850,0,0,180.0*
21,1,0.8350,0.8500,0,0,180.0*
1,1,0.2650,-0.4175,0.2925*
1,1,0.2650,0.4175,0.2925*
1,1,0.2650,0.4175,-0.2925*
1,1,0.2650,-0.4175,-0.2925*
%
%ADD70ROUNDEDRECTD70*%
%ADD71R,1.2000X1.5000*%
%ADD72R,2.3600X2.4600*%
%ADD73R,1.7000X3.5000*%
%ADD74R,1.7000X1.2000*%
%ADD75R,0.9500X1.8000*%
%ADD76R,1.0500X1.0500*%
%ADD77R,1.5000X1.2000*%
%ADD78R,1.4000X1.4000*%
%ADD79O,1.7016X0.3816*%
%ADD80O,0.3816X1.7016*%
%ADD81R,5.1016X5.1016*%
%ADD82R,3.6000X1.8000*%
%ADD83R,1.8000X0.9500*%
G04:AMPARAMS|DCode=84|XSize=2.16mm|YSize=3.35mm|CornerRadius=0.198mm|HoleSize=0mm|Usage=FLASHONLY|Rotation=180.000|XOffset=0mm|YOffset=0mm|HoleType=Round|Shape=RoundedRectangle|*
%AMROUNDEDRECTD84*
21,1,2.1600,2.9540,0,0,180.0*
21,1,1.7640,3.3500,0,0,180.0*
1,1,0.3960,-0.8820,1.4770*
1,1,0.3960,0.8820,1.4770*
1,1,0.3960,0.8820,-1.4770*
1,1,0.3960,-0.8820,-1.4770*
%
%ADD84ROUNDEDRECTD84*%
%ADD85R,1.9000X1.3000*%
%ADD86R,5.9000X6.4000*%
%ADD87R,1.6000X2.5000*%
%ADD88R,0.8300X1.0000*%
G04:AMPARAMS|DCode=89|XSize=2.16mm|YSize=3.35mm|CornerRadius=0.198mm|HoleSize=0mm|Usage=FLASHONLY|Rotation=270.000|XOffset=0mm|YOffset=0mm|HoleType=Round|Shape=RoundedRectangle|*
%AMROUNDEDRECTD89*
21,1,2.1600,2.9540,0,0,270.0*
21,1,1.7640,3.3500,0,0,270.0*
1,1,0.3960,-1.4770,-0.8820*
1,1,0.3960,-1.4770,0.8820*
1,1,0.3960,1.4770,0.8820*
1,1,0.3960,1.4770,-0.8820*
%
%ADD89ROUNDEDRECTD89*%
%ADD90R,0.9000X0.8000*%
%ADD91R,0.8000X0.9000*%
G04:AMPARAMS|DCode=92|XSize=1.9mm|YSize=1.3mm|CornerRadius=0.155mm|HoleSize=0mm|Usage=FLASHONLY|Rotation=270.000|XOffset=0mm|YOffset=0mm|HoleType=Round|Shape=RoundedRectangle|*
%AMROUNDEDRECTD92*
21,1,1.9000,0.9900,0,0,270.0*
21,1,1.5900,1.3000,0,0,270.0*
1,1,0.3100,-0.4950,-0.7950*
1,1,0.3100,-0.4950,0.7950*
1,1,0.3100,0.4950,0.7950*
1,1,0.3100,0.4950,-0.7950*
%
%ADD92ROUNDEDRECTD92*%
%ADD93R,3.7000X2.2000*%
%ADD94R,0.8000X1.7000*%
%ADD95R,1.3000X1.9000*%
G04:AMPARAMS|DCode=96|XSize=2.3mm|YSize=2mm|CornerRadius=0.19mm|HoleSize=0mm|Usage=FLASHONLY|Rotation=0.000|XOffset=0mm|YOffset=0mm|HoleType=Round|Shape=RoundedRectangle|*
%AMROUNDEDRECTD96*
21,1,2.3000,1.6200,0,0,0.0*
21,1,1.9200,2.0000,0,0,0.0*
1,1,0.3800,0.9600,-0.8100*
1,1,0.3800,-0.9600,-0.8100*
1,1,0.3800,-0.9600,0.8100*
1,1,0.3800,0.9600,0.8100*
%
%ADD96ROUNDEDRECTD96*%
%ADD97R,1.6500X0.6500*%
%ADD98R,1.0500X1.0500*%
%ADD99R,0.8500X1.9500*%
%ADD100R,1.6000X1.7000*%
%ADD101R,1.6000X1.4000*%
%ADD102R,0.9620X1.7000*%
G04:AMPARAMS|DCode=103|XSize=1.1mm|YSize=1mm|CornerRadius=0.18mm|HoleSize=0mm|Usage=FLASHONLY|Rotation=270.000|XOffset=0mm|YOffset=0mm|HoleType=Round|Shape=RoundedRectangle|*
%AMROUNDEDRECTD103*
21,1,1.1000,0.6400,0,0,270.0*
21,1,0.7400,1.0000,0,0,270.0*
1,1,0.3600,-0.3200,-0.3700*
1,1,0.3600,-0.3200,0.3700*
1,1,0.3600,0.3200,0.3700*
1,1,0.3600,0.3200,-0.3700*
%
%ADD103ROUNDEDRECTD103*%
%ADD104R,0.6500X1.6500*%
G04:AMPARAMS|DCode=105|XSize=1.3mm|YSize=0.4mm|CornerRadius=0.125mm|HoleSize=0mm|Usage=FLASHONLY|Rotation=180.000|XOffset=0mm|YOffset=0mm|HoleType=Round|Shape=RoundedRectangle|*
%AMROUNDEDRECTD105*
21,1,1.3000,0.1500,0,0,180.0*
21,1,1.0500,0.4000,0,0,180.0*
1,1,0.2500,-0.5250,0.0750*
1,1,0.2500,0.5250,0.0750*
1,1,0.2500,0.5250,-0.0750*
1,1,0.2500,-0.5250,-0.0750*
%
%ADD105ROUNDEDRECTD105*%
G04:AMPARAMS|DCode=106|XSize=1.3mm|YSize=0.4mm|CornerRadius=0.125mm|HoleSize=0mm|Usage=FLASHONLY|Rotation=90.000|XOffset=0mm|YOffset=0mm|HoleType=Round|Shape=RoundedRectangle|*
%AMROUNDEDRECTD106*
21,1,1.3000,0.1500,0,0,90.0*
21,1,1.0500,0.4000,0,0,90.0*
1,1,0.2500,0.0750,0.5250*
1,1,0.2500,0.0750,-0.5250*
1,1,0.2500,-0.0750,-0.5250*
1,1,0.2500,-0.0750,0.5250*
%
%ADD106ROUNDEDRECTD106*%
G04:AMPARAMS|DCode=107|XSize=1.1mm|YSize=0.85mm|CornerRadius=0.1325mm|HoleSize=0mm|Usage=FLASHONLY|Rotation=90.000|XOffset=0mm|YOffset=0mm|HoleType=Round|Shape=RoundedRectangle|*
%AMROUNDEDRECTD107*
21,1,1.1000,0.5850,0,0,90.0*
21,1,0.8350,0.8500,0,0,90.0*
1,1,0.2650,0.2925,0.4175*
1,1,0.2650,0.2925,-0.4175*
1,1,0.2650,-0.2925,-0.4175*
1,1,0.2650,-0.2925,0.4175*
%
%ADD107ROUNDEDRECTD107*%
%ADD108C,1.2000*%
%ADD109C,2.0000*%
%ADD110R,2.0000X2.0000*%
%ADD111R,2.0000X2.0000*%
%ADD112C,3.0000*%
%ADD113C,2.7000*%
%ADD114C,2.4000*%
%ADD115C,0.2000*%
%ADD116C,1.9000*%
%ADD117R,1.9000X1.9000*%
D65*
X835000Y250500D02*
D03*
Y219500D02*
D03*
X870000Y250500D02*
D03*
Y219500D02*
D03*
X905000Y250500D02*
D03*
Y219500D02*
D03*
X940000Y250500D02*
D03*
Y219500D02*
D03*
X975000Y250500D02*
D03*
Y219500D02*
D03*
X1010000Y250500D02*
D03*
Y219500D02*
D03*
D66*
X481500Y892500D02*
D03*
Y908000D02*
D03*
X837750Y621500D02*
D03*
Y637000D02*
D03*
X711000Y558500D02*
D03*
Y574000D02*
D03*
X621000Y536000D02*
D03*
Y551500D02*
D03*
X414501Y581501D02*
D03*
Y597001D02*
D03*
X494501Y722751D02*
D03*
Y707251D02*
D03*
X333251Y710251D02*
D03*
Y725751D02*
D03*
X334251Y622001D02*
D03*
Y637501D02*
D03*
X400251Y581501D02*
D03*
Y597001D02*
D03*
X334251Y664501D02*
D03*
Y649001D02*
D03*
X512251Y662251D02*
D03*
Y677751D02*
D03*
X951000Y402000D02*
D03*
Y417500D02*
D03*
X569500Y179000D02*
D03*
Y163500D02*
D03*
X601000Y178750D02*
D03*
Y163250D02*
D03*
X681500Y400750D02*
D03*
Y385250D02*
D03*
X632500Y178750D02*
D03*
Y163250D02*
D03*
X684591Y275000D02*
D03*
Y290500D02*
D03*
X713432Y275000D02*
D03*
Y290500D02*
D03*
X742023Y275000D02*
D03*
Y290500D02*
D03*
X770614Y275000D02*
D03*
Y290500D02*
D03*
X801954Y275250D02*
D03*
Y290750D02*
D03*
X655750Y275000D02*
D03*
Y290500D02*
D03*
X621250Y634750D02*
D03*
Y650250D02*
D03*
X443250Y503000D02*
D03*
Y518500D02*
D03*
X428000Y503000D02*
D03*
Y518500D02*
D03*
X311125Y469000D02*
D03*
Y484500D02*
D03*
X326250Y469000D02*
D03*
Y484500D02*
D03*
X296750Y469000D02*
D03*
Y484500D02*
D03*
X210750Y375250D02*
D03*
Y359750D02*
D03*
X941000Y560500D02*
D03*
Y545000D02*
D03*
X800250Y486000D02*
D03*
Y501500D02*
D03*
X736500Y500000D02*
D03*
Y484500D02*
D03*
X883250Y584750D02*
D03*
Y600250D02*
D03*
X837750Y592250D02*
D03*
Y607750D02*
D03*
X852750Y592250D02*
D03*
Y607750D02*
D03*
X868250Y600250D02*
D03*
Y584750D02*
D03*
D67*
X718500Y836000D02*
D03*
X734000D02*
D03*
X743750Y530000D02*
D03*
X728250D02*
D03*
X735750Y656750D02*
D03*
X751250D02*
D03*
X478208Y729751D02*
D03*
X462708D02*
D03*
X506750Y971250D02*
D03*
X522250D02*
D03*
X347250Y957500D02*
D03*
X331750D02*
D03*
X556000Y786000D02*
D03*
X540500D02*
D03*
X497749Y609501D02*
D03*
X482249D02*
D03*
X347000Y921750D02*
D03*
X331500D02*
D03*
X500500Y785500D02*
D03*
X485000D02*
D03*
X347000Y886250D02*
D03*
X331500D02*
D03*
X102000Y622250D02*
D03*
X117500D02*
D03*
X396251Y747251D02*
D03*
X411751D02*
D03*
X102250Y730250D02*
D03*
X117750D02*
D03*
X520000Y367000D02*
D03*
X535500D02*
D03*
X583000Y474250D02*
D03*
X598500D02*
D03*
X561750Y364750D02*
D03*
X577250D02*
D03*
X710500Y364500D02*
D03*
X695000D02*
D03*
X88500Y317000D02*
D03*
X73000D02*
D03*
X267500Y320250D02*
D03*
X283000D02*
D03*
X226750Y228500D02*
D03*
X242250D02*
D03*
D68*
X868500Y611500D02*
D03*
Y627000D02*
D03*
X462958Y759251D02*
D03*
Y743751D02*
D03*
X477458Y759251D02*
D03*
Y743751D02*
D03*
X414501Y570251D02*
D03*
Y554751D02*
D03*
X319001Y710251D02*
D03*
Y725751D02*
D03*
X320251Y622001D02*
D03*
Y606501D02*
D03*
X399751Y570251D02*
D03*
Y554751D02*
D03*
X645250Y399750D02*
D03*
Y384250D02*
D03*
X632000Y209000D02*
D03*
Y193500D02*
D03*
X647750Y179000D02*
D03*
Y163500D02*
D03*
X699000Y316250D02*
D03*
Y300750D02*
D03*
X727250Y316250D02*
D03*
Y300750D02*
D03*
X755750Y316250D02*
D03*
Y300750D02*
D03*
X784500Y316250D02*
D03*
Y300750D02*
D03*
X815750Y316500D02*
D03*
Y301000D02*
D03*
X669546Y316250D02*
D03*
Y300750D02*
D03*
X880250Y665250D02*
D03*
Y649750D02*
D03*
X545000Y267250D02*
D03*
Y282750D02*
D03*
X540250Y391500D02*
D03*
Y407000D02*
D03*
X569000Y208750D02*
D03*
Y193250D02*
D03*
X584750Y179000D02*
D03*
Y163500D02*
D03*
X600500Y209000D02*
D03*
Y193500D02*
D03*
X616250Y179000D02*
D03*
Y163500D02*
D03*
X117000Y421750D02*
D03*
Y437250D02*
D03*
X112750Y368750D02*
D03*
Y353250D02*
D03*
X64750Y361750D02*
D03*
Y377250D02*
D03*
X72750Y407000D02*
D03*
Y422500D02*
D03*
X677750Y767750D02*
D03*
Y752250D02*
D03*
X698386Y290500D02*
D03*
Y275000D02*
D03*
X727227Y290500D02*
D03*
Y275000D02*
D03*
X755818Y290500D02*
D03*
Y275000D02*
D03*
X784409Y290500D02*
D03*
Y275000D02*
D03*
X815750Y290750D02*
D03*
Y275250D02*
D03*
X669546Y290500D02*
D03*
Y275000D02*
D03*
X245250Y215750D02*
D03*
Y200250D02*
D03*
X224000Y216000D02*
D03*
Y200500D02*
D03*
D69*
X965000Y644000D02*
D03*
X949500D02*
D03*
X965000Y593000D02*
D03*
X949500D02*
D03*
X992500Y593250D02*
D03*
X977000D02*
D03*
X993000Y644000D02*
D03*
X977500D02*
D03*
X604750Y610250D02*
D03*
X620250D02*
D03*
X949500Y608750D02*
D03*
X965000D02*
D03*
X506250Y956250D02*
D03*
X521750D02*
D03*
X399750Y957750D02*
D03*
X384250D02*
D03*
X347000Y971750D02*
D03*
X331500D02*
D03*
X556000Y801000D02*
D03*
X540500D02*
D03*
X399750Y922250D02*
D03*
X384250D02*
D03*
X250250Y802500D02*
D03*
X234750D02*
D03*
X210250Y730000D02*
D03*
X225750D02*
D03*
X347000Y935750D02*
D03*
X331500D02*
D03*
X500500Y800500D02*
D03*
X485000D02*
D03*
X166750Y802500D02*
D03*
X151250D02*
D03*
X163500Y730000D02*
D03*
X179000D02*
D03*
X399750Y886500D02*
D03*
X384250D02*
D03*
X347000Y900750D02*
D03*
X331500D02*
D03*
X524251Y707501D02*
D03*
X508751D02*
D03*
X524251Y723251D02*
D03*
X508751D02*
D03*
X252500Y694250D02*
D03*
X237000D02*
D03*
X210250Y621500D02*
D03*
X225750D02*
D03*
X497749Y593751D02*
D03*
X482249D02*
D03*
X382751Y747251D02*
D03*
X367251D02*
D03*
X167000Y695000D02*
D03*
X151500D02*
D03*
X163500Y621500D02*
D03*
X179000D02*
D03*
X367001Y762251D02*
D03*
X382501D02*
D03*
X604000Y708000D02*
D03*
X619500D02*
D03*
X564250Y918750D02*
D03*
X579750D02*
D03*
X620250D02*
D03*
X604750D02*
D03*
X937250Y381250D02*
D03*
X921750D02*
D03*
X894000D02*
D03*
X909500D02*
D03*
X409500Y380000D02*
D03*
X425000D02*
D03*
Y394250D02*
D03*
X409500D02*
D03*
X423000Y279500D02*
D03*
X407500D02*
D03*
X892500Y650000D02*
D03*
X908000D02*
D03*
X964750Y629500D02*
D03*
X949250D02*
D03*
X470000Y380000D02*
D03*
X485500D02*
D03*
X485750Y394250D02*
D03*
X470250D02*
D03*
X583000Y439250D02*
D03*
X598500D02*
D03*
X89000Y421750D02*
D03*
X104500D02*
D03*
X112500Y339000D02*
D03*
X97000D02*
D03*
X165500Y414250D02*
D03*
X150000D02*
D03*
Y428000D02*
D03*
X165500D02*
D03*
X73000Y442500D02*
D03*
X88500D02*
D03*
X682500Y852750D02*
D03*
X667000D02*
D03*
X703000Y767250D02*
D03*
X718500D02*
D03*
X791000Y520250D02*
D03*
X775500D02*
D03*
X469250Y279500D02*
D03*
X484750D02*
D03*
D70*
X336750Y172000D02*
D03*
Y156500D02*
D03*
X356500Y156250D02*
D03*
Y171750D02*
D03*
X545000Y151750D02*
D03*
Y167250D02*
D03*
X336000Y270500D02*
D03*
Y255000D02*
D03*
X317500D02*
D03*
Y270500D02*
D03*
X193500Y823750D02*
D03*
Y839250D02*
D03*
X175750Y823750D02*
D03*
Y839250D02*
D03*
X126250D02*
D03*
Y823750D02*
D03*
X243500Y839250D02*
D03*
Y823750D02*
D03*
D71*
X242750Y497000D02*
D03*
X222750D02*
D03*
X242750Y479750D02*
D03*
X222750D02*
D03*
X147250Y249000D02*
D03*
X167250D02*
D03*
X39750Y275000D02*
D03*
X19750D02*
D03*
X175500Y357500D02*
D03*
X155500D02*
D03*
X248000Y247250D02*
D03*
X228000D02*
D03*
X262000Y216000D02*
D03*
X282000D02*
D03*
X406000Y324750D02*
D03*
X426000D02*
D03*
X467500D02*
D03*
X487500D02*
D03*
X940250Y524500D02*
D03*
X920250Y524500D02*
D03*
X674750Y917250D02*
D03*
X654750D02*
D03*
X674500Y896750D02*
D03*
X654500D02*
D03*
D72*
X266000Y448000D02*
D03*
X217000Y448000D02*
D03*
X94563Y482750D02*
D03*
X143562D02*
D03*
X133000Y216250D02*
D03*
X182000D02*
D03*
X200500Y325000D02*
D03*
X151500Y325000D02*
D03*
X270000Y171000D02*
D03*
X221000D02*
D03*
D73*
X409750Y489750D02*
D03*
D74*
X346750Y466750D02*
D03*
Y489750D02*
D03*
Y512750D02*
D03*
D75*
X604300Y535750D02*
D03*
X591600D02*
D03*
X578900Y535750D02*
D03*
X566200Y535750D02*
D03*
X566200Y589750D02*
D03*
X578900D02*
D03*
X591600D02*
D03*
X604300D02*
D03*
X604050Y634500D02*
D03*
X591350D02*
D03*
X578650Y634500D02*
D03*
X565950Y634500D02*
D03*
X565950Y688500D02*
D03*
X578650D02*
D03*
X591350D02*
D03*
X604050Y688500D02*
D03*
D76*
X564000Y820750D02*
D03*
X530500D02*
D03*
X508750D02*
D03*
X475250D02*
D03*
X492750Y299500D02*
D03*
X459250D02*
D03*
X398000D02*
D03*
X431500D02*
D03*
X844250Y687500D02*
D03*
X877750D02*
D03*
X496750Y937000D02*
D03*
X530250Y937000D02*
D03*
X608750Y456000D02*
D03*
X575250Y456000D02*
D03*
D77*
X491750Y670250D02*
D03*
Y690250D02*
D03*
X491751Y651751D02*
D03*
Y631751D02*
D03*
X512501Y629251D02*
D03*
Y649251D02*
D03*
X333501Y677251D02*
D03*
Y697251D02*
D03*
X227750Y821708D02*
D03*
Y841708D02*
D03*
X210208D02*
D03*
Y821708D02*
D03*
X159750Y841708D02*
D03*
Y821708D02*
D03*
X249500Y321000D02*
D03*
Y301000D02*
D03*
X584500Y214000D02*
D03*
Y194000D02*
D03*
X615750Y214000D02*
D03*
Y194000D02*
D03*
X674000Y220000D02*
D03*
Y240000D02*
D03*
X700000Y220000D02*
D03*
Y240000D02*
D03*
X725000Y220000D02*
D03*
Y240000D02*
D03*
X750000Y220000D02*
D03*
Y240000D02*
D03*
X775000Y220000D02*
D03*
Y240000D02*
D03*
X800000Y220000D02*
D03*
Y240000D02*
D03*
X711250Y544250D02*
D03*
Y524250D02*
D03*
X366750Y906500D02*
D03*
Y886500D02*
D03*
X366500Y942000D02*
D03*
Y922000D02*
D03*
X366250Y977500D02*
D03*
Y957500D02*
D03*
X142000Y821708D02*
D03*
X142000Y841707D02*
D03*
X647250Y194000D02*
D03*
Y214000D02*
D03*
D78*
X465001Y594251D02*
D03*
Y562251D02*
D03*
X439751Y594001D02*
D03*
Y562001D02*
D03*
X376751Y594001D02*
D03*
Y562001D02*
D03*
X351501Y594001D02*
D03*
Y562001D02*
D03*
D79*
X448749Y646749D02*
D03*
Y651751D02*
D03*
Y656749D02*
D03*
Y661751D02*
D03*
Y666749D02*
D03*
Y671751D02*
D03*
Y676749D02*
D03*
Y681751D02*
D03*
Y686749D02*
D03*
Y691751D02*
D03*
Y696749D02*
D03*
Y701751D02*
D03*
X364751D02*
D03*
Y696749D02*
D03*
Y691751D02*
D03*
Y686749D02*
D03*
Y681751D02*
D03*
Y676749D02*
D03*
Y671751D02*
D03*
Y666749D02*
D03*
Y661751D02*
D03*
Y656749D02*
D03*
Y651751D02*
D03*
Y646749D02*
D03*
D80*
X434251Y716249D02*
D03*
X429249D02*
D03*
X424251D02*
D03*
X419249D02*
D03*
X414251D02*
D03*
X409249D02*
D03*
X404251D02*
D03*
X399249D02*
D03*
X394251D02*
D03*
X389249D02*
D03*
X384251D02*
D03*
X379249D02*
D03*
Y632251D02*
D03*
X384251D02*
D03*
X389249D02*
D03*
X394251D02*
D03*
X399249D02*
D03*
X404251D02*
D03*
X409249D02*
D03*
X414251D02*
D03*
X419249D02*
D03*
X424251D02*
D03*
X429249D02*
D03*
X434251D02*
D03*
D81*
X406750Y674250D02*
D03*
D82*
X278312Y832500D02*
D03*
Y768500D02*
D03*
X278250Y584500D02*
D03*
Y648500D02*
D03*
D83*
X183062Y747700D02*
D03*
Y760400D02*
D03*
X183062Y773100D02*
D03*
X183062Y785800D02*
D03*
X237062D02*
D03*
Y773100D02*
D03*
Y760400D02*
D03*
Y747700D02*
D03*
X97250Y747700D02*
D03*
Y760400D02*
D03*
Y773100D02*
D03*
Y785800D02*
D03*
X151250D02*
D03*
Y773100D02*
D03*
Y760400D02*
D03*
Y747700D02*
D03*
X97250Y641700D02*
D03*
Y654400D02*
D03*
Y667100D02*
D03*
Y679800D02*
D03*
X151250Y679800D02*
D03*
Y667100D02*
D03*
Y654400D02*
D03*
Y641700D02*
D03*
X183062Y641450D02*
D03*
Y654150D02*
D03*
Y666850D02*
D03*
Y679550D02*
D03*
X237062D02*
D03*
Y666850D02*
D03*
Y654150D02*
D03*
Y641450D02*
D03*
D84*
X182750Y170750D02*
D03*
X133750D02*
D03*
D85*
X22750Y213000D02*
D03*
X23250Y244000D02*
D03*
D86*
X72500Y179500D02*
D03*
D87*
X49500Y244000D02*
D03*
X95500D02*
D03*
D88*
X90000Y277500D02*
D03*
X80500D02*
D03*
X71000D02*
D03*
Y301500D02*
D03*
X80500D02*
D03*
X90000D02*
D03*
X184750Y374750D02*
D03*
X175250Y374750D02*
D03*
X165750Y374750D02*
D03*
X165750Y398750D02*
D03*
X175250D02*
D03*
X184750D02*
D03*
D89*
X33250Y375500D02*
D03*
X33250Y326500D02*
D03*
D90*
X99000Y352250D02*
D03*
Y371250D02*
D03*
X78000Y361750D02*
D03*
X865500Y648500D02*
D03*
Y667500D02*
D03*
X844500Y658000D02*
D03*
X718500Y820250D02*
D03*
Y801250D02*
D03*
X739500Y810750D02*
D03*
X433500Y948250D02*
D03*
Y967250D02*
D03*
X412500Y957750D02*
D03*
X433500Y912500D02*
D03*
Y931500D02*
D03*
X412500Y922000D02*
D03*
X433500Y877000D02*
D03*
Y896000D02*
D03*
X412500Y886500D02*
D03*
D91*
X107750Y408500D02*
D03*
X88750D02*
D03*
X98250Y387500D02*
D03*
X630250Y233000D02*
D03*
X649250D02*
D03*
X639750Y254000D02*
D03*
X597375Y233000D02*
D03*
X616375D02*
D03*
X606875Y254000D02*
D03*
X564500Y233000D02*
D03*
X583500D02*
D03*
X574000Y254000D02*
D03*
X317250Y303750D02*
D03*
X336250D02*
D03*
X326750Y324750D02*
D03*
X356500Y229000D02*
D03*
X337500D02*
D03*
X347000Y208000D02*
D03*
X477000Y243250D02*
D03*
X467500Y264250D02*
D03*
X486500D02*
D03*
X415000Y243250D02*
D03*
X405500Y264250D02*
D03*
X424500Y264250D02*
D03*
X477750Y344750D02*
D03*
X468250Y365750D02*
D03*
X487250D02*
D03*
X662250Y768000D02*
D03*
X643250D02*
D03*
X652750Y747000D02*
D03*
X426000Y365750D02*
D03*
X407000D02*
D03*
X416500Y344750D02*
D03*
D92*
X144750Y288250D02*
D03*
X175750D02*
D03*
X467000Y220000D02*
D03*
X498000D02*
D03*
X422500Y220250D02*
D03*
X391500D02*
D03*
D93*
X260250Y360250D02*
D03*
Y411250D02*
D03*
D94*
X268900Y237750D02*
D03*
X281600D02*
D03*
Y301250D02*
D03*
X268900D02*
D03*
X545000Y248500D02*
D03*
X532300D02*
D03*
Y185000D02*
D03*
X545000D02*
D03*
D95*
X342250Y286500D02*
D03*
X311250Y287000D02*
D03*
X331500Y190500D02*
D03*
X362500Y190000D02*
D03*
X422750Y194750D02*
D03*
X391750Y195250D02*
D03*
X497750Y194750D02*
D03*
X466750Y195250D02*
D03*
D96*
X384750Y164750D02*
D03*
X428750D02*
D03*
X505500Y165750D02*
D03*
X461500D02*
D03*
D97*
X620750Y382000D02*
D03*
Y388500D02*
D03*
Y395000D02*
D03*
Y401500D02*
D03*
Y408000D02*
D03*
Y414500D02*
D03*
Y421000D02*
D03*
X561750Y421000D02*
D03*
Y414500D02*
D03*
Y408000D02*
D03*
Y401500D02*
D03*
Y395000D02*
D03*
Y388500D02*
D03*
Y382000D02*
D03*
X769500Y380250D02*
D03*
X769500Y386750D02*
D03*
X769500Y393250D02*
D03*
X769500Y399750D02*
D03*
Y406250D02*
D03*
Y412750D02*
D03*
Y419250D02*
D03*
X710500D02*
D03*
Y412750D02*
D03*
Y406250D02*
D03*
Y399750D02*
D03*
Y393250D02*
D03*
Y386750D02*
D03*
Y380250D02*
D03*
D98*
X520250Y382250D02*
D03*
Y415750D02*
D03*
X663500Y409250D02*
D03*
X663500Y375750D02*
D03*
X674000Y195750D02*
D03*
Y162250D02*
D03*
X700000Y195750D02*
D03*
Y162250D02*
D03*
X725000Y195750D02*
D03*
Y162250D02*
D03*
X750000Y195750D02*
D03*
Y162250D02*
D03*
X775000Y195750D02*
D03*
Y162250D02*
D03*
X800000Y195750D02*
D03*
Y162250D02*
D03*
D99*
X934450Y349718D02*
D03*
X921750D02*
D03*
X909050D02*
D03*
X896350D02*
D03*
X883650D02*
D03*
X870950D02*
D03*
X858250D02*
D03*
X845550D02*
D03*
X934450Y290282D02*
D03*
X921750D02*
D03*
X909050D02*
D03*
X896350D02*
D03*
X883650D02*
D03*
X870950D02*
D03*
X858250D02*
D03*
X845550D02*
D03*
X845500Y402250D02*
D03*
X858200D02*
D03*
X870900D02*
D03*
X883600D02*
D03*
X896300D02*
D03*
X909000D02*
D03*
X921700D02*
D03*
X934400D02*
D03*
X845500Y461686D02*
D03*
X858200D02*
D03*
X870900D02*
D03*
X883600D02*
D03*
X896300D02*
D03*
X909000D02*
D03*
X921700D02*
D03*
X934400D02*
D03*
D100*
X835000Y162500D02*
D03*
Y197500D02*
D03*
X870000Y162500D02*
D03*
Y197500D02*
D03*
X905000Y162500D02*
D03*
Y197500D02*
D03*
X940000Y162500D02*
D03*
Y197500D02*
D03*
X975000Y162500D02*
D03*
Y197500D02*
D03*
X1010000Y162500D02*
D03*
Y197500D02*
D03*
D101*
X758000Y501500D02*
D03*
Y484500D02*
D03*
X780000D02*
D03*
Y501500D02*
D03*
D102*
X1022550Y367850D02*
D03*
Y291650D02*
D03*
X984450D02*
D03*
Y367850D02*
D03*
X997150D02*
D03*
Y291650D02*
D03*
X1009850D02*
D03*
Y367850D02*
D03*
D103*
X993000Y629500D02*
D03*
X977000D02*
D03*
X993250Y608750D02*
D03*
X977250D02*
D03*
D104*
X958250Y560500D02*
D03*
X964750D02*
D03*
X971250D02*
D03*
X977750D02*
D03*
X984250D02*
D03*
X990750D02*
D03*
X997250D02*
D03*
X997250Y501500D02*
D03*
X990750D02*
D03*
X984250D02*
D03*
X977750D02*
D03*
X971250D02*
D03*
X964750D02*
D03*
X958250D02*
D03*
X498250Y849250D02*
D03*
X504750D02*
D03*
X511250D02*
D03*
X517750D02*
D03*
X524250D02*
D03*
X530750D02*
D03*
X537250D02*
D03*
Y908250D02*
D03*
X530750D02*
D03*
X524250D02*
D03*
X517750D02*
D03*
X511250Y908250D02*
D03*
X504750Y908250D02*
D03*
X498250Y908250D02*
D03*
D105*
X731500Y564750D02*
D03*
Y569750D02*
D03*
Y574750D02*
D03*
Y579750D02*
D03*
Y584750D02*
D03*
Y589750D02*
D03*
Y594750D02*
D03*
Y599750D02*
D03*
Y604750D02*
D03*
Y609750D02*
D03*
Y614750D02*
D03*
Y619750D02*
D03*
X816500D02*
D03*
Y614750D02*
D03*
Y609750D02*
D03*
Y604750D02*
D03*
Y599750D02*
D03*
Y594750D02*
D03*
Y589750D02*
D03*
Y584750D02*
D03*
Y579750D02*
D03*
Y574750D02*
D03*
Y569750D02*
D03*
Y564750D02*
D03*
D106*
X746500Y634750D02*
D03*
X751500D02*
D03*
X756500D02*
D03*
X761500D02*
D03*
X766500D02*
D03*
X771500D02*
D03*
X776500D02*
D03*
X781500D02*
D03*
X786500D02*
D03*
X791500D02*
D03*
X796500D02*
D03*
X801500D02*
D03*
X746500Y549750D02*
D03*
X751500D02*
D03*
X756500D02*
D03*
X761500D02*
D03*
X766500D02*
D03*
X771500D02*
D03*
X776500D02*
D03*
X781500D02*
D03*
X786500D02*
D03*
X791500D02*
D03*
X796500D02*
D03*
X801500D02*
D03*
D107*
X159250Y856250D02*
D03*
X143750D02*
D03*
X210750Y856250D02*
D03*
X226250D02*
D03*
D108*
X1035250Y103500D02*
D03*
X1030000Y890000D02*
D03*
X20000Y110000D02*
D03*
D109*
X460000Y90000D02*
D03*
X490000D02*
D03*
X460000Y120000D02*
D03*
X490000D02*
D03*
X430000Y90000D02*
D03*
Y120000D02*
D03*
X400000Y90000D02*
D03*
Y120000D02*
D03*
X315000Y120000D02*
D03*
X285000D02*
D03*
X315000Y90000D02*
D03*
X285000D02*
D03*
X170000Y90000D02*
D03*
X200000D02*
D03*
X170000Y120000D02*
D03*
X200000D02*
D03*
X140000Y90000D02*
D03*
Y120000D02*
D03*
X270000Y910000D02*
D03*
Y880000D02*
D03*
X180000Y910000D02*
D03*
X150000D02*
D03*
X180000Y880000D02*
D03*
X150000D02*
D03*
X210000Y910000D02*
D03*
Y880000D02*
D03*
X240000Y910000D02*
D03*
Y880000D02*
D03*
X142563Y558750D02*
D03*
X23000Y417500D02*
D03*
X635000Y90000D02*
D03*
X665000D02*
D03*
X635000Y120000D02*
D03*
X665000D02*
D03*
X605000Y90000D02*
D03*
Y120000D02*
D03*
X575000Y90000D02*
D03*
Y120000D02*
D03*
X810000Y120000D02*
D03*
Y90000D02*
D03*
X840000Y120000D02*
D03*
Y90000D02*
D03*
X900000Y120000D02*
D03*
X870000D02*
D03*
X900000Y90000D02*
D03*
X870000D02*
D03*
X780000Y120000D02*
D03*
Y90000D02*
D03*
X750000Y120000D02*
D03*
Y90000D02*
D03*
X580000Y975000D02*
D03*
X630000D02*
D03*
X605000D02*
D03*
D110*
X92563Y558750D02*
D03*
X655000Y975000D02*
D03*
D111*
X23000Y442500D02*
D03*
D112*
X809200Y955000D02*
D03*
X860000D02*
D03*
X910800D02*
D03*
D113*
X799250Y877113D02*
D03*
X919250Y875387D02*
D03*
X859250Y733387D02*
D03*
D114*
X799250Y755113D02*
D03*
X919250Y753387D02*
D03*
D115*
X1000000Y50000D02*
D03*
Y950000D02*
D03*
X50000D02*
D03*
Y50000D02*
D03*
D116*
X690150Y797800D02*
D03*
X664750Y797800D02*
D03*
X639350D02*
D03*
Y823200D02*
D03*
X664750D02*
D03*
D117*
X690150Y823200D02*
D03*
M02*
