M48
;Layer_Color=9474304
;FILE_FORMAT=4:4
METRIC,LZ
;TYPE=PLATED
T01F00S00C0.2000
T02F00S00C0.3000
T03F00S00C0.8000
T04F00S00C1.0000
T05F00S00C1.1000
T06F00S00C1.3000
T07F00S00C1.6000
;TYPE=NON_PLATED
T08F00S00C3.5000
%
T01
X0074625Y0000525
X0077625
X0080625
X0083625
X0086625
X0089625
X0092625
X0095625
X0092925Y00108
X009445Y0012825
X0094Y0015
X00975
X01001167Y0014975
X010085Y0011975
X01013096Y00115154
X009915Y0017875
X0098625Y0018525
X009565Y0018925
X0095625Y0021525
Y0024525
X0092625
Y0021525
X009225Y0019075
X00905Y0015
X00913Y00129
X0086975Y0014975
X0086625Y0018525
X00852Y0019
X0085175Y0021375
Y002455
X00887Y0024575
X008865Y00215
X0086375Y0027675
X0083625Y0027525
Y0030525
X0086625
X0089625
X0092625
X0095625
Y0033525
X0098625
X009845Y0035525
X0099715Y003558
X009905Y00381
X01020691Y00387754
X0095625Y0036525
X009215Y00372
X0090925Y003725
X0089625Y0036525
X0085825Y00363968
X008455Y00364
X00867Y0038625
X0086625Y0033525
X0091525Y0033175
X0080625Y0033525
X00802205Y00297
X00770864Y0029675
X0076725Y00322
X007505Y003385
X0077025Y003525
X0077625Y0036525
X008115Y0025175
X008205Y00234
X0081525Y00193
X0082625Y00078
X00856477Y00078737
X0079475Y000785
X007645Y000775
X0098625Y0027525
X01013Y002775
X010195
X00742273Y0029675
X00713682
X0071575Y0032175
X00731Y0033775
X0068375Y0032225
X00684841Y0029675
X0065625Y00297
X006535Y00322
X00633Y0032725
X006105Y00327
X0058525Y0032675
X0055725Y003275
X00534325Y00327301
X005035Y0033075
X0049775Y003675
X0047625Y0036525
X0046225Y0036575
X0046375Y0038
X00403Y0038025
X0040075Y0036575
X0038625Y0036525
X0035625
X0035175Y003265
X0039025Y003295
X0043825Y00326
X0045425Y003265
X0044625Y0024525
Y0021525
Y0018525
Y0015525
X0047625
X0050325Y0013425
X005235Y001335
X00561Y00133
X005605Y0010725
X0053625Y0009525
X0055Y000795
X0059Y00079
X0059625Y0000525
X0062625
X0065625
X0068625
X0071625
X007185Y0008375
X0071625Y0012525
Y0015525
Y0018525
X0068625
Y0015525
X0065625
X0063225Y00157
X0062625Y0015525
X0060075Y00157
X0056925Y0015725
X005645Y0022625
X00597375
X0063025
X0068625Y0024525
X0066875Y00347
X0065625Y0036525
X006815Y003785
X005355Y00376
X0056625Y0030525
Y0027525
X00532Y00261
X0050625Y0027525
Y0024525
X0053625Y0021525
X0050625Y0009525
X0047625
X0044625Y0012525
X0041825Y0005325
X0041625Y0000525
X0044625
X0047625
X0050625
X0053625
X0056625
X0038625
X0035625
X0037625Y00078
X003745Y000895
X0036275Y0009275
X0035975Y00143
X00347Y002015
X0038625Y0024525
X0035625Y0027525
X0029625
Y0024525
Y0021525
Y0018525
Y0015525
X0026625Y0012525
Y0009525
X00248Y0008575
X002475Y001075
X0023625Y0015525
Y0018525
Y0021525
Y0027525
X0020925Y002765
X0017625Y0027525
X0014625
X0011625Y0030525
X00080841Y003084
X0008625Y0033525
X000845Y0037825
X0015925Y0037475
X0020175Y00375
X0022675Y0033375
X00238Y00321
X0028925Y0032025
X0030375Y00331
X0032675Y0033175
X0031175Y00362
X0026625Y0027525
X0011625Y0024525
Y0012525
X0008625
X0014625Y0006525
X0017625
Y0000525
X0020625
X0023625
X0026625
X0029625
X0032625
X0032125Y00054
X002255Y0005425
X0014625Y0000525
X0011625
X0008625
X000825Y004085
X000885Y0042975
X00128154Y00437438
X0011625Y0045525
X0017625
Y0042525
X00199Y0039875
X0011625Y0039525
X0014625Y0054525
X0017625
X0020625
X0023625
X0026625
X0029625
Y0051525
X0026625
X0032625Y0057525
X0030575Y0061625
X00326Y006645
X003065Y00713
X00300875Y00719875
X0031875Y007325
X003415Y0072575
X0032625Y0075525
X0034225Y0078225
X0026025Y0073025
X002345Y006215
X0019275Y0061525
X00186Y0062125
X0016275Y0059125
X0014625Y0060525
X0013325Y006125
X00338Y004455
X0032625Y0042525
X00313Y0040625
X0035625Y0039525
X0038625
X0039225Y004355
X004115Y004195
X0046275Y004155
X00483Y0041675
X004985Y00433
X004965Y0039825
X0044625Y0039525
X00464Y004745
X0047625Y0051525
X00508Y0052025
X00526Y005505
X0049725Y00561
X0047625Y0057525
X0044625
Y0060525
X0044075Y0061725
X0043075Y006125
X0041875Y0061025
X00397Y0060625
X0037875Y00609
X0037075Y006155
X0035625Y0057525
X00399751Y00575626
X004145Y0057575
X00407372Y00529045
X00385Y00516
X00365Y005305
X0036675Y0044675
X005265
X0053625Y0042525
X0055425Y004525
X0055375Y0047725
X0055575Y004955
X0056675Y0049825
X005775Y00501
X0060675Y0049925
X0059625Y0048525
X0060525Y004745
X0059625Y0045525
X0062625
X0065625
Y0042525
X00648Y0041575
X00703Y004295
X0070275Y004785
X0071625Y0048525
X00726Y00489625
Y0050575
X00733Y0051275
X0072875Y0052125
X007115Y005155
X007215Y005455
X007285
X0073525Y00546
X007025Y0057375
X00695Y0056725
X0067625Y0058025
X006635Y00587
X0066225Y005965
X0067Y0059475
X0066775Y00619
X0069025Y00618
X007105Y006175
X0070125Y0060375
X0070225Y005945
X0063275Y0059275
X00638Y0061975
X006205Y0062
X006675Y0064475
X0066725Y0067375
X006845Y00675
X006785Y00682
X0069025Y00701
X0065625Y0069525
X0062625
X00585Y007025
X0054325Y0069775
X0053425Y007155
X00536555Y00770002
X005335Y00786
X0056625Y0078525
X00574Y0078025
X005815Y00785
X0059625Y0078525
X0062625
X0065625
X0068625
X006855Y0075225
X0070975Y007515
X007395Y00745
X007385Y0072175
X0073575Y0066575
X0064975
X006605Y0072975
X0062625Y0075525
X0059625
X0056625
X0051025Y0077025
X00478Y007855
X0045825Y0077075
X00429Y0076025
X0043775Y0075025
X00423Y00741
X00416842Y00732748
X0041175Y007555
X00396Y0075575
X00367Y007705
X0035725Y007775
X003495Y0078725
X0036725Y0073925
X0034975Y0068
X004695Y006735
X0047775Y00676
X004645Y0063975
X00505Y006095
X0053225Y0059925
X0056625Y00602
Y0057525
X005915Y005725
X006505Y0056225
X0064525Y005555
X006565
X0065625Y0052275
X006445Y00524
X006385Y0050625
X006645Y005125
X00612Y00523
X0062625Y0048525
X0073175Y004735
X0073775Y00446
X00577Y00395
X00568Y0065425
X0055375Y0066125
X0052225Y006625
X007515Y006655
X0076625Y006695
X00767Y0067825
X0075975Y0068075
X0074625Y0069525
X0075475Y0070875
X00754Y0073575
X0074625Y0075525
Y0078525
X00774Y006625
Y0064625
X007765Y006225
X0078525Y0062075
X0077025Y006165
X007565Y0062175
X00748Y00595
X00751Y00583
X00746Y005755
X007585Y0057675
X0078675Y0056825
X00796Y0056775
X008Y0057475
X008085Y0054975
X0081875Y005425
X00803Y005375
X007975Y0053
X00777472
X0078175Y005405
X0076125Y0053425
X00754Y0053525
X0076125Y005225
X0075725Y0051275
X00745125
X00745731Y0047325
X00759713Y004735
X00773694
X00787675
X00801657
X0081175Y004895
Y0050475
X0080925Y0051825
X00845Y00506
X0086625Y0048525
X00909Y00475936
X009217
X009344
X00952Y004895
X0095625Y0051525
X0098625
Y0054525
X0095625
Y0057525
X0092625
X0090775Y0056625
X00912Y0054675
X0089475Y0055325
X00884125Y00576625
X00868625Y00576875
X00850625Y00576625
X00854625Y00583375
X00844375Y00583125
X0083925Y0055675
X008405Y0055
X0086625Y0054525
X0089625Y0051525
X0091575Y0049675
X0092625Y0042525
X0089625
X0083625
X00823Y0043125
X0080625Y0042525
Y0039525
X007455Y00405
X009835Y00402
X0098625Y0042525
X0100025Y0042175
X009905Y0043875
X0099975Y00461
X0098525Y0047
X0101025Y003945
X01019Y0039475
X0102075Y00603
X010215Y006195
X01031Y00617
X010305Y0063425
X0101625Y0069525
Y0072525
Y0075525
Y0078525
X0098625
Y0075525
Y0072525
Y0069525
Y0066525
X0095625
Y0069525
Y0072525
Y0075525
Y0078525
X0092625Y0066525
Y0063525
X0089625
Y0066525
X0086625Y0069525
X0083625
Y0066525
X0082975Y00637
X008105Y006365
X0080325Y0061
X0082975Y006145
X0086625Y0063525
X0090725Y0059875
X0095625Y0081525
X0098625
X0101625
Y0084525
Y0087525
X0098625
Y0084525
X0095625
Y0087525
Y0090525
X0074625
Y0093525
Y0096525
X00766Y00993
X0071225Y00994
X0071625Y0096525
Y0093525
X0068625
Y0096525
X006625Y0099375
X006065
X00546Y0099225
X0053625Y0096525
X0052925Y0097125
X0056625Y0096525
X00556Y0091875
X0054675Y0090925
X0056625Y0090525
X0059625
X0062625
X006285Y0091875
X0062625Y0087525
X0065625
X0068625
X0065625Y0084525
X0062625
Y0081525
X0059625
X0058175Y008155
X00582Y0084525
X0059625Y0084525
Y0087525
X0056625
X0053475Y0086675
X0052425Y0089275
X00511Y0092125
X0046925Y00923
X0044625Y0093525
X004405Y0094825
X0044Y00967
X0040775Y0096925
X0040075Y0099275
X004515
X0049575
X004405Y009125
X0041625Y0090525
X004045Y00897
X0039025Y0090675
X00389938Y00942188
X004055Y0093175
X0041625Y0087525
X004405Y00877
X00431953Y00855407
X00462Y00856
X0044625Y0081525
X0041625
X0038625
X003655Y0083775
X00395Y0085375
X0035625Y0087525
X0049675Y008195
X00518Y00794
X00341Y00812
X0032625Y0084525
Y0087525
X003245Y0088625
Y0092175
Y0095775
X0029625Y0096525
X0026625
X0023625
X0020625
X0023Y00991
X0028425
X0034125Y0099225
X00176Y009915
X00137
X0014625Y0096525
X0011625
Y0093525
Y0087525
X0008625Y0090525
Y0084525
Y0081525
X0005625
Y0084525
Y0087525
X0002625
Y0084525
Y0081525
X0021725Y00796
X00224Y0080275
X0025Y0081075
X0029625Y0084525
X000965Y0099225
T02
X0075Y0021175
X00775
X008
X0083475Y00143
X00725Y0021175
X007
X0067375Y002115
X00649Y002225
X00616375
X005835
X005082Y0019825
X0050795Y001915
X0050875Y001523
X00502Y0015255
X00388Y001513
X0038125Y0015155
X003813Y0019175
X0038155Y001985
X0039825Y00273
X0045975Y002725
X0056175Y00356
X00584Y0036475
X0068825Y003645
X007105Y00338
X00141Y00344625
Y0035525
Y00365875
X0014075Y00390125
X00048Y0038925
X00032375
X0001675Y0038875
X000145Y002865
X0002125
X000075Y002865
X00008Y00277667
Y00268833
X0000825Y0026
X0001525
X00022
X00009Y00248
Y0024125
Y0023425
X00056Y00263025
Y0027
X0005375Y0028425
Y00291
X001355
Y0028425
X001815Y00255125
Y002445
Y00233875
X00195Y00234125
Y0024475
Y00255375
X0014075Y0040075
Y00411375
X0014375Y005115
X00133125
X001225
Y0053325
X00133125
X0014375
X00155Y00534
X0017125Y005335
X00172Y0052225
Y00511625
Y00501
X00155Y0051225
X00074Y0049625
Y00485625
Y00475
X000585Y00475
X00058375Y00485375
Y0049575
X00048Y003985
X00032375
X0001675
X001245Y00606375
Y00617
Y00627625
X00163752Y0064132
X00171252
Y0064807
Y0065507
Y0066672
Y0067347
Y0068047
X00163752Y0066672
X00163752Y0074757
X00171252
Y0075432
Y0076132
Y0077297
Y0077972
Y0078672
X00163752Y0077297
X0025275Y00588
Y00578375
X0025675Y005695
X002675Y0056925
X00278125
X0028875
X002925Y004965
X0030375Y0049725
X00314375
X00325
X0033175Y00509375
Y0052
X00351501Y00551801
X00376751
X00439751
X00465001Y00552051
X0045175Y005185
X0044325Y0052525
X0042775
X004195Y005185
X0043075Y0049675
X0044225Y00497
X0044625Y00471
X0043525
X00425Y0047125
X0043975Y0045725
X00559Y00536
X0062125Y005235
X0062075Y005585
X0061225Y006505
X005585Y00635
X0048155Y00631751
X00427Y006535
X003865
X0040675Y0067425
X003865Y0069475
X00427
X004485Y00709
X0050195Y006905
X00512501Y00684951
X0064675Y007525
X0070275Y00776
X0062075Y0042725
X00769598Y00426
X0083825Y00461
X00962Y004465
X009505Y004245
X0097125Y0049
X0098425
X0099725
X0099075Y00572
X0097775
X0096475
X0093075Y005605
X009315Y00545
X0100475Y0059325
X00993125Y00619125
X0085875Y0062625
X0088875Y00665
X0074675Y0081075
X00734Y0082725
X007185Y00861
X006835Y0089675
X0069575Y009175
X005435Y0084925
X0049025Y00893
X0048125Y0093325
X003035Y0085075
X00292875
X0028225
X0030375Y0084
Y0082775
X0025575Y0082825
X0025275Y0081925
X00101Y00816
Y0080575
Y0082675
T03
X00092563Y0055875
X00142563
T04
X0063935Y007978
X0066475
X0069015Y007978
Y008232
X0066475Y008232
X0063935
T05
X0075Y0009
Y0012
X0078
X0081
Y0009
X0078
X0084
Y0012
X0087Y0012
X009
Y0009
X0087
X00665Y0009
X00635
Y0012
X00665
X00605Y0012
Y0009
X00575
Y0012
X0049Y0012
Y0009
X0046
Y0012
X0043Y0012
Y0009
X004
Y0012
X00315Y0012
X00285
Y0009
X00315
X002Y0009
X0017
Y0012
X002
X0014Y0012
Y0009
X00023Y004175
Y004425
X0058Y00975
X00605
X0063
X00655
X0027Y0091
X0024
X0021
Y0088
X0024
X0027
X0018Y0088
Y0091
X0015
Y0088
T06
X0079925Y00755113
X0085925Y00733387
X0091925Y00753387
Y00875387
X0079925Y00877113
T07
X008092Y00955
X0086
X009108
T08
X01Y0005
X0005
X01Y0095
X0005
M30
